if (_typeface_js && _typeface_js.loadFace) _typeface_js.loadFace({"glyphs":{"\u0000":{"x_min":0,"x_max":0,"ha":0},"":{"x_min":50,"x_max":448,"ha":499,"o":"m 249 1150 q 392 1079 336 1150 q 448 872 448 1009 q 392 665 448 735 q 249 595 336 595 q 105 665 161 595 q 50 872 50 735 q 105 1079 50 1009 q 249 1150 161 1150 m 249 663 q 306 679 283 663 q 343 724 329 696 q 363 791 357 753 q 369 872 369 829 q 363 953 369 915 q 343 1020 357 991 q 306 1065 329 1048 q 249 1082 283 1082 q 191 1065 214 1082 q 154 1020 168 1048 q 134 953 140 991 q 129 872 129 915 q 134 791 129 829 q 154 724 140 753 q 191 679 168 696 q 249 663 214 663 "},"₅":{"x_min":68,"x_max":428,"ha":499,"o":"m 428 151 q 377 35 428 80 q 212 -10 326 -10 q 129 0 170 -10 q 68 20 87 9 l 83 84 q 105 75 91 80 q 137 65 119 70 q 174 57 155 60 q 212 54 194 54 q 282 62 255 54 q 324 84 309 70 q 344 115 338 98 q 350 148 350 131 q 340 193 350 172 q 306 231 331 215 q 232 258 280 248 q 106 268 185 268 q 122 397 115 337 q 132 532 129 456 l 402 532 l 402 465 l 196 465 q 190 397 193 433 q 181 328 187 362 q 368 276 308 319 q 428 151 428 233 "},"Ҿ":{"x_min":28,"x_max":1047.78125,"ha":1131,"o":"m 352 461 q 449 163 357 263 q 697 64 542 64 q 845 81 778 64 q 951 126 912 98 l 982 46 q 884 4 951 26 q 713 -21 817 -18 l 713 -257 l 623 -257 l 623 -15 q 473 32 540 -3 q 357 128 406 68 q 281 272 308 189 q 253 461 254 356 q 163 474 204 463 q 91 509 122 486 q 44 570 61 533 q 28 664 28 608 q 30 698 28 676 q 36 731 33 719 l 114 720 q 110 694 111 707 q 109 675 109 682 q 256 542 109 544 q 300 735 264 652 q 392 873 336 817 q 521 955 449 928 q 675 983 593 983 q 951 862 854 983 q 1047 501 1047 742 q 1047 479 1047 491 q 1045 461 1046 467 l 352 461 m 949 542 q 932 684 949 619 q 880 798 915 750 q 794 872 846 845 q 671 900 742 900 q 531 867 590 900 q 434 782 472 834 q 376 667 396 730 q 352 542 356 604 l 949 542 "},"ǻ":{"x_min":67,"x_max":596,"ha":707,"o":"m 346 66 q 438 69 399 66 q 506 78 478 72 l 506 330 q 457 345 490 337 q 365 353 424 353 q 296 348 332 353 q 229 327 260 343 q 179 283 198 311 q 160 210 160 255 q 173 142 160 169 q 210 97 186 114 q 269 73 235 81 q 346 66 303 66 m 337 735 q 457 714 408 735 q 537 659 507 694 q 582 575 568 623 q 596 469 596 526 l 596 16 q 555 7 582 12 q 494 -2 529 3 q 417 -11 459 -8 q 330 -15 375 -15 q 225 -2 273 -15 q 142 37 178 10 q 87 106 107 64 q 67 210 67 148 q 89 310 67 268 q 151 378 111 351 q 247 418 192 405 q 368 431 303 431 q 409 428 387 431 q 451 423 430 426 q 485 416 471 419 q 506 410 500 412 l 506 454 q 500 527 506 491 q 476 590 494 562 q 423 636 457 619 q 333 654 389 654 q 215 642 254 654 q 158 624 176 631 l 146 704 q 218 725 169 715 q 337 735 268 735 m 485 926 q 475 875 485 898 q 449 837 465 853 q 410 812 432 821 q 363 803 388 803 q 275 836 310 803 q 240 926 240 869 q 275 1015 240 982 q 363 1049 310 1049 q 448 1015 411 1049 q 485 926 485 982 m 434 926 q 413 979 434 960 q 363 999 393 999 q 311 979 331 999 q 291 926 291 960 q 311 872 291 892 q 363 852 331 852 q 413 872 393 852 q 434 926 434 892 m 453 1249 l 486 1168 l 272 1089 l 250 1146 l 453 1249 "},"ȋ":{"x_min":-6.125,"x_max":333.125,"ha":328,"o":"m 209 0 l 119 0 l 119 718 l 209 718 l 209 0 m 163 1036 q 228 1024 196 1036 q 283 991 259 1013 q 321 933 307 969 q 333 851 334 898 l 273 851 q 269 878 273 860 q 254 914 266 896 q 222 944 243 931 q 163 958 200 958 q 104 944 126 958 q 72 914 83 931 q 57 878 60 896 q 54 851 54 860 l -6 851 q 5 933 -7 898 q 43 991 19 969 q 98 1024 67 1013 q 163 1036 130 1036 "},"`":{"x_min":83,"x_max":366,"ha":522,"o":"m 146 1074 l 366 862 l 320 810 l 83 1003 l 146 1074 "},"ǆ":{"x_min":76,"x_max":1388,"ha":1442,"o":"m 691 21 q 588 -4 650 8 q 429 -17 525 -17 q 285 8 350 -17 q 174 83 220 34 q 101 201 127 131 q 76 358 76 270 q 97 508 76 439 q 160 627 119 577 q 263 705 202 677 q 401 733 323 733 q 525 712 472 733 q 601 674 577 692 l 601 1061 l 691 1078 l 691 21 m 601 587 q 569 607 588 596 q 525 628 550 619 q 471 644 500 638 q 410 651 442 651 q 298 627 343 651 q 224 564 252 603 q 184 471 197 524 q 172 358 172 417 q 243 140 172 216 q 431 65 314 65 q 539 71 497 65 q 601 84 580 77 l 601 587 m 1375 644 q 1291 544 1342 608 q 1182 401 1240 480 q 1067 237 1124 323 q 967 76 1010 152 l 1388 76 l 1388 0 l 863 0 l 863 64 q 952 214 899 132 q 1063 376 1006 296 q 1174 527 1120 456 q 1265 642 1228 597 l 884 642 l 884 718 l 1375 718 l 1375 644 m 1122 928 l 1267 1062 l 1306 1018 l 1122 815 l 939 1018 l 977 1062 l 1122 928 "},"Ƹ":{"x_min":68,"x_max":719,"ha":758,"o":"m 68 262 q 97 389 68 337 q 172 473 126 440 q 275 521 217 505 q 390 542 333 537 q 305 637 348 587 q 222 734 262 686 q 147 826 181 782 q 89 906 113 869 l 89 963 l 676 963 l 676 881 l 208 881 q 265 808 230 851 q 339 717 299 765 q 422 621 379 669 q 504 533 465 572 l 504 474 l 490 474 q 365 464 423 474 q 263 432 306 455 q 193 367 219 408 q 168 262 168 326 q 188 168 168 207 q 244 106 208 130 q 330 71 280 81 q 440 61 380 61 q 526 67 487 61 q 596 85 564 74 q 650 106 627 95 q 687 126 673 117 l 719 45 q 613 1 681 24 q 441 -21 545 -21 q 290 -5 359 -21 q 172 43 222 9 q 95 131 123 77 q 68 262 68 184 "},"ƃ":{"x_min":119,"x_max":734,"ha":810,"o":"m 209 674 q 284 712 232 692 q 408 733 337 733 q 546 705 486 733 q 649 627 607 677 q 712 508 690 577 q 734 358 734 439 q 708 201 734 270 q 635 83 682 131 q 524 8 589 34 q 380 -17 459 -17 q 221 -4 284 -17 q 119 21 159 8 l 119 1071 l 650 1071 l 650 995 l 209 995 l 209 674 m 209 84 q 270 71 229 77 q 378 65 312 65 q 566 140 495 65 q 638 358 638 216 q 625 471 638 417 q 585 564 612 524 q 511 627 557 603 q 399 651 466 651 q 338 644 367 651 q 284 628 309 638 q 240 607 259 619 q 209 587 221 596 l 209 84 "},"ἂ":{"x_min":76,"x_max":796.109375,"ha":831,"o":"m 626 57 q 539 7 591 29 q 412 -15 487 -15 q 264 14 327 -15 q 159 93 201 43 q 96 211 117 143 q 76 357 76 279 q 101 516 76 445 q 175 634 127 586 q 290 707 223 682 q 438 732 356 732 q 518 727 480 732 q 589 716 557 722 q 646 702 622 709 q 685 688 671 694 l 685 175 q 691 121 685 141 q 712 89 698 100 q 747 71 726 77 q 796 62 768 66 l 783 -13 q 626 57 671 -8 m 595 626 q 576 631 590 627 q 542 640 563 636 q 497 647 522 644 q 446 650 472 650 q 244 575 316 650 q 172 357 172 500 q 183 246 172 298 q 224 154 195 194 q 298 90 252 114 q 412 67 344 67 q 476 73 446 67 q 531 90 507 80 q 574 111 556 100 q 601 130 592 122 q 595 196 595 161 l 595 626 m 180 839 q 236 891 211 864 q 274 944 261 918 q 239 969 252 951 q 226 1008 226 986 q 244 1057 226 1036 q 295 1078 262 1078 q 351 1056 330 1078 q 372 998 372 1034 q 358 946 372 973 q 323 893 345 919 q 274 842 302 867 q 217 799 246 818 l 180 839 m 656 839 l 600 799 l 421 1024 l 500 1079 l 656 839 "},"ᾉ":{"x_min":14,"x_max":1204,"ha":1245,"o":"m 771 0 q 721 136 745 70 q 675 264 698 201 l 208 264 q 161 136 184 201 q 112 0 137 70 l 14 0 q 118 279 69 149 q 212 525 166 410 q 305 748 259 641 q 401 963 351 855 l 486 963 q 583 748 536 855 q 675 525 629 641 q 770 279 722 409 q 876 0 819 150 l 771 0 m 441 855 q 340 611 388 734 q 238 345 291 487 l 647 345 q 543 611 594 487 q 441 855 493 734 m 195 699 q 138 742 166 718 q 89 793 110 767 q 54 846 67 819 q 41 898 41 873 q 61 956 41 934 q 117 978 82 978 q 168 957 150 978 q 187 908 187 936 q 173 869 187 886 q 138 844 160 851 q 176 791 151 818 q 233 739 201 764 l 195 699 m 1191 -13 q 1111 -1 1145 -11 q 1054 30 1077 9 q 1019 86 1031 52 q 1008 171 1008 120 l 1008 718 l 1098 718 l 1098 174 q 1104 121 1098 141 q 1123 89 1110 100 q 1155 71 1135 77 q 1204 62 1176 66 l 1191 -13 "},"ў":{"x_min":2,"x_max":626,"ha":658,"o":"m 314 -15 q 227 161 269 69 q 148 346 185 252 q 80 534 111 440 q 28 718 50 627 l 123 718 q 162 574 139 651 q 216 415 185 497 q 282 247 246 333 q 359 77 319 161 q 413 240 389 164 q 456 392 436 316 q 495 547 477 468 q 535 718 514 626 l 626 718 q 524 326 581 516 q 401 -22 468 136 q 347 -129 375 -84 q 285 -204 319 -174 q 206 -247 251 -233 q 100 -261 161 -261 q 37 -252 65 -261 q 2 -240 8 -244 l 20 -165 q 51 -177 25 -169 q 104 -185 76 -185 q 174 -176 143 -185 q 230 -148 205 -168 q 275 -95 255 -127 q 314 -15 295 -63 m 345 840 q 217 883 267 840 q 153 1005 166 926 l 227 1025 q 263 947 235 977 q 345 918 292 918 q 426 947 397 918 q 463 1025 454 977 l 537 1005 q 473 883 523 926 q 345 840 422 840 "},"ţ":{"x_min":114,"x_max":521,"ha":538,"o":"m 338 -49 q 400 -90 377 -66 q 423 -155 423 -115 q 417 -191 423 -172 q 396 -225 411 -209 q 354 -250 381 -240 q 286 -260 328 -260 q 229 -255 258 -260 q 188 -243 200 -250 l 199 -183 q 233 -193 214 -190 q 281 -196 253 -196 q 338 -155 338 -196 q 318 -119 338 -131 q 257 -90 299 -106 q 269 -58 261 -76 q 286 -23 278 -40 q 292 -10 289 -16 q 235 1 260 -6 q 163 55 190 19 q 125 143 136 90 q 114 268 114 196 l 114 929 l 204 946 l 204 718 l 490 718 l 490 642 l 204 642 l 204 260 q 214 160 204 198 q 244 101 224 122 q 291 73 263 80 q 352 67 319 67 q 444 80 409 67 q 498 104 479 93 l 521 29 q 453 0 501 16 q 353 -15 407 -13 q 338 -49 343 -34 "},"ȡ":{"x_min":76,"x_max":997,"ha":980,"o":"m 803 54 q 738 34 763 54 q 690 -14 713 14 l 690 -50 q 721 -147 690 -115 q 805 -179 753 -179 q 886 -145 860 -179 q 912 -62 912 -111 q 885 18 912 -16 q 803 54 859 54 m 690 77 q 750 117 717 105 q 819 130 783 130 q 893 115 860 130 q 949 74 926 100 q 984 13 972 48 q 997 -62 997 -21 q 944 -205 997 -154 q 805 -257 891 -257 q 672 -218 717 -257 q 609 -115 626 -179 l 506 -238 l 459 -196 l 601 -26 q 600 -5 600 -13 q 600 14 600 2 q 524 -4 569 3 q 429 -13 480 -13 q 285 12 349 -13 q 173 84 220 37 q 101 201 127 132 q 76 357 76 270 q 97 508 76 439 q 160 627 119 577 q 262 705 202 677 q 401 733 323 733 q 524 712 472 733 q 600 674 576 692 l 600 1061 l 690 1078 l 690 77 m 600 587 q 568 607 587 596 q 524 628 549 619 q 470 644 499 638 q 409 651 441 651 q 297 627 342 651 q 224 564 252 603 q 184 471 197 524 q 172 357 172 417 q 190 233 172 287 q 243 143 209 180 q 324 87 277 106 q 430 69 372 69 q 538 79 497 69 q 600 96 580 89 l 600 587 "},"í":{"x_min":72,"x_max":355,"ha":328,"o":"m 209 0 l 119 0 l 119 718 l 209 718 l 209 0 m 355 1003 l 117 810 l 72 862 l 291 1074 l 355 1003 "},"ң":{"x_min":119,"x_max":772,"ha":815,"o":"m 690 76 l 772 76 l 772 -198 l 684 -198 l 684 0 l 600 0 l 600 335 l 209 335 l 209 0 l 119 0 l 119 718 l 209 718 l 209 411 l 600 411 l 600 718 l 690 718 l 690 76 "},"ņ":{"x_min":119,"x_max":679,"ha":790,"o":"m 119 693 q 227 718 159 704 q 394 732 295 732 q 531 708 476 732 q 618 641 585 684 q 665 536 651 597 q 679 401 679 475 l 679 0 l 589 0 l 589 372 q 578 501 589 448 q 543 587 568 554 q 479 635 519 620 q 380 650 440 650 q 269 643 316 650 q 209 630 222 636 l 209 0 l 119 0 l 119 693 m 358 -94 l 358 -76 l 447 -76 q 448 -88 448 -81 q 448 -99 448 -95 q 406 -216 448 -174 q 298 -258 364 -258 q 274 -256 287 -258 q 255 -252 261 -255 l 255 -193 q 336 -169 314 -193 q 358 -94 358 -145 "},"ǜ":{"x_min":111,"x_max":671,"ha":790,"o":"m 671 24 q 562 0 630 13 q 395 -14 494 -14 q 261 9 315 -14 q 173 76 206 33 q 125 180 140 119 q 111 315 111 241 l 111 718 l 201 718 l 201 344 q 212 215 201 268 q 248 129 223 162 q 313 82 273 97 q 409 68 352 68 q 521 74 473 68 q 581 87 568 81 l 581 718 l 671 718 l 671 24 m 311 1173 l 444 984 l 393 942 l 247 1114 l 311 1173 m 308 891 q 289 843 308 861 q 244 825 271 825 q 198 843 216 825 q 180 891 180 861 q 198 939 180 921 q 244 958 216 958 q 289 939 271 958 q 308 891 308 921 m 599 891 q 580 843 599 861 q 535 825 562 825 q 489 843 507 825 q 471 891 471 861 q 489 939 471 921 q 535 958 507 958 q 580 939 562 958 q 599 891 599 921 "},"ỳ":{"x_min":2,"x_max":626,"ha":658,"o":"m 314 -15 q 227 161 269 69 q 148 346 185 252 q 80 534 111 440 q 28 718 50 627 l 123 718 q 162 574 139 651 q 216 415 185 497 q 282 247 246 333 q 359 77 319 161 q 413 240 389 164 q 456 392 436 316 q 495 547 477 468 q 535 718 514 626 l 626 718 q 524 326 581 516 q 401 -22 468 136 q 347 -129 375 -84 q 285 -204 319 -174 q 206 -247 251 -233 q 100 -261 161 -261 q 37 -252 65 -261 q 2 -240 8 -244 l 20 -165 q 51 -177 25 -169 q 104 -185 76 -185 q 174 -176 143 -185 q 230 -148 205 -168 q 275 -95 255 -127 q 314 -15 295 -63 m 216 1074 l 436 862 l 390 810 l 153 1003 l 216 1074 "},"Ҫ":{"x_min":86,"x_max":807,"ha":846,"o":"m 506 -50 q 568 -91 545 -66 q 591 -155 591 -115 q 585 -191 591 -172 q 564 -225 579 -209 q 522 -250 549 -240 q 454 -260 496 -260 q 397 -255 426 -260 q 356 -243 368 -250 l 367 -183 q 401 -193 382 -190 q 449 -196 421 -196 q 506 -155 506 -196 q 486 -119 506 -132 q 425 -90 467 -107 q 439 -55 431 -75 q 457 -15 447 -34 q 308 33 376 -4 q 191 133 240 70 q 113 283 141 197 q 86 481 86 370 q 122 696 86 602 q 220 853 159 789 q 362 950 281 917 q 530 983 443 983 q 629 976 584 983 q 706 958 673 969 q 763 937 740 948 q 800 919 787 927 l 769 836 q 681 877 734 857 q 548 898 627 898 q 390 867 458 898 q 277 781 323 836 q 208 649 231 725 q 186 480 186 573 q 208 307 186 384 q 276 176 231 230 q 385 93 320 122 q 533 64 449 64 q 686 81 625 64 q 780 116 748 98 l 807 35 q 773 19 797 29 q 714 1 750 10 q 630 -14 678 -8 q 525 -21 583 -21 l 518 -21 q 511 -35 514 -27 q 506 -50 508 -43 "},"қ":{"x_min":119,"x_max":727,"ha":735,"o":"m 119 0 l 119 718 l 209 718 l 209 386 q 296 470 248 423 q 390 563 344 516 q 476 650 436 609 q 540 718 516 691 l 648 718 q 571 636 615 681 q 480 545 526 591 q 389 457 433 500 q 312 383 345 414 q 391 324 349 358 q 473 250 433 290 q 552 167 514 211 q 623 82 591 123 l 727 82 l 727 -257 l 637 -257 l 637 0 l 572 0 q 493 104 538 51 q 398 204 447 157 q 299 291 348 252 q 209 354 249 330 l 209 0 l 119 0 "},"Ύ":{"x_min":-34,"x_max":951,"ha":965,"o":"m 524 0 l 524 396 q 342 688 425 547 q 189 963 259 829 l 299 963 q 427 714 357 840 q 573 475 497 589 q 717 714 646 589 q 848 963 788 840 l 951 963 q 795 688 877 831 q 618 399 713 546 l 618 0 l 524 0 m 128 955 l 36 689 l -34 706 l 28 979 l 128 955 "},"":{"x_min":85,"x_max":678,"ha":751,"o":"m 85 381 q 220 809 85 664 q 614 967 355 955 l 620 891 q 463 865 535 885 q 336 802 391 845 q 243 693 280 760 q 191 529 205 626 q 282 563 229 548 q 394 578 334 578 q 526 553 472 578 q 614 489 580 529 q 662 395 647 448 q 678 284 678 343 q 661 176 678 230 q 609 78 644 122 q 520 6 573 34 q 393 -21 466 -21 q 163 85 241 -21 q 85 381 85 191 m 386 499 q 274 484 322 499 q 184 450 226 469 q 182 413 182 426 q 182 380 182 400 q 191 256 182 315 q 224 154 200 198 q 289 83 248 109 q 391 58 329 58 q 479 76 443 58 q 537 126 515 95 q 570 197 560 156 q 581 281 581 237 q 531 446 581 393 q 386 499 482 499 "},"ѕ":{"x_min":56,"x_max":538,"ha":594,"o":"m 266 64 q 394 89 343 64 q 445 176 445 115 q 436 226 445 205 q 406 263 427 247 q 351 295 385 280 q 267 331 317 311 q 191 365 227 348 q 127 406 155 383 q 83 461 100 429 q 67 539 67 493 q 132 680 67 626 q 313 735 198 735 q 434 722 387 735 q 502 700 482 710 l 481 619 q 425 642 464 628 q 309 656 385 656 q 252 649 279 656 q 204 630 225 643 q 171 596 183 617 q 159 547 159 576 q 170 497 159 518 q 202 460 181 476 q 254 430 223 444 q 326 400 286 416 q 405 366 367 383 q 472 324 443 348 q 519 265 501 299 q 538 180 538 231 q 465 33 538 83 q 266 -17 392 -17 q 122 -1 172 -17 q 56 23 72 14 l 79 105 q 97 96 83 102 q 134 82 111 90 q 191 69 158 75 q 266 64 223 64 "},"Ш":{"x_min":125,"x_max":1217,"ha":1342,"o":"m 1217 0 l 125 0 l 125 963 l 219 963 l 219 82 l 624 82 l 624 963 l 718 963 l 718 82 l 1123 82 l 1123 963 l 1217 963 l 1217 0 "},"Ψ":{"x_min":94,"x_max":1020,"ha":1114,"o":"m 510 0 l 510 254 q 312 283 391 254 q 184 366 233 313 q 114 490 135 419 q 94 644 94 561 l 94 963 l 187 963 l 187 654 q 208 507 187 568 q 271 409 230 447 q 372 355 312 372 q 510 339 432 339 l 510 963 l 604 963 l 604 339 q 741 355 680 339 q 842 409 801 372 q 905 507 883 447 q 927 654 927 568 l 927 963 l 1020 963 l 1020 644 q 999 490 1020 561 q 929 366 978 419 q 801 283 880 313 q 604 254 722 254 l 604 0 l 510 0 "},"ӊ":{"x_min":119,"x_max":776.578125,"ha":815,"o":"m 690 76 l 776 76 q 768 -21 778 24 q 739 -108 757 -68 q 696 -178 720 -147 q 648 -231 671 -210 l 585 -185 q 610 -157 594 -176 q 641 -112 625 -137 q 669 -58 657 -87 q 684 0 681 -29 l 600 0 l 600 335 l 209 335 l 209 0 l 119 0 l 119 718 l 209 718 l 209 411 l 600 411 l 600 718 l 690 718 l 690 76 "},"Ἴ":{"x_min":-64,"x_max":540,"ha":665,"o":"m 446 963 l 540 963 l 540 0 l 446 0 l 446 963 m -64 739 q -7 791 -32 764 q 30 844 17 818 q -4 869 8 851 q -18 908 -18 886 q 0 957 -18 936 q 51 978 18 978 q 107 956 86 978 q 128 898 128 934 q 114 846 128 873 q 79 793 101 819 q 30 742 58 767 q -26 699 2 718 l -64 739 m 300 979 l 380 924 l 200 699 l 145 739 l 300 979 "},"ŭ":{"x_min":111,"x_max":671,"ha":790,"o":"m 671 24 q 562 0 630 13 q 395 -14 494 -14 q 261 9 315 -14 q 173 76 206 33 q 125 180 140 119 q 111 315 111 241 l 111 718 l 201 718 l 201 344 q 212 215 201 268 q 248 129 223 162 q 313 82 273 97 q 409 68 352 68 q 521 74 473 68 q 581 87 568 81 l 581 718 l 671 718 l 671 24 m 391 851 q 326 862 358 851 q 271 895 295 873 q 233 952 247 917 q 222 1036 220 987 l 282 1036 q 285 1008 282 1026 q 300 972 288 990 q 332 942 311 955 q 391 929 354 929 q 450 942 428 929 q 482 972 471 955 q 497 1008 494 990 q 501 1036 501 1026 l 561 1036 q 549 952 562 987 q 511 895 535 917 q 456 862 487 873 q 391 851 424 851 "},"―":{"x_min":-3,"x_max":1386,"ha":1383,"o":"m -3 442 l 1386 442 l 1386 363 l -3 363 l -3 442 "},"{":{"x_min":60,"x_max":432,"ha":443,"o":"m 183 401 q 223 371 205 389 q 254 327 241 354 q 272 263 266 301 q 279 174 279 226 l 279 26 q 281 -82 279 -39 q 299 -153 284 -126 q 344 -191 313 -180 q 432 -203 374 -203 l 432 -272 l 420 -272 q 309 -256 354 -272 q 239 -212 265 -241 q 203 -140 213 -183 q 193 -40 193 -96 l 193 229 q 185 278 193 254 q 161 322 177 303 q 119 354 144 342 q 60 367 94 367 l 60 435 q 119 447 94 435 q 161 479 144 460 q 185 523 177 498 q 193 572 193 547 l 193 842 q 203 941 193 897 q 239 1014 213 985 q 309 1058 265 1043 q 420 1074 354 1074 l 432 1074 l 432 1005 q 344 993 374 1005 q 299 955 313 982 q 281 884 284 928 q 279 775 279 840 l 279 626 q 272 538 279 575 q 254 475 266 501 q 223 431 241 448 q 183 401 205 414 "},"Ӄ":{"x_min":125,"x_max":778,"ha":831,"o":"m 357 528 q 518 509 442 528 q 653 446 595 490 q 744 328 711 401 q 778 145 778 255 q 757 -12 778 61 q 693 -140 736 -86 q 587 -225 651 -194 q 435 -257 522 -257 q 391 -255 414 -257 q 360 -251 368 -254 l 367 -170 q 389 -174 373 -173 q 425 -175 405 -175 q 527 -156 480 -175 q 608 -97 574 -137 q 661 2 642 -58 q 681 147 681 63 q 662 274 681 222 q 614 360 644 326 q 544 413 583 394 q 465 441 505 432 q 384 451 424 450 q 312 453 344 453 q 219 444 266 453 l 219 0 l 125 0 l 125 963 l 219 963 l 219 501 q 335 615 272 552 q 461 742 399 678 q 577 864 523 806 q 666 963 632 922 l 777 963 q 686 865 738 921 q 577 750 634 809 q 463 633 520 691 q 357 528 406 575 "},"Ĳ":{"x_min":125,"x_max":899,"ha":1021,"o":"m 125 963 l 219 963 l 219 0 l 125 0 l 125 963 m 899 302 q 885 174 899 233 q 837 71 871 115 q 747 3 803 27 q 606 -21 690 -21 q 514 -11 556 -21 q 441 9 472 -2 q 387 35 409 22 q 355 60 366 49 l 399 137 q 430 113 411 126 q 474 89 449 100 q 530 70 499 77 q 596 64 560 64 q 754 120 703 64 q 805 312 805 176 l 805 963 l 899 963 l 899 302 "},"ǭ":{"x_min":76,"x_max":732,"ha":808,"o":"m 567 26 q 513 -6 542 10 q 459 -50 484 -23 q 424 -95 437 -73 q 411 -140 411 -116 q 427 -175 411 -164 q 469 -187 444 -187 q 496 -184 481 -187 q 522 -178 510 -182 l 529 -245 q 496 -253 517 -249 q 454 -258 474 -258 q 348 -230 379 -258 q 318 -161 318 -203 q 342 -83 318 -118 q 404 -17 366 -48 q 272 10 331 -17 q 168 85 212 37 q 100 204 124 134 q 76 358 76 273 q 100 512 76 443 q 168 631 124 582 q 271 707 212 680 q 404 735 331 735 q 536 707 476 735 q 639 631 595 680 q 707 512 683 582 q 732 358 732 443 q 687 156 732 241 q 567 26 643 70 m 636 358 q 573 573 636 493 q 404 653 510 653 q 234 573 297 653 q 172 358 172 493 q 234 144 172 223 q 404 65 297 65 q 573 144 510 65 q 636 358 636 223 m 220 902 l 220 978 l 588 978 l 588 902 l 220 902 "},"ἣ":{"x_min":119,"x_max":679,"ha":789,"o":"m 119 693 q 227 718 159 704 q 394 732 295 732 q 531 708 476 732 q 618 641 585 684 q 665 536 651 597 q 679 401 679 475 l 679 -256 l 589 -256 l 589 372 q 578 501 589 448 q 543 587 568 554 q 479 635 519 620 q 380 650 440 650 q 269 643 316 650 q 209 630 222 636 l 209 0 l 119 0 l 119 693 m 579 839 l 523 799 l 344 1024 l 423 1079 l 579 839 m 296 799 q 239 842 267 818 q 190 893 211 867 q 155 946 168 919 q 142 998 142 973 q 162 1056 142 1034 q 218 1078 183 1078 q 269 1057 251 1078 q 288 1008 288 1036 q 274 969 288 986 q 239 944 261 951 q 276 891 251 918 q 334 839 302 864 l 296 799 "},"ᾨ":{"x_min":-29,"x_max":1414,"ha":1454,"o":"m 555 983 q 724 953 644 983 q 865 863 805 923 q 961 715 926 803 q 997 509 997 626 q 978 364 997 430 q 931 244 959 298 q 869 149 903 190 q 804 81 834 108 l 1019 81 l 1019 0 l 666 0 l 666 61 q 756 142 715 97 q 829 243 798 187 q 878 366 860 300 q 897 512 897 433 q 872 673 897 602 q 801 795 847 745 q 694 871 756 845 q 555 898 631 898 q 416 871 479 898 q 309 795 354 845 q 238 673 263 745 q 214 512 214 602 q 232 366 214 433 q 281 243 250 300 q 354 142 312 187 q 444 61 395 97 l 444 0 l 92 0 l 92 81 l 306 81 q 241 149 275 108 q 179 244 207 190 q 132 364 151 298 q 114 509 114 430 q 149 715 114 626 q 245 863 184 803 q 385 953 305 923 q 555 983 465 983 m -29 739 q 27 791 2 764 q 65 844 52 818 q 30 869 43 851 q 17 908 17 886 q 35 957 17 936 q 86 978 53 978 q 142 956 121 978 q 163 898 163 934 q 149 846 163 873 q 114 793 136 819 q 65 742 93 767 q 8 699 37 718 l -29 739 m 1401 -13 q 1321 -1 1355 -11 q 1264 30 1287 9 q 1229 86 1241 52 q 1218 171 1218 120 l 1218 718 l 1308 718 l 1308 174 q 1314 121 1308 141 q 1333 89 1320 100 q 1365 71 1345 77 q 1414 62 1386 66 l 1401 -13 "},"Я":{"x_min":54,"x_max":728,"ha":853,"o":"m 634 879 q 567 885 607 882 q 475 889 528 889 q 364 879 418 889 q 269 845 311 869 q 203 780 228 821 q 178 676 178 739 q 202 567 178 608 q 269 505 226 526 q 373 476 312 483 q 504 470 433 470 l 634 470 l 634 879 m 728 0 l 634 0 l 634 389 l 480 389 q 430 390 459 389 q 380 394 401 391 q 325 315 355 361 q 265 217 295 269 q 207 109 235 165 q 154 0 179 54 l 54 0 q 108 113 76 52 q 173 230 140 173 q 236 334 206 287 q 284 407 266 380 q 222 429 258 414 q 155 474 187 444 q 101 551 123 504 q 79 672 79 598 q 187 894 79 818 q 486 971 295 971 q 610 964 543 971 q 728 944 677 958 l 728 0 "},"Ɲ":{"x_min":-35,"x_max":860,"ha":985,"o":"m 218 -36 q 212 -124 218 -83 q 188 -195 206 -165 q 135 -242 169 -225 q 42 -260 101 -260 q -2 -255 19 -260 q -35 -247 -23 -251 l -22 -172 q -1 -178 -15 -175 q 28 -181 12 -181 q 103 -149 81 -181 q 125 -51 125 -118 l 125 963 l 199 963 q 351 779 271 883 q 510 568 432 675 q 655 357 588 460 q 767 179 723 255 l 767 963 l 860 963 l 860 0 l 780 0 q 712 113 753 48 q 623 253 671 178 q 520 406 575 327 q 412 558 466 484 q 308 698 359 633 q 218 810 257 763 l 218 -36 "},"ὤ":{"x_min":86,"x_max":1072,"ha":1158,"o":"m 624 583 l 624 376 q 627 282 624 334 q 647 183 630 230 q 698 103 664 135 q 793 72 732 72 q 930 138 883 72 q 978 347 978 204 q 962 477 978 417 q 925 582 946 537 q 884 656 904 627 q 858 697 865 686 l 940 732 q 971 685 949 719 q 1016 601 994 651 q 1055 485 1038 551 q 1072 344 1072 420 q 1051 178 1072 246 q 993 68 1030 110 q 906 6 956 25 q 794 -13 855 -13 q 667 18 722 -13 q 578 128 611 49 q 490 18 545 49 q 363 -13 435 -13 q 251 6 302 -13 q 164 68 201 25 q 106 178 127 110 q 86 344 86 246 q 102 485 86 420 q 141 601 119 551 q 186 685 163 651 q 217 732 208 719 l 299 697 q 273 656 292 686 q 232 582 253 627 q 195 477 211 537 q 180 347 180 417 q 227 138 180 204 q 364 72 274 72 q 459 103 425 72 q 510 183 493 135 q 530 282 527 230 q 534 376 534 334 l 534 583 l 624 583 m 399 839 q 455 891 430 864 q 493 944 480 918 q 458 969 471 951 q 445 1008 445 986 q 463 1057 445 1036 q 514 1078 481 1078 q 570 1056 549 1078 q 591 998 591 1034 q 577 946 591 973 q 542 893 564 919 q 493 842 521 867 q 436 799 465 818 l 399 839 m 763 1079 l 843 1024 l 663 799 l 608 839 l 763 1079 "},"Ȓ":{"x_min":125,"x_max":825,"ha":858,"o":"m 767 673 q 709 502 767 565 q 559 412 652 440 q 617 337 581 384 q 690 234 652 290 q 763 116 727 177 q 825 0 800 55 l 724 0 q 660 111 694 55 q 591 218 626 166 q 522 315 555 270 q 464 393 489 359 q 375 389 419 389 l 219 389 l 219 0 l 125 0 l 125 944 q 242 964 175 958 q 366 971 309 971 q 666 895 565 971 q 767 673 767 820 m 377 889 q 285 885 324 889 q 219 879 245 882 l 219 470 l 349 470 q 473 476 415 470 q 574 503 531 482 q 642 565 617 525 q 668 675 668 605 q 642 780 668 739 q 577 846 617 822 q 485 879 537 870 q 377 889 433 889 m 401 1253 q 466 1241 434 1253 q 521 1208 497 1230 q 559 1150 545 1186 q 571 1068 572 1115 l 511 1068 q 507 1095 511 1077 q 492 1131 504 1113 q 460 1161 481 1148 q 401 1175 438 1175 q 342 1161 364 1175 q 310 1131 321 1148 q 295 1095 298 1113 q 292 1068 292 1077 l 232 1068 q 243 1150 230 1115 q 281 1208 257 1186 q 336 1241 305 1230 q 401 1253 368 1253 "},"ɏ":{"x_min":30,"x_max":679,"ha":703,"o":"m 342 -15 q 261 165 294 72 q 198 354 227 258 l 39 354 l 39 428 l 169 428 q 103 575 132 503 q 56 718 73 647 l 151 718 q 189 580 167 652 q 238 428 212 507 l 483 428 q 528 565 511 494 q 563 718 545 636 l 654 718 q 618 571 636 643 q 566 428 601 498 l 679 428 l 679 354 l 543 354 q 497 156 531 251 q 429 -22 464 62 q 375 -129 403 -84 q 313 -204 347 -174 q 234 -247 279 -233 q 128 -261 189 -261 q 65 -252 93 -261 q 30 -240 36 -244 l 48 -165 q 79 -177 53 -169 q 132 -185 104 -185 q 202 -176 171 -185 q 258 -148 233 -168 q 303 -95 283 -127 q 342 -15 323 -63 m 387 77 q 434 220 413 152 q 463 354 454 287 l 285 354 q 323 215 294 285 q 387 77 352 145 "},"⁸":{"x_min":58,"x_max":439,"ha":499,"o":"m 439 583 q 387 471 439 515 q 247 428 336 428 q 160 440 197 428 q 101 473 124 453 q 68 521 78 494 q 58 576 58 548 q 86 661 58 629 q 151 712 115 693 q 96 758 119 729 q 73 837 73 788 q 86 894 73 867 q 122 940 99 920 q 177 971 145 960 q 247 983 209 983 q 324 971 291 983 q 378 940 356 959 q 410 896 400 921 q 421 846 421 871 q 397 766 421 798 q 340 713 373 735 q 416 656 394 691 q 439 583 439 620 m 130 585 q 134 553 130 570 q 152 522 139 536 q 189 500 166 509 q 247 491 212 491 q 337 518 311 491 q 364 578 364 546 q 326 645 364 618 q 204 690 288 672 q 150 648 170 674 q 130 585 130 622 m 349 842 q 323 897 349 873 q 247 922 298 922 q 171 898 198 922 q 145 839 145 874 q 176 774 145 797 q 281 733 207 751 q 332 781 316 755 q 349 842 349 806 "},"k":{"x_min":119,"x_max":663,"ha":688,"o":"m 299 390 q 398 310 348 355 q 497 212 448 265 q 589 104 546 159 q 663 0 632 49 l 553 0 q 476 105 519 52 q 386 205 433 158 q 292 290 339 251 q 209 348 245 328 l 209 0 l 119 0 l 119 1061 l 209 1078 l 209 408 q 281 477 237 435 q 370 562 325 518 q 454 647 414 606 q 521 718 494 687 l 632 718 q 558 644 599 685 q 472 559 517 603 q 383 473 427 515 q 299 390 340 430 "},"Ά":{"x_min":9,"x_max":875,"ha":888,"o":"m 770 0 q 720 136 744 70 q 674 264 697 201 l 207 264 q 160 136 183 201 q 111 0 136 70 l 13 0 q 117 279 68 149 q 211 525 165 410 q 304 748 258 641 q 400 963 350 855 l 485 963 q 582 748 535 855 q 674 525 628 641 q 769 279 721 409 q 875 0 818 150 l 770 0 m 440 855 q 339 611 387 734 q 237 345 290 487 l 646 345 q 542 611 593 487 q 440 855 492 734 m 292 903 l 54 710 l 9 762 l 228 974 l 292 903 "},"ȇ":{"x_min":76,"x_max":678.78125,"ha":761,"o":"m 76 360 q 103 524 76 454 q 173 641 130 594 q 273 712 217 689 q 389 735 330 735 q 600 648 521 735 q 678 384 678 562 q 678 361 678 372 q 676 341 677 350 l 172 341 q 237 137 176 208 q 431 67 298 67 q 547 80 504 67 q 610 104 590 94 l 627 26 q 554 0 607 15 q 428 -15 500 -15 q 267 12 334 -15 q 157 90 200 40 q 95 209 114 140 q 76 360 76 278 m 586 417 q 533 591 583 529 q 391 654 483 654 q 304 634 342 654 q 237 582 266 615 q 193 507 209 550 q 174 417 177 464 l 586 417 m 388 1036 q 453 1024 421 1036 q 508 991 484 1013 q 546 933 532 969 q 558 851 559 898 l 498 851 q 494 878 498 860 q 479 914 491 896 q 447 944 468 931 q 388 958 425 958 q 329 944 351 958 q 297 914 308 931 q 282 878 285 896 q 279 851 279 860 l 219 851 q 230 933 217 898 q 268 991 244 969 q 323 1024 292 1013 q 388 1036 355 1036 "},"ί":{"x_min":70,"x_max":353,"ha":351,"o":"m 298 -13 q 218 -1 252 -11 q 161 30 184 9 q 126 86 138 52 q 115 171 115 120 l 115 718 l 205 718 l 205 174 q 211 121 205 141 q 230 89 217 100 q 262 71 242 77 q 311 62 283 66 l 298 -13 m 353 1003 l 115 810 l 70 862 l 289 1074 l 353 1003 "},"Ù":{"x_min":121,"x_max":824,"ha":945,"o":"m 472 -21 q 309 8 376 -21 q 200 88 241 37 q 139 209 158 140 q 121 357 121 277 l 121 963 l 215 963 l 215 369 q 233 232 215 290 q 285 137 252 175 q 366 82 319 100 q 472 64 414 64 q 578 82 530 64 q 659 137 625 100 q 711 232 692 175 q 730 369 730 290 l 730 963 l 824 963 l 824 357 q 805 209 824 277 q 744 88 786 140 q 635 8 703 37 q 472 -21 568 -21 m 344 1291 l 564 1079 l 518 1027 l 281 1220 l 344 1291 "},"ὓ":{"x_min":111,"x_max":678,"ha":789,"o":"m 394 -15 q 259 9 313 -15 q 172 75 205 33 q 124 177 138 118 q 111 305 111 236 l 111 718 l 201 718 l 201 313 q 214 199 201 245 q 251 123 227 152 q 312 81 276 94 q 394 68 348 68 q 476 81 440 68 q 537 123 512 94 q 574 199 561 152 q 588 313 588 245 l 588 718 l 678 718 l 678 305 q 664 177 678 236 q 616 75 650 118 q 529 9 583 33 q 394 -15 475 -15 m 574 839 l 518 799 l 339 1024 l 418 1079 l 574 839 m 291 799 q 234 842 262 818 q 185 893 206 867 q 150 946 163 919 q 137 998 137 973 q 157 1056 137 1034 q 213 1078 178 1078 q 264 1057 246 1078 q 283 1008 283 1036 q 269 969 283 986 q 234 944 256 951 q 271 891 246 918 q 329 839 297 864 l 291 799 "},"Ҷ":{"x_min":94,"x_max":811,"ha":857,"o":"m 188 963 l 188 693 q 196 581 188 630 q 229 499 204 533 q 302 449 254 466 q 427 433 349 433 q 494 436 462 433 q 553 444 526 439 q 599 453 581 448 q 627 460 618 457 l 627 963 l 721 963 l 721 82 l 811 82 l 811 -257 l 721 -257 l 721 0 l 627 0 l 627 379 q 549 361 606 372 q 419 350 493 350 q 238 377 304 350 q 141 452 173 405 q 101 561 109 500 q 94 693 94 623 l 94 963 l 188 963 "},"В":{"x_min":125,"x_max":799,"ha":875,"o":"m 355 -8 q 300 -5 332 -8 q 236 0 269 -3 q 175 7 204 3 q 125 18 145 12 l 125 944 q 180 956 150 951 q 243 964 211 961 q 307 969 276 968 q 365 971 339 971 q 513 958 443 971 q 636 916 583 945 q 720 839 689 887 q 752 720 752 791 q 712 588 752 643 q 606 512 672 533 q 682 484 647 502 q 743 438 717 466 q 784 368 769 409 q 799 270 799 327 q 690 63 799 134 q 355 -8 582 -8 m 219 461 l 219 82 q 281 76 239 79 q 366 73 323 73 q 491 81 430 73 q 597 111 551 89 q 671 172 643 133 q 699 272 699 211 q 679 364 699 327 q 623 422 660 401 q 535 452 587 444 q 419 461 483 461 l 219 461 m 219 542 l 402 542 q 499 549 454 542 q 579 577 545 557 q 633 631 614 597 q 653 718 653 665 q 632 797 653 765 q 573 851 611 830 q 481 880 534 871 q 365 890 429 890 q 278 887 313 890 q 219 880 242 884 l 219 542 "},"ᾗ":{"x_min":118.625,"x_max":679,"ha":789,"o":"m 119 693 q 227 718 159 704 q 394 732 295 732 q 531 708 476 732 q 618 641 585 684 q 665 536 651 597 q 679 401 679 475 l 679 -256 l 589 -256 l 589 372 q 578 501 589 448 q 543 587 568 554 q 479 635 519 620 q 380 650 440 650 q 269 643 316 650 q 209 630 222 636 l 209 0 l 119 0 l 119 693 m 474 799 q 435 822 459 807 q 388 859 411 837 q 349 907 366 880 q 332 964 332 933 q 351 1020 332 1001 q 399 1039 370 1039 q 448 1020 432 1039 q 463 976 463 1001 q 427 917 463 939 q 454 878 434 899 q 505 839 475 858 l 474 799 m 399 1149 q 341 1137 363 1149 q 308 1109 320 1125 q 291 1077 296 1093 q 287 1052 287 1061 l 227 1052 q 239 1128 225 1096 q 277 1182 253 1161 q 334 1213 302 1203 q 399 1224 366 1224 q 464 1213 432 1224 q 521 1182 496 1203 q 559 1128 545 1161 q 572 1052 573 1096 l 512 1052 q 507 1077 512 1061 q 490 1109 502 1093 q 456 1137 478 1125 q 399 1149 434 1149 m 209 -94 q 230 -169 209 -145 q 312 -193 252 -193 l 312 -252 q 292 -256 305 -255 q 268 -258 280 -258 q 160 -216 202 -258 q 118 -99 118 -174 q 118 -88 118 -95 q 120 -76 118 -81 l 209 -76 l 209 -94 "},"β":{"x_min":119,"x_max":756,"ha":832,"o":"m 209 -257 l 119 -257 l 119 757 q 134 884 119 825 q 184 986 149 943 q 274 1053 219 1029 q 412 1078 330 1078 q 518 1062 468 1078 q 605 1014 568 1047 q 665 933 643 982 q 688 818 688 884 q 645 686 688 747 q 525 598 603 625 q 632 552 587 582 q 703 485 676 523 q 743 401 731 447 q 756 307 756 355 q 669 75 756 161 q 410 -11 583 -11 q 339 -5 373 -11 q 280 8 306 0 q 236 25 254 16 q 209 40 217 34 l 209 -257 m 209 127 q 234 111 215 121 q 278 93 252 102 q 339 77 305 83 q 410 71 373 71 q 591 131 523 71 q 660 305 660 191 q 591 483 660 417 q 368 549 522 549 l 360 549 l 360 625 l 372 625 q 533 677 472 625 q 595 819 595 730 q 549 948 595 898 q 408 999 503 999 q 314 981 352 999 q 253 931 277 964 q 219 853 229 898 q 209 754 209 808 l 209 127 "},"Ό":{"x_min":-65,"x_max":1067,"ha":1153,"o":"m 218 903 l -19 710 l -65 762 l 154 974 l 218 903 m 1067 481 q 1030 263 1067 358 q 932 106 994 169 q 789 10 871 42 q 615 -21 707 -21 q 441 10 523 -21 q 298 106 359 42 q 200 263 236 169 q 164 481 164 358 q 200 699 164 605 q 298 855 236 792 q 441 951 359 919 q 615 983 523 983 q 789 951 707 983 q 932 855 871 919 q 1030 699 994 792 q 1067 481 1067 605 m 967 481 q 941 655 967 578 q 871 786 916 732 q 760 869 825 841 q 615 898 696 898 q 470 869 534 898 q 359 786 405 841 q 289 655 314 732 q 264 481 264 578 q 289 307 264 384 q 359 176 314 230 q 470 93 405 122 q 615 64 534 64 q 760 93 696 64 q 871 176 825 122 q 941 307 916 230 q 967 481 967 384 "},"≠":{"x_min":78,"x_max":705,"ha":783,"o":"m 524 594 l 705 594 l 705 516 l 485 516 l 380 302 l 705 302 l 705 224 l 343 224 l 254 45 l 186 79 l 257 224 l 78 224 l 78 302 l 295 302 l 401 516 l 78 516 l 78 594 l 438 594 l 529 775 l 597 740 l 524 594 "},"Ғ":{"x_min":33,"x_max":664,"ha":689,"o":"m 664 963 l 664 881 l 238 881 l 238 531 l 445 531 l 445 455 l 238 455 l 238 0 l 144 0 l 144 455 l 33 455 l 33 531 l 144 531 l 144 963 l 664 963 "},"ƀ":{"x_min":8,"x_max":734,"ha":810,"o":"m 209 944 l 478 944 l 478 872 l 209 872 l 209 674 q 284 712 232 692 q 408 733 337 733 q 546 705 486 733 q 649 627 607 677 q 712 508 690 577 q 734 358 734 439 q 708 201 734 270 q 635 83 682 131 q 524 8 589 34 q 380 -17 459 -17 q 221 -4 284 -17 q 119 21 159 8 l 119 872 l 8 872 l 8 944 l 119 944 l 119 1061 l 209 1078 l 209 944 m 209 84 q 270 71 229 77 q 378 65 312 65 q 566 140 495 65 q 638 358 638 216 q 625 471 638 417 q 585 564 612 524 q 511 627 557 603 q 399 651 466 651 q 338 644 367 651 q 284 628 309 638 q 240 607 259 619 q 209 587 221 596 l 209 84 "},"Ĥ":{"x_min":125,"x_max":836,"ha":961,"o":"m 742 963 l 836 963 l 836 0 l 742 0 l 742 463 l 219 463 l 219 0 l 125 0 l 125 963 l 219 963 l 219 545 l 742 545 l 742 963 m 335 1028 l 297 1071 l 480 1275 l 664 1071 l 625 1028 l 480 1161 l 335 1028 "},"U":{"x_min":121,"x_max":824,"ha":945,"o":"m 472 -21 q 309 8 376 -21 q 200 88 241 37 q 139 209 158 140 q 121 357 121 277 l 121 963 l 215 963 l 215 369 q 233 232 215 290 q 285 137 252 175 q 366 82 319 100 q 472 64 414 64 q 578 82 530 64 q 659 137 625 100 q 711 232 692 175 q 730 369 730 290 l 730 963 l 824 963 l 824 357 q 805 209 824 277 q 744 88 786 140 q 635 8 703 37 q 472 -21 568 -21 "},"ᾞ":{"x_min":-50.125,"x_max":1522,"ha":1563,"o":"m 986 963 l 1080 963 l 1080 0 l 986 0 l 986 463 l 463 463 l 463 0 l 369 0 l 369 963 l 463 963 l 463 545 l 986 545 l 986 963 m 17 689 q 67 728 46 708 q 94 767 87 749 q 58 826 58 789 q 73 870 58 851 q 122 889 89 889 q 170 870 151 889 q 189 814 189 851 q 172 757 189 783 q 133 709 156 730 q 85 672 110 687 q 47 649 61 657 l 17 689 m 122 999 q 64 987 86 999 q 31 959 43 975 q 14 927 19 943 q 10 902 10 911 l -50 902 q -37 978 -51 946 q 0 1032 -23 1011 q 57 1063 25 1053 q 122 1074 89 1074 q 187 1063 155 1074 q 244 1032 219 1053 q 282 978 268 1011 q 295 902 296 946 l 235 902 q 230 927 235 911 q 213 959 225 943 q 179 987 201 975 q 122 999 157 999 m 1509 -13 q 1429 -1 1463 -11 q 1372 30 1395 9 q 1337 86 1349 52 q 1326 171 1326 120 l 1326 718 l 1416 718 l 1416 174 q 1422 121 1416 141 q 1441 89 1428 100 q 1473 71 1453 77 q 1522 62 1494 66 l 1509 -13 "},"∕":{"x_min":-218,"x_max":423,"ha":206,"o":"m 331 963 l 423 963 l -126 0 l -218 0 l 331 963 "},"Ᾰ":{"x_min":14,"x_max":876,"ha":890,"o":"m 771 0 q 721 136 745 70 q 675 264 698 201 l 208 264 q 161 136 184 201 q 112 0 137 70 l 14 0 q 118 279 69 149 q 212 525 166 410 q 305 748 259 641 q 401 963 351 855 l 486 963 q 583 748 536 855 q 675 525 629 641 q 770 279 722 409 q 876 0 819 150 l 771 0 m 441 855 q 340 611 388 734 q 238 345 291 487 l 647 345 q 543 611 594 487 q 441 855 493 734 m 445 1068 q 380 1079 412 1068 q 325 1112 349 1090 q 287 1169 301 1134 q 276 1253 274 1204 l 336 1253 q 339 1225 336 1243 q 354 1189 342 1207 q 386 1159 365 1172 q 445 1146 408 1146 q 504 1159 482 1146 q 536 1189 525 1172 q 551 1225 548 1207 q 555 1253 555 1243 l 615 1253 q 603 1169 616 1204 q 565 1112 589 1134 q 510 1079 541 1090 q 445 1068 478 1068 "},"Ϋ":{"x_min":14,"x_max":776,"ha":790,"o":"m 349 0 l 349 396 q 167 688 250 547 q 14 963 84 829 l 124 963 q 252 714 182 840 q 398 475 322 589 q 542 714 471 589 q 673 963 613 840 l 776 963 q 620 688 702 831 q 443 399 538 546 l 443 0 l 349 0 m 359 1151 q 340 1103 359 1121 q 295 1085 322 1085 q 249 1103 267 1085 q 231 1151 231 1121 q 249 1199 231 1181 q 295 1218 267 1218 q 340 1199 322 1218 q 359 1151 359 1181 m 598 1151 q 579 1103 598 1121 q 534 1085 561 1085 q 488 1103 506 1085 q 470 1151 470 1121 q 488 1199 470 1181 q 534 1218 506 1218 q 579 1199 561 1218 q 598 1151 598 1181 "},"ɋ":{"x_min":76,"x_max":847.625,"ha":810,"o":"m 601 41 q 525 3 577 23 q 401 -17 472 -17 q 263 10 323 -17 q 160 87 202 38 q 97 206 119 137 q 76 356 76 274 q 101 513 76 444 q 174 631 127 583 q 285 706 220 680 q 429 732 350 732 q 588 719 525 732 q 691 693 650 707 l 691 -50 q 711 -148 691 -117 q 785 -180 732 -180 q 835 -173 818 -180 l 847 -246 q 817 -254 836 -251 q 774 -258 797 -258 q 681 -241 715 -258 q 630 -194 648 -224 q 606 -124 612 -165 q 601 -36 601 -83 l 601 41 m 601 630 q 539 643 580 637 q 431 650 497 650 q 243 574 314 650 q 172 356 172 498 q 184 243 172 297 q 224 150 197 190 q 298 87 252 110 q 410 65 343 65 q 471 71 442 65 q 525 87 500 77 q 569 108 550 96 q 601 128 588 119 l 601 630 "},"ō":{"x_min":76,"x_max":732,"ha":808,"o":"m 732 358 q 707 204 732 273 q 639 85 683 134 q 536 10 595 37 q 404 -17 476 -17 q 271 10 331 -17 q 168 85 212 37 q 100 204 124 134 q 76 358 76 273 q 100 512 76 443 q 168 631 124 582 q 271 707 212 680 q 404 735 331 735 q 536 707 476 735 q 639 631 595 680 q 707 512 683 582 q 732 358 732 443 m 636 358 q 573 573 636 493 q 404 653 510 653 q 234 573 297 653 q 172 358 172 493 q 234 144 172 223 q 404 65 297 65 q 573 144 510 65 q 636 358 636 223 m 220 902 l 220 978 l 588 978 l 588 902 l 220 902 "},"Ӕ":{"x_min":8,"x_max":1217,"ha":1271,"o":"m 644 0 l 644 264 l 244 264 q 174 131 209 197 q 105 0 139 66 l 8 0 q 157 279 83 148 q 304 527 230 410 q 452 752 378 644 q 599 963 526 860 l 1181 963 l 1181 881 l 738 881 l 738 547 l 1131 547 l 1131 466 l 738 466 l 738 82 l 1217 82 l 1217 0 l 644 0 m 644 885 q 460 622 547 756 q 291 345 372 487 l 644 345 l 644 885 "},"ö":{"x_min":76,"x_max":732,"ha":808,"o":"m 732 358 q 707 204 732 273 q 639 85 683 134 q 536 10 595 37 q 404 -17 476 -17 q 271 10 331 -17 q 168 85 212 37 q 100 204 124 134 q 76 358 76 273 q 100 512 76 443 q 168 631 124 582 q 271 707 212 680 q 404 735 331 735 q 536 707 476 735 q 639 631 595 680 q 707 512 683 582 q 732 358 732 443 m 636 358 q 573 573 636 493 q 404 653 510 653 q 234 573 297 653 q 172 358 172 493 q 234 144 172 223 q 404 65 297 65 q 573 144 510 65 q 636 358 636 223 m 348 934 q 329 886 348 904 q 284 868 311 868 q 238 886 256 868 q 220 934 220 904 q 238 982 220 964 q 284 1001 256 1001 q 329 982 311 1001 q 348 934 348 964 m 587 934 q 568 886 587 904 q 523 868 550 868 q 477 886 495 868 q 459 934 459 904 q 477 982 459 964 q 523 1001 495 1001 q 568 982 550 1001 q 587 934 587 964 "},"Ȧ":{"x_min":14,"x_max":876,"ha":890,"o":"m 771 0 q 721 136 745 70 q 675 264 698 201 l 208 264 q 161 136 184 201 q 112 0 137 70 l 14 0 q 118 279 69 149 q 212 525 166 410 q 305 748 259 641 q 401 963 351 855 l 486 963 q 583 748 536 855 q 675 525 629 641 q 770 279 722 409 q 876 0 819 150 l 771 0 m 441 855 q 340 611 388 734 q 238 345 291 487 l 647 345 q 543 611 594 487 q 441 855 493 734 m 445 1082 q 398 1100 417 1082 q 379 1151 379 1119 q 398 1202 379 1183 q 445 1221 417 1221 q 492 1202 473 1221 q 512 1151 512 1183 q 492 1100 512 1119 q 445 1082 473 1082 "},"А":{"x_min":14,"x_max":876,"ha":890,"o":"m 771 0 q 721 136 745 70 q 675 264 698 201 l 208 264 q 161 136 184 201 q 112 0 137 70 l 14 0 q 118 279 69 149 q 212 525 166 410 q 305 748 259 641 q 401 963 351 855 l 486 963 q 583 748 536 855 q 675 525 629 641 q 770 279 722 409 q 876 0 819 150 l 771 0 m 441 855 q 340 611 388 734 q 238 345 291 487 l 647 345 q 543 611 594 487 q 441 855 493 734 "},"ĭ":{"x_min":-6.125,"x_max":333.125,"ha":328,"o":"m 209 0 l 119 0 l 119 718 l 209 718 l 209 0 m 163 851 q 98 862 130 851 q 43 895 67 873 q 5 952 19 917 q -6 1036 -7 987 l 54 1036 q 57 1008 54 1026 q 72 972 60 990 q 104 942 83 955 q 163 929 126 929 q 222 942 200 929 q 254 972 243 955 q 269 1008 266 990 q 273 1036 273 1026 l 333 1036 q 321 952 334 987 q 283 895 307 917 q 228 862 259 873 q 163 851 196 851 "},"8":{"x_min":92,"x_max":691,"ha":783,"o":"m 391 -21 q 268 -1 323 -21 q 174 53 214 17 q 113 136 134 88 q 92 241 92 184 q 105 329 92 290 q 142 400 119 369 q 195 456 165 432 q 258 498 225 480 q 143 596 174 540 q 113 720 113 653 q 133 828 113 780 q 191 911 154 877 q 279 964 228 945 q 391 983 330 983 q 516 961 463 983 q 603 905 569 939 q 653 825 637 870 q 669 733 669 781 q 655 649 669 687 q 618 580 641 611 q 568 525 596 548 q 514 484 541 501 q 651 381 612 444 q 691 249 691 319 q 669 140 691 190 q 609 54 648 90 q 514 0 570 19 q 391 -21 459 -21 m 595 241 q 572 338 595 301 q 512 399 549 376 q 429 436 475 422 q 336 467 383 450 q 226 377 265 433 q 188 241 188 321 q 200 169 188 202 q 238 111 212 136 q 302 71 264 86 q 391 57 340 57 q 480 71 442 57 q 544 111 518 86 q 582 169 570 136 q 595 241 595 202 m 207 730 q 216 659 207 691 q 250 602 225 628 q 319 555 275 576 q 436 513 363 533 q 537 602 499 549 q 575 734 575 655 q 564 796 575 766 q 532 851 554 827 q 476 890 511 875 q 391 905 441 905 q 311 891 345 905 q 253 853 276 877 q 218 797 230 828 q 207 730 207 765 "},"ƿ":{"x_min":119,"x_max":710,"ha":786,"o":"m 380 732 q 625 647 540 732 q 710 411 710 563 q 668 222 710 301 q 556 88 626 144 q 395 -5 485 33 q 209 -71 305 -43 l 209 -257 l 119 -257 l 119 675 q 226 713 159 694 q 380 732 294 732 m 378 650 q 272 638 316 650 q 209 618 228 626 l 209 15 q 342 62 271 34 q 474 135 413 90 q 574 247 534 180 q 614 413 614 315 q 552 588 614 526 q 378 650 490 650 "},"R":{"x_min":125,"x_max":825,"ha":858,"o":"m 767 673 q 709 502 767 565 q 559 412 652 440 q 617 337 581 384 q 690 234 652 290 q 763 116 727 177 q 825 0 800 55 l 724 0 q 660 111 694 55 q 591 218 626 166 q 522 315 555 270 q 464 393 489 359 q 375 389 419 389 l 219 389 l 219 0 l 125 0 l 125 944 q 242 964 175 958 q 366 971 309 971 q 666 895 565 971 q 767 673 767 820 m 377 889 q 285 885 324 889 q 219 879 245 882 l 219 470 l 349 470 q 473 476 415 470 q 574 503 531 482 q 642 565 617 525 q 668 675 668 605 q 642 780 668 739 q 577 846 617 822 q 485 879 537 870 q 377 889 433 889 "},"Ὗ":{"x_min":-50.125,"x_max":1119,"ha":1133,"o":"m 692 0 l 692 396 q 510 688 593 547 q 357 963 427 829 l 467 963 q 595 714 525 840 q 741 475 665 589 q 885 714 814 589 q 1016 963 956 840 l 1119 963 q 963 688 1045 831 q 786 399 881 546 l 786 0 l 692 0 m 197 649 q 158 672 182 657 q 111 709 134 687 q 72 757 89 730 q 55 814 55 783 q 74 870 55 851 q 122 889 93 889 q 171 870 155 889 q 186 826 186 851 q 150 767 186 789 q 177 728 157 749 q 228 689 198 708 l 197 649 m 122 999 q 64 987 86 999 q 31 959 43 975 q 14 927 19 943 q 10 902 10 911 l -50 902 q -37 978 -51 946 q 0 1032 -23 1011 q 57 1063 25 1053 q 122 1074 89 1074 q 187 1063 155 1074 q 244 1032 219 1053 q 282 978 268 1011 q 295 902 296 946 l 235 902 q 230 927 235 911 q 213 959 225 943 q 179 987 201 975 q 122 999 157 999 "},"Ż":{"x_min":53,"x_max":722,"ha":778,"o":"m 708 876 q 631 782 674 837 q 537 660 587 726 q 435 520 487 594 q 333 370 383 446 q 237 220 282 294 q 156 82 192 147 l 722 82 l 722 0 l 53 0 l 53 70 q 125 202 83 130 q 216 349 168 273 q 318 501 265 425 q 422 648 370 578 q 519 778 473 718 q 605 881 566 837 l 79 881 l 79 963 l 708 963 l 708 876 m 398 1082 q 351 1100 370 1082 q 332 1151 332 1119 q 351 1202 332 1183 q 398 1221 370 1221 q 445 1202 426 1221 q 465 1151 465 1183 q 445 1100 465 1119 q 398 1082 426 1082 "},"⅙":{"x_min":85.5,"x_max":1147,"ha":1203,"o":"m 103 803 l 85 861 q 182 903 134 876 q 265 971 231 930 l 317 971 l 317 440 l 242 440 l 242 862 q 206 841 226 851 q 167 823 186 832 q 130 809 147 815 q 103 803 113 804 m 830 963 l 922 963 l 372 0 l 281 0 l 830 963 m 853 305 q 910 323 882 319 q 956 328 937 328 q 1046 314 1009 328 q 1105 278 1083 301 q 1137 226 1127 255 q 1147 165 1147 197 q 1135 103 1147 134 q 1102 46 1124 72 q 1044 4 1080 20 q 962 -11 1009 -11 q 815 50 862 -11 q 768 215 768 111 q 857 450 768 370 q 1100 536 946 530 l 1109 471 q 936 425 1004 468 q 853 305 867 382 m 845 245 q 844 232 844 238 q 844 220 844 226 q 849 154 844 184 q 868 100 855 123 q 903 65 881 77 q 960 53 925 53 q 1009 62 989 53 q 1043 87 1030 72 q 1062 122 1056 102 q 1069 161 1069 141 q 1041 240 1069 216 q 957 265 1014 265 q 896 260 927 265 q 845 245 866 255 "},"ħ":{"x_min":8,"x_max":679,"ha":790,"o":"m 119 0 l 119 872 l 8 872 l 8 944 l 119 944 l 119 1061 l 209 1078 l 209 944 l 469 944 l 469 872 l 209 872 l 209 697 q 299 722 253 713 q 391 732 345 732 q 530 708 474 732 q 619 641 585 684 q 665 536 652 597 q 679 401 679 475 l 679 0 l 589 0 l 589 372 q 578 501 589 448 q 543 587 568 554 q 479 635 519 620 q 377 650 438 650 q 326 645 353 650 q 275 636 299 641 q 233 626 252 631 q 209 618 214 620 l 209 0 l 119 0 "},"ἵ":{"x_min":-63,"x_max":397,"ha":351,"o":"m 298 -13 q 218 -1 252 -11 q 161 30 184 9 q 126 86 138 52 q 115 171 115 120 l 115 718 l 205 718 l 205 174 q 211 121 205 141 q 230 89 217 100 q 262 71 242 77 q 311 62 283 66 l 298 -13 m 317 1079 l 397 1024 l 217 799 l 162 839 l 317 1079 m 91 799 q 34 842 62 818 q -14 893 6 867 q -49 946 -36 919 q -63 998 -63 973 q -42 1056 -63 1034 q 13 1078 -21 1078 q 64 1057 46 1078 q 83 1008 83 1036 q 69 969 83 986 q 34 944 56 951 q 72 891 47 918 q 129 839 97 864 l 91 799 "},"Ⱦ":{"x_min":25,"x_max":859.1875,"ha":804,"o":"m 730 963 l 792 1051 l 859 1006 l 426 400 l 426 0 l 333 0 l 333 270 l 103 -51 l 38 -6 l 333 406 l 333 881 l 25 881 l 25 963 l 730 963 m 426 537 l 672 881 l 426 881 l 426 537 "},"˙":{"x_min":194,"x_max":327,"ha":522,"o":"m 260 865 q 213 883 232 865 q 194 934 194 902 q 213 985 194 966 q 260 1004 232 1004 q 307 985 288 1004 q 327 934 327 966 q 307 883 327 902 q 260 865 288 865 "},"":{"x_min":63,"x_max":416,"ha":499,"o":"m 203 -105 q 310 -77 282 -105 q 338 -10 338 -50 q 324 37 338 18 q 288 69 310 57 q 236 87 266 82 q 176 92 206 92 l 158 92 l 158 155 l 178 155 q 227 158 203 155 q 269 172 251 161 q 298 199 287 182 q 310 243 310 215 q 284 300 310 283 q 215 317 258 317 q 140 303 171 317 q 91 278 109 290 l 64 336 q 119 365 79 348 q 218 382 159 382 q 346 345 308 382 q 385 250 385 308 q 300 129 385 164 q 384 79 352 114 q 416 -13 416 44 q 404 -74 416 -45 q 367 -124 392 -102 q 302 -159 342 -146 q 207 -172 263 -172 q 119 -162 154 -172 q 63 -142 85 -153 l 81 -77 q 130 -95 100 -86 q 203 -105 160 -105 "},"„":{"x_min":56,"x_max":442,"ha":544,"o":"m 217 132 l 217 118 q 193 -32 217 38 q 123 -175 170 -104 l 56 -144 q 103 -22 90 -77 q 117 81 117 33 q 117 108 117 97 q 115 132 117 119 l 217 132 m 442 132 l 442 118 q 418 -32 442 38 q 348 -175 395 -104 l 281 -144 q 328 -22 315 -77 q 342 81 342 33 q 342 108 342 97 q 340 132 342 119 l 442 132 "},"ӷ":{"x_min":119,"x_max":531,"ha":552,"o":"m 119 0 l 119 718 l 531 718 l 531 642 l 209 642 l 209 76 l 290 76 l 290 -199 l 202 -199 l 202 0 l 119 0 "},"":{"x_min":92,"x_max":4890,"ha":4877,"o":"m 675 21 q 557 -2 630 9 q 389 -15 484 -15 q 248 9 305 -15 q 157 77 191 33 q 107 182 122 122 q 92 316 92 243 l 92 722 l 221 722 l 221 344 q 262 155 221 212 q 402 99 304 99 q 446 100 423 99 q 488 103 468 101 q 523 108 508 105 q 546 112 539 110 l 546 722 l 675 722 l 675 21 m 982 690 q 1053 722 1005 705 q 1163 739 1101 739 q 1302 711 1241 739 q 1404 633 1362 683 q 1467 513 1445 583 q 1489 361 1489 444 q 1463 203 1489 273 q 1390 84 1437 133 q 1276 9 1343 35 q 1126 -17 1209 -17 q 966 -4 1034 -17 q 853 20 897 8 l 853 1055 l 982 1078 l 982 690 m 982 112 q 1036 101 1001 106 q 1124 97 1072 97 q 1291 165 1229 97 q 1354 361 1354 234 q 1342 465 1354 416 q 1306 549 1331 513 q 1242 604 1281 584 q 1147 625 1202 625 q 1050 606 1094 625 q 982 569 1005 588 l 982 112 m 2190 21 q 2072 -2 2145 9 q 1904 -15 1999 -15 q 1763 9 1820 -15 q 1672 77 1706 33 q 1622 182 1637 122 q 1607 316 1607 243 l 1607 722 l 1736 722 l 1736 344 q 1777 155 1736 212 q 1917 99 1819 99 q 1961 100 1938 99 q 2003 103 1983 101 q 2038 108 2023 105 q 2061 112 2054 110 l 2061 722 l 2190 722 l 2190 21 m 2360 701 q 2477 725 2404 712 q 2647 738 2551 738 q 2790 713 2733 738 q 2881 645 2847 689 q 2929 540 2915 601 q 2943 405 2943 479 l 2943 0 l 2814 0 l 2814 378 q 2804 491 2814 444 q 2775 568 2795 539 q 2719 610 2754 597 q 2633 624 2684 624 q 2590 622 2612 624 q 2548 618 2568 621 q 2511 613 2527 616 q 2489 609 2495 610 l 2489 0 l 2360 0 l 2360 701 m 3233 722 l 3507 722 l 3507 614 l 3233 614 l 3233 280 q 3241 191 3233 226 q 3266 135 3249 155 q 3308 107 3283 115 q 3366 99 3333 99 q 3460 112 3424 99 q 3509 130 3495 125 l 3534 23 q 3466 0 3514 14 q 3355 -15 3417 -15 q 3233 3 3281 -15 q 3156 59 3185 22 q 3115 152 3127 97 q 3104 279 3104 207 l 3104 923 l 3233 946 l 3233 722 m 4194 21 q 4076 -2 4149 9 q 3908 -15 4003 -15 q 3767 9 3824 -15 q 3676 77 3710 33 q 3626 182 3641 122 q 3611 316 3611 243 l 3611 722 l 3740 722 l 3740 344 q 3781 155 3740 212 q 3921 99 3823 99 q 3965 100 3942 99 q 4007 103 3987 101 q 4042 108 4027 105 q 4065 112 4058 110 l 4065 722 l 4194 722 l 4194 21 m 4890 777 q 4866 661 4890 715 q 4802 566 4842 606 q 4707 502 4762 526 q 4589 479 4652 479 q 4473 502 4527 479 q 4378 566 4418 526 q 4314 661 4338 606 q 4291 777 4291 715 q 4314 895 4291 840 q 4378 990 4338 950 q 4473 1054 4418 1030 q 4589 1078 4527 1078 q 4707 1054 4652 1078 q 4802 990 4762 1030 q 4866 895 4842 950 q 4890 777 4890 840 m 4386 818 q 4359 806 4371 818 q 4346 777 4346 794 q 4359 750 4346 762 q 4386 738 4371 738 q 4415 750 4403 738 q 4427 777 4427 762 q 4415 806 4427 794 q 4386 818 4403 818 m 4652 599 q 4664 571 4652 581 q 4691 561 4677 561 q 4720 574 4709 561 q 4731 602 4731 587 q 4719 631 4731 622 q 4692 641 4706 641 q 4662 628 4673 641 q 4652 599 4652 615 m 4473 777 q 4486 833 4473 808 q 4524 873 4500 858 l 4493 923 q 4448 878 4467 904 q 4421 820 4429 852 q 4443 777 4443 806 q 4421 734 4443 750 q 4448 677 4429 702 q 4493 633 4467 652 l 4524 683 q 4486 723 4500 698 q 4473 777 4473 748 m 4589 895 q 4669 864 4637 895 q 4706 788 4702 833 l 4763 788 q 4710 901 4759 855 q 4692 898 4699 898 q 4656 911 4673 898 q 4637 945 4639 925 q 4589 951 4616 951 q 4513 933 4548 951 l 4541 884 q 4589 895 4563 895 m 4589 661 q 4541 672 4563 661 l 4513 623 q 4589 605 4548 605 q 4637 611 4616 605 q 4656 645 4639 631 q 4692 658 4673 658 q 4710 655 4699 658 q 4763 768 4759 701 l 4706 768 q 4669 692 4702 723 q 4589 661 4637 661 m 4692 914 q 4719 924 4706 914 q 4731 954 4731 934 q 4721 982 4731 969 q 4691 994 4710 994 q 4663 984 4676 994 q 4651 955 4651 973 q 4664 926 4651 939 q 4692 914 4677 914 "},"δ":{"x_min":76,"x_max":732,"ha":808,"o":"m 422 652 q 322 608 367 636 q 242 541 276 581 q 190 451 209 501 q 172 343 172 401 q 184 240 172 290 q 225 151 197 190 q 297 88 253 112 q 404 64 341 64 q 504 85 460 64 q 576 144 547 107 q 620 230 605 182 q 636 333 636 279 q 612 465 636 411 q 555 554 588 518 q 485 613 522 590 q 422 652 448 635 m 342 700 q 238 788 270 746 q 207 892 207 829 q 227 973 207 939 q 281 1031 247 1008 q 361 1066 315 1054 q 457 1078 407 1078 q 530 1071 496 1078 q 592 1057 565 1065 q 637 1041 619 1048 q 660 1030 654 1033 l 635 952 q 574 981 619 962 q 462 1000 529 1000 q 342 973 385 1000 q 299 896 299 947 q 305 856 299 873 q 328 821 311 839 q 375 782 344 804 q 455 729 405 760 q 546 672 497 703 q 636 597 594 642 q 704 486 677 551 q 732 325 732 421 q 715 211 732 271 q 659 100 698 151 q 557 15 620 48 q 402 -18 494 -18 q 254 12 316 -18 q 153 93 192 43 q 94 210 113 144 q 76 346 76 276 q 96 468 76 411 q 153 570 117 525 q 238 649 189 615 q 342 700 287 682 "},"Â":{"x_min":14,"x_max":876,"ha":890,"o":"m 771 0 q 721 136 745 70 q 675 264 698 201 l 208 264 q 161 136 184 201 q 112 0 137 70 l 14 0 q 118 279 69 149 q 212 525 166 410 q 305 748 259 641 q 401 963 351 855 l 486 963 q 583 748 536 855 q 675 525 629 641 q 770 279 722 409 q 876 0 819 150 l 771 0 m 441 855 q 340 611 388 734 q 238 345 291 487 l 647 345 q 543 611 594 487 q 441 855 493 734 m 300 1028 l 262 1071 l 445 1275 l 629 1071 l 590 1028 l 445 1161 l 300 1028 "},"Į":{"x_min":21,"x_max":232,"ha":344,"o":"m 219 0 q 190 -23 205 -11 q 160 -52 176 -36 q 126 -96 138 -76 q 114 -139 114 -116 q 130 -175 114 -164 q 172 -187 147 -187 q 199 -184 184 -187 q 225 -178 213 -182 l 232 -245 q 199 -253 220 -249 q 157 -258 177 -258 q 51 -230 82 -258 q 21 -160 21 -203 q 43 -84 21 -117 q 95 -23 65 -51 q 110 -11 102 -16 q 125 0 118 -5 l 125 963 l 219 963 l 219 0 "},"ω":{"x_min":86,"x_max":1072,"ha":1158,"o":"m 624 583 l 624 376 q 627 282 624 334 q 647 183 630 230 q 698 103 664 135 q 793 72 732 72 q 930 138 883 72 q 978 347 978 204 q 962 477 978 417 q 925 582 946 537 q 884 656 904 627 q 858 697 865 686 l 940 732 q 971 685 949 719 q 1016 601 994 651 q 1055 485 1038 551 q 1072 344 1072 420 q 1051 178 1072 246 q 993 68 1030 110 q 906 6 956 25 q 794 -13 855 -13 q 667 18 722 -13 q 578 128 611 49 q 490 18 545 49 q 363 -13 435 -13 q 251 6 302 -13 q 164 68 201 25 q 106 178 127 110 q 86 344 86 246 q 102 485 86 420 q 141 601 119 551 q 186 685 163 651 q 217 732 208 719 l 299 697 q 273 656 292 686 q 232 582 253 627 q 195 477 211 537 q 180 347 180 417 q 227 138 180 204 q 364 72 274 72 q 459 103 425 72 q 510 183 493 135 q 530 282 527 230 q 534 376 534 334 l 534 583 l 624 583 "},"´":{"x_min":156,"x_max":439,"ha":522,"o":"m 439 1003 l 201 810 l 156 862 l 375 1074 l 439 1003 "},"ǥ":{"x_min":76,"x_max":791,"ha":815,"o":"m 587 82 q 562 66 579 76 q 521 48 545 57 q 465 32 497 38 q 395 26 434 26 q 274 45 333 26 q 172 106 216 64 q 102 214 128 148 q 76 374 76 280 q 99 516 76 451 q 166 629 123 581 q 273 704 210 677 q 416 732 337 732 q 576 718 516 732 q 676 693 637 705 l 676 417 l 791 417 l 791 343 l 676 343 l 676 37 q 592 -192 676 -123 q 341 -261 509 -261 q 215 -250 271 -261 q 119 -226 159 -240 l 137 -144 q 228 -170 170 -159 q 344 -182 285 -182 q 529 -132 472 -182 q 587 35 587 -83 l 587 82 m 586 343 l 415 343 l 415 417 l 586 417 l 586 630 q 524 643 562 637 q 417 650 487 650 q 314 629 359 650 q 237 572 269 609 q 188 485 205 536 q 172 373 172 434 q 191 251 172 302 q 242 169 210 201 q 313 122 273 137 q 395 108 354 108 q 507 126 456 108 q 586 167 558 144 l 586 343 "},"Ɛ":{"x_min":76,"x_max":727,"ha":767,"o":"m 438 901 q 273 854 329 901 q 218 736 218 807 q 242 646 218 682 q 305 589 266 610 q 390 559 343 568 q 483 550 437 550 l 566 550 l 566 469 l 501 469 q 373 460 433 469 q 270 428 313 451 q 201 365 226 405 q 176 261 176 325 q 196 168 176 206 q 252 106 216 130 q 338 71 288 81 q 448 61 388 61 q 533 67 494 61 q 603 85 572 74 q 658 106 635 95 q 696 124 682 116 l 727 42 q 688 24 713 34 q 627 3 663 13 q 546 -14 592 -7 q 450 -21 501 -21 q 299 -5 368 -21 q 181 43 230 9 q 103 130 131 77 q 76 262 76 184 q 95 366 76 321 q 147 443 115 411 q 222 493 179 474 q 311 521 265 513 q 227 552 264 531 q 167 603 191 574 q 131 667 144 632 q 119 739 119 702 q 142 848 119 802 q 207 923 166 894 q 308 968 249 953 q 437 983 366 983 q 590 962 520 983 q 696 918 659 942 l 662 839 q 564 884 622 867 q 438 901 505 901 "},"Ƈ":{"x_min":86,"x_max":971,"ha":882,"o":"m 548 898 q 390 867 458 898 q 277 781 323 836 q 208 649 231 725 q 186 480 186 573 q 208 307 186 384 q 276 176 231 230 q 385 93 320 122 q 533 64 449 64 q 686 81 625 64 q 780 116 748 98 l 807 35 q 773 19 797 29 q 713 1 750 10 q 630 -14 677 -8 q 524 -21 583 -21 q 352 12 431 -21 q 213 109 272 45 q 120 267 154 173 q 86 481 86 360 q 122 696 86 602 q 220 853 159 789 q 362 950 281 917 q 530 983 443 983 q 640 971 593 983 q 715 948 687 960 q 775 1053 733 1018 q 894 1088 818 1088 q 937 1084 916 1088 q 971 1075 958 1081 l 955 1009 q 931 1015 947 1012 q 895 1019 915 1019 q 849 1009 868 1019 q 819 985 830 1000 q 801 951 808 970 q 789 914 794 932 l 769 845 q 739 858 761 849 q 688 876 718 867 q 622 891 658 885 q 548 898 586 898 "},"Ĉ":{"x_min":86,"x_max":807,"ha":846,"o":"m 524 -21 q 352 12 431 -21 q 213 109 272 45 q 120 267 154 173 q 86 481 86 360 q 122 696 86 602 q 220 853 159 789 q 362 950 281 917 q 530 983 443 983 q 629 976 584 983 q 706 958 673 969 q 763 937 740 948 q 800 919 787 927 l 769 836 q 681 877 734 857 q 548 898 627 898 q 390 867 458 898 q 277 781 323 836 q 208 649 231 725 q 186 480 186 573 q 208 307 186 384 q 276 176 231 230 q 385 93 320 122 q 533 64 449 64 q 686 81 625 64 q 780 116 748 98 l 807 35 q 773 19 797 29 q 713 1 750 10 q 630 -14 677 -8 q 524 -21 583 -21 m 357 1028 l 319 1071 l 502 1275 l 686 1071 l 647 1028 l 502 1161 l 357 1028 "},"Љ":{"x_min":19,"x_max":1365,"ha":1415,"o":"m 964 521 q 880 518 918 521 q 819 512 842 515 l 819 83 q 881 77 845 80 q 966 74 917 74 q 1080 83 1025 74 q 1176 118 1135 93 q 1241 187 1217 143 q 1266 298 1266 230 q 1242 407 1266 364 q 1178 475 1218 450 q 1083 510 1138 500 q 964 521 1028 521 m 819 594 q 848 597 830 596 q 885 600 866 598 q 924 602 905 601 q 959 603 944 603 q 1263 526 1162 603 q 1365 298 1365 450 q 1267 72 1365 153 q 962 -8 1169 -8 q 841 -1 908 -8 q 725 18 774 4 l 725 881 l 411 881 l 411 853 q 400 558 411 700 q 351 287 390 416 q 306 175 333 227 q 240 82 278 122 q 148 16 201 41 q 28 -11 96 -8 l 19 70 q 103 92 66 75 q 168 139 139 110 q 218 209 197 168 q 258 304 240 250 q 306 558 294 417 q 318 876 318 700 l 318 963 l 819 963 l 819 594 "},"":{"x_min":46,"x_max":452,"ha":499,"o":"m 452 34 l 452 -27 l 381 -27 l 381 -161 l 307 -161 l 307 -27 l 46 -27 l 46 18 q 88 92 59 46 q 153 189 116 138 q 232 289 190 240 q 315 370 275 338 l 381 370 l 381 34 l 452 34 m 307 34 l 307 281 q 257 225 283 257 q 206 160 230 194 q 160 92 182 126 q 125 34 139 58 l 307 34 "},"р":{"x_min":119,"x_max":734,"ha":810,"o":"m 209 128 q 240 108 221 119 q 284 87 259 96 q 338 71 309 77 q 399 65 367 65 q 511 87 466 65 q 585 150 557 110 q 625 243 612 190 q 638 356 638 297 q 566 574 638 498 q 378 650 495 650 q 270 643 312 650 q 209 630 229 637 l 209 128 m 209 -257 l 119 -257 l 119 693 q 221 719 159 707 q 380 732 284 732 q 524 706 459 732 q 635 631 589 680 q 708 513 682 583 q 734 356 734 444 q 712 206 734 274 q 649 87 690 137 q 546 10 607 38 q 408 -17 486 -17 q 284 3 337 -17 q 209 41 232 23 l 209 -257 "},"т":{"x_min":21,"x_max":582,"ha":603,"o":"m 582 718 l 582 642 l 346 642 l 346 0 l 256 0 l 256 642 l 21 642 l 21 718 l 582 718 "},"П":{"x_min":125,"x_max":826,"ha":951,"o":"m 826 963 l 826 0 l 732 0 l 732 881 l 219 881 l 219 0 l 125 0 l 125 963 l 826 963 "},"Ö":{"x_min":86,"x_max":989,"ha":1075,"o":"m 989 481 q 952 263 989 358 q 854 106 916 169 q 711 10 793 42 q 537 -21 629 -21 q 363 10 445 -21 q 220 106 281 42 q 122 263 158 169 q 86 481 86 358 q 122 699 86 605 q 220 855 158 792 q 363 951 281 919 q 537 983 445 983 q 711 951 629 983 q 854 855 793 919 q 952 699 916 792 q 989 481 989 605 m 889 481 q 863 655 889 578 q 793 786 838 732 q 682 869 747 841 q 537 898 618 898 q 392 869 456 898 q 281 786 327 841 q 211 655 236 732 q 186 481 186 578 q 211 307 186 384 q 281 176 236 230 q 392 93 327 122 q 537 64 456 64 q 682 93 618 64 q 793 176 747 122 q 863 307 838 230 q 889 481 889 384 m 482 1151 q 463 1103 482 1121 q 418 1085 445 1085 q 372 1103 390 1085 q 354 1151 354 1121 q 372 1199 354 1181 q 418 1218 390 1218 q 463 1199 445 1218 q 482 1151 482 1181 m 721 1151 q 702 1103 721 1121 q 657 1085 684 1085 q 611 1103 629 1085 q 593 1151 593 1121 q 611 1199 593 1181 q 657 1218 629 1218 q 702 1199 684 1218 q 721 1151 721 1181 "},"Θ":{"x_min":86,"x_max":989,"ha":1075,"o":"m 310 525 l 765 525 l 765 444 l 310 444 l 310 525 m 989 481 q 952 263 989 358 q 854 106 916 169 q 711 10 793 42 q 537 -21 629 -21 q 363 10 445 -21 q 220 106 281 42 q 122 263 158 169 q 86 481 86 358 q 122 699 86 605 q 220 855 158 792 q 363 951 281 919 q 537 983 445 983 q 711 951 629 983 q 854 855 793 919 q 952 699 916 792 q 989 481 989 605 m 889 481 q 863 655 889 578 q 793 786 838 732 q 682 869 747 841 q 537 898 618 898 q 392 869 456 898 q 281 786 327 841 q 211 655 236 732 q 186 481 186 578 q 211 307 186 384 q 281 176 236 230 q 392 93 327 122 q 537 64 456 64 q 682 93 618 64 q 793 176 747 122 q 863 307 838 230 q 889 481 889 384 "},"Ř":{"x_min":125,"x_max":825,"ha":858,"o":"m 767 673 q 709 502 767 565 q 559 412 652 440 q 617 337 581 384 q 690 234 652 290 q 763 116 727 177 q 825 0 800 55 l 724 0 q 660 111 694 55 q 591 218 626 166 q 522 315 555 270 q 464 393 489 359 q 375 389 419 389 l 219 389 l 219 0 l 125 0 l 125 944 q 242 964 175 958 q 366 971 309 971 q 666 895 565 971 q 767 673 767 820 m 377 889 q 285 885 324 889 q 219 879 245 882 l 219 470 l 349 470 q 473 476 415 470 q 574 503 531 482 q 642 565 617 525 q 668 675 668 605 q 642 780 668 739 q 577 846 617 822 q 485 879 537 870 q 377 889 433 889 m 401 1145 l 546 1279 l 585 1235 l 401 1032 l 218 1235 l 256 1279 l 401 1145 "},"ᾝ":{"x_min":-41,"x_max":1636,"ha":1677,"o":"m 1100 963 l 1194 963 l 1194 0 l 1100 0 l 1100 463 l 577 463 l 577 0 l 483 0 l 483 963 l 577 963 l 577 545 l 1100 545 l 1100 963 m 339 979 l 419 924 l 239 699 l 184 739 l 339 979 m 113 699 q 56 742 84 718 q 7 793 28 767 q -27 846 -14 819 q -41 898 -41 873 q -20 956 -41 934 q 35 978 0 978 q 86 957 68 978 q 105 908 105 936 q 91 869 105 886 q 56 844 78 851 q 94 791 69 818 q 151 739 119 764 l 113 699 m 1623 -13 q 1543 -1 1577 -11 q 1486 30 1509 9 q 1451 86 1463 52 q 1440 171 1440 120 l 1440 718 l 1530 718 l 1530 174 q 1536 121 1530 141 q 1555 89 1542 100 q 1587 71 1567 77 q 1636 62 1608 66 l 1623 -13 "},"ƴ":{"x_min":2,"x_max":763.515625,"ha":768,"o":"m 582 552 q 498 249 542 394 q 401 -22 453 103 q 347 -129 374 -84 q 286 -204 320 -174 q 206 -247 251 -233 q 100 -261 161 -261 q 37 -252 65 -261 q 2 -240 8 -244 l 20 -166 q 51 -178 25 -170 q 104 -187 76 -187 q 231 -149 183 -187 q 315 -16 278 -112 q 227 159 270 67 q 148 346 185 251 q 81 534 111 440 q 28 718 50 627 l 123 718 q 162 574 139 651 q 215 415 185 497 q 281 247 245 333 q 359 78 317 161 q 400 205 380 144 q 436 326 420 266 q 467 445 452 386 q 497 568 482 504 q 517 636 506 605 q 548 687 529 667 q 595 720 567 708 q 663 732 623 732 q 719 725 695 732 q 763 711 744 718 l 742 638 q 718 649 732 644 q 676 654 703 654 q 612 629 631 654 q 582 552 594 605 "},"É":{"x_min":125,"x_max":717,"ha":771,"o":"m 125 0 l 125 963 l 681 963 l 681 881 l 219 881 l 219 547 l 631 547 l 631 466 l 219 466 l 219 82 l 717 82 l 717 0 l 125 0 m 594 1220 l 356 1027 l 311 1079 l 530 1291 l 594 1220 "},"ұ":{"x_min":28,"x_max":639,"ha":667,"o":"m 336 97 q 396 234 365 156 q 454 393 426 311 q 507 560 483 476 q 548 718 532 644 l 639 718 q 533 379 594 544 q 410 74 472 214 l 584 74 l 584 0 l 378 0 l 378 -257 l 288 -257 l 288 0 l 85 0 l 85 74 l 254 74 q 132 380 192 215 q 28 718 72 544 l 123 718 q 165 560 140 644 q 217 393 189 476 q 276 234 246 311 q 336 97 307 157 "},"и":{"x_min":119,"x_max":698,"ha":817,"o":"m 609 602 q 512 476 567 552 q 401 314 457 399 q 293 146 345 230 q 203 0 241 63 l 119 0 l 119 718 l 208 718 l 208 143 q 291 280 242 202 q 396 439 341 359 q 508 592 452 519 q 613 718 564 666 l 698 718 l 698 0 l 609 0 l 609 602 "},"³":{"x_min":63,"x_max":416,"ha":499,"o":"m 203 496 q 310 523 282 496 q 338 590 338 550 q 324 638 338 619 q 288 670 310 658 q 236 688 266 683 q 176 693 206 693 l 158 693 l 158 756 l 178 756 q 227 759 203 756 q 269 773 251 762 q 298 800 287 783 q 310 844 310 816 q 284 901 310 884 q 215 918 258 918 q 140 904 171 918 q 91 879 109 891 l 64 937 q 119 966 79 949 q 218 983 159 983 q 346 946 308 983 q 385 851 385 909 q 300 730 385 765 q 384 680 352 715 q 416 587 416 645 q 404 526 416 555 q 367 476 392 498 q 302 441 342 454 q 207 429 263 429 q 119 438 154 429 q 63 458 85 447 l 81 523 q 130 505 100 514 q 203 496 160 496 "},"Ӫ":{"x_min":86,"x_max":989,"ha":1075,"o":"m 989 481 q 952 263 989 358 q 854 106 916 169 q 711 10 793 42 q 537 -21 629 -21 q 363 10 445 -21 q 220 106 281 42 q 122 263 158 169 q 86 481 86 358 q 122 699 86 605 q 220 855 158 792 q 363 951 281 919 q 537 983 445 983 q 711 951 629 983 q 854 855 793 919 q 952 699 916 792 q 989 481 989 605 m 537 64 q 676 90 614 64 q 784 166 739 116 q 856 286 829 215 q 888 446 883 357 l 186 446 q 217 286 190 357 q 290 166 244 215 q 398 90 336 116 q 537 64 461 64 m 537 898 q 400 872 462 898 q 292 799 337 846 q 220 682 247 751 q 187 527 192 614 l 888 527 q 855 682 882 614 q 783 799 828 751 q 675 872 737 846 q 537 898 612 898 m 482 1151 q 463 1103 482 1121 q 418 1085 445 1085 q 372 1103 390 1085 q 354 1151 354 1121 q 372 1199 354 1181 q 418 1218 390 1218 q 463 1199 445 1218 q 482 1151 482 1181 m 721 1151 q 702 1103 721 1121 q 657 1085 684 1085 q 611 1103 629 1085 q 593 1151 593 1121 q 611 1199 593 1181 q 657 1218 629 1218 q 702 1199 684 1218 q 721 1151 721 1181 "},"[":{"x_min":139,"x_max":420,"ha":431,"o":"m 139 1088 l 420 1088 l 420 1019 l 225 1019 l 225 -188 l 420 -188 l 420 -257 l 139 -257 l 139 1088 "},"ζ":{"x_min":78,"x_max":614,"ha":588,"o":"m 614 -77 q 607 -131 614 -104 q 589 -182 600 -158 q 567 -227 579 -206 q 545 -261 554 -248 l 469 -230 q 483 -211 473 -224 q 502 -179 493 -197 q 518 -139 511 -161 q 525 -95 525 -117 q 514 -48 525 -66 q 482 -17 504 -30 q 424 4 459 -4 q 339 25 389 13 q 214 63 264 40 q 134 122 164 87 q 91 204 104 157 q 78 319 78 252 q 99 462 78 391 q 155 600 121 533 q 235 726 190 666 q 323 836 279 786 q 409 926 368 886 q 479 992 450 965 l 122 992 l 122 1068 l 588 1068 l 588 994 q 514 924 557 967 q 425 830 471 882 q 334 717 379 778 q 253 591 289 657 q 196 456 218 525 q 174 320 174 388 q 185 229 174 265 q 223 167 197 192 q 290 128 248 143 q 391 100 332 112 q 493 73 451 87 q 563 39 536 59 q 602 -8 590 19 q 614 -77 614 -36 "},"":{"x_min":64,"x_max":1139,"ha":1203,"o":"m 424 590 q 373 474 424 519 q 208 429 322 429 q 125 438 166 429 q 64 459 83 448 l 79 523 q 101 514 87 519 q 133 504 115 509 q 170 496 151 499 q 208 493 190 493 q 278 501 251 493 q 320 523 305 509 q 340 554 334 537 q 346 587 346 570 q 336 632 346 611 q 302 670 327 654 q 228 697 276 687 q 102 707 181 707 q 118 836 111 776 q 128 971 125 895 l 398 971 l 398 904 l 192 904 q 186 836 189 872 q 177 767 183 801 q 364 715 304 758 q 424 590 424 672 m 830 963 l 922 963 l 372 0 l 281 0 l 830 963 m 1053 230 q 996 212 1024 216 q 950 208 969 208 q 860 221 897 208 q 801 256 823 234 q 769 307 779 278 q 760 369 760 337 q 771 430 760 399 q 804 487 782 462 q 861 528 826 512 q 944 544 896 544 q 1091 482 1044 544 q 1139 317 1139 421 q 1049 81 1139 164 q 789 -3 959 -1 l 786 62 q 973 107 904 62 q 1053 230 1042 153 m 949 271 q 1010 275 979 271 q 1061 290 1040 280 q 1063 303 1063 297 q 1063 315 1063 309 q 1038 433 1063 387 q 946 480 1014 480 q 897 471 917 480 q 863 446 876 462 q 844 412 850 431 q 838 373 838 392 q 865 294 838 318 q 949 271 892 271 "},"ῇ":{"x_min":118.625,"x_max":679,"ha":789,"o":"m 119 693 q 227 718 159 704 q 394 732 295 732 q 531 708 476 732 q 618 641 585 684 q 665 536 651 597 q 679 401 679 475 l 679 -256 l 589 -256 l 589 372 q 578 501 589 448 q 543 587 568 554 q 479 635 519 620 q 380 650 440 650 q 269 643 316 650 q 209 630 222 636 l 209 0 l 119 0 l 119 693 m 398 1036 q 463 1024 431 1036 q 518 991 494 1013 q 556 933 542 969 q 568 851 569 898 l 508 851 q 504 878 508 860 q 489 914 501 896 q 457 944 478 931 q 398 958 435 958 q 339 944 361 958 q 307 914 318 931 q 292 878 295 896 q 289 851 289 860 l 229 851 q 240 933 227 898 q 278 991 254 969 q 333 1024 302 1013 q 398 1036 365 1036 m 209 -94 q 230 -169 209 -145 q 312 -193 252 -193 l 312 -252 q 292 -256 305 -255 q 268 -258 280 -258 q 160 -216 202 -258 q 118 -99 118 -174 q 118 -88 118 -95 q 120 -76 118 -81 l 209 -76 l 209 -94 "},"Ἅ":{"x_min":-39,"x_max":997,"ha":1011,"o":"m 892 0 q 842 136 866 70 q 796 264 819 201 l 329 264 q 282 136 305 201 q 233 0 258 70 l 135 0 q 239 279 190 149 q 333 525 287 410 q 426 748 380 641 q 522 963 472 855 l 607 963 q 704 748 657 855 q 796 525 750 641 q 891 279 843 409 q 997 0 940 150 l 892 0 m 562 855 q 461 611 509 734 q 359 345 412 487 l 768 345 q 664 611 715 487 q 562 855 614 734 m 341 979 l 421 924 l 241 699 l 186 739 l 341 979 m 115 699 q 58 742 86 718 q 9 793 30 767 q -25 846 -12 819 q -39 898 -39 873 q -18 956 -39 934 q 37 978 2 978 q 88 957 70 978 q 107 908 107 936 q 93 869 107 886 q 58 844 80 851 q 96 791 71 818 q 153 739 121 764 l 115 699 "},"Ρ":{"x_min":125,"x_max":772,"ha":822,"o":"m 367 971 q 672 893 572 971 q 772 672 772 815 q 742 532 772 590 q 659 439 713 474 q 526 387 605 403 q 349 372 448 372 l 219 372 l 219 0 l 125 0 l 125 944 q 242 964 174 958 q 367 971 309 971 m 371 889 q 282 885 318 889 q 219 879 245 882 l 219 454 l 338 454 q 476 463 414 454 q 582 496 538 472 q 649 563 625 520 q 673 673 673 606 q 647 779 673 737 q 579 845 621 820 q 482 879 536 869 q 371 889 428 889 "},"ῌ":{"x_min":125,"x_max":1278,"ha":1318,"o":"m 742 963 l 836 963 l 836 0 l 742 0 l 742 463 l 219 463 l 219 0 l 125 0 l 125 963 l 219 963 l 219 545 l 742 545 l 742 963 m 1265 -13 q 1185 -1 1219 -11 q 1128 30 1151 9 q 1093 86 1105 52 q 1082 171 1082 120 l 1082 718 l 1172 718 l 1172 174 q 1178 121 1172 141 q 1197 89 1184 100 q 1229 71 1209 77 q 1278 62 1250 66 l 1265 -13 "},"ᾎ":{"x_min":-55.125,"x_max":1201,"ha":1242,"o":"m 770 0 q 720 136 744 70 q 674 264 697 201 l 207 264 q 160 136 183 201 q 111 0 136 70 l 13 0 q 117 279 68 149 q 211 525 165 410 q 304 748 258 641 q 400 963 350 855 l 485 963 q 582 748 535 855 q 674 525 628 641 q 769 279 721 409 q 875 0 818 150 l 770 0 m 440 855 q 339 611 387 734 q 237 345 290 487 l 646 345 q 542 611 593 487 q 440 855 492 734 m 12 689 q 62 728 41 708 q 89 767 82 749 q 53 826 53 789 q 68 870 53 851 q 117 889 84 889 q 165 870 146 889 q 184 814 184 851 q 167 757 184 783 q 128 709 151 730 q 80 672 105 687 q 42 649 56 657 l 12 689 m 117 999 q 59 987 81 999 q 26 959 38 975 q 9 927 14 943 q 5 902 5 911 l -55 902 q -42 978 -56 946 q -4 1032 -28 1011 q 52 1063 20 1053 q 117 1074 84 1074 q 182 1063 150 1074 q 239 1032 214 1053 q 277 978 263 1011 q 290 902 291 946 l 230 902 q 225 927 230 911 q 208 959 220 943 q 174 987 196 975 q 117 999 152 999 m 1188 -13 q 1108 -1 1142 -11 q 1051 30 1074 9 q 1016 86 1028 52 q 1005 171 1005 120 l 1005 718 l 1095 718 l 1095 174 q 1101 121 1095 141 q 1120 89 1107 100 q 1152 71 1132 77 q 1201 62 1173 66 l 1188 -13 "},"ª":{"x_min":64,"x_max":450,"ha":536,"o":"m 270 526 q 330 528 301 526 q 375 532 359 530 l 375 699 q 333 705 356 702 q 284 708 309 708 q 229 703 255 708 q 182 689 202 699 q 151 662 162 680 q 140 620 140 645 q 167 551 140 576 q 270 526 195 526 m 262 978 q 350 964 313 978 q 408 927 386 951 q 440 868 430 902 q 450 794 450 834 l 450 480 q 410 472 433 476 q 363 466 387 469 q 314 462 338 463 q 272 461 290 461 q 121 497 179 461 q 64 615 64 534 q 81 686 64 656 q 128 735 98 716 q 197 762 158 753 q 281 772 237 772 q 322 769 297 772 q 375 760 347 766 l 375 773 q 372 822 375 798 q 358 866 369 847 q 324 898 347 885 q 262 911 301 911 q 192 907 226 911 q 130 894 158 904 l 121 958 q 181 971 144 965 q 262 978 218 978 "},"Ἓ":{"x_min":-45,"x_max":1048,"ha":1101,"o":"m 456 0 l 456 963 l 1012 963 l 1012 881 l 550 881 l 550 547 l 962 547 l 962 466 l 550 466 l 550 82 l 1048 82 l 1048 0 l 456 0 m 392 739 l 336 699 l 157 924 l 236 979 l 392 739 m 109 699 q 52 742 80 718 q 3 793 24 767 q -31 846 -18 819 q -45 898 -45 873 q -24 956 -45 934 q 31 978 -3 978 q 82 957 64 978 q 101 908 101 936 q 87 869 101 886 q 52 844 74 851 q 89 791 64 818 q 147 739 115 764 l 109 699 "},"ї":{"x_min":-20,"x_max":347,"ha":328,"o":"m 209 0 l 119 0 l 119 718 l 209 718 l 209 0 m 108 934 q 89 886 108 904 q 44 868 71 868 q -1 886 16 868 q -20 934 -20 904 q -1 982 -20 964 q 44 1001 16 1001 q 89 982 71 1001 q 108 934 108 964 m 347 934 q 328 886 347 904 q 283 868 310 868 q 237 886 255 868 q 219 934 219 904 q 237 982 219 964 q 283 1001 255 1001 q 328 982 310 1001 q 347 934 347 964 "},"ﬀ":{"x_min":119,"x_max":1048,"ha":1045,"o":"m 382 1078 q 478 1068 441 1078 q 526 1053 514 1059 l 507 974 q 462 989 492 981 q 386 997 432 997 q 250 948 291 997 q 209 792 209 899 l 209 718 l 498 718 l 498 642 l 209 642 l 209 0 l 119 0 l 119 796 q 183 1007 119 936 q 382 1078 248 1078 m 904 1078 q 1000 1068 963 1078 q 1048 1053 1036 1059 l 1029 974 q 984 989 1014 981 q 908 997 954 997 q 772 948 813 997 q 731 792 731 899 l 731 718 l 1020 718 l 1020 642 l 731 642 l 731 0 l 641 0 l 641 796 q 705 1007 641 936 q 904 1078 770 1078 "},"š":{"x_min":56,"x_max":538,"ha":594,"o":"m 266 64 q 394 89 343 64 q 445 176 445 115 q 436 226 445 205 q 406 263 427 247 q 351 295 385 280 q 267 331 317 311 q 191 365 227 348 q 127 406 155 383 q 83 461 100 429 q 67 539 67 493 q 132 680 67 626 q 313 735 198 735 q 434 722 387 735 q 502 700 482 710 l 481 619 q 425 642 464 628 q 309 656 385 656 q 252 649 279 656 q 204 630 225 643 q 171 596 183 617 q 159 547 159 576 q 170 497 159 518 q 202 460 181 476 q 254 430 223 444 q 326 400 286 416 q 405 366 367 383 q 472 324 443 348 q 519 265 501 299 q 538 180 538 231 q 465 33 538 83 q 266 -17 392 -17 q 122 -1 172 -17 q 56 23 72 14 l 79 105 q 97 96 83 102 q 134 82 111 90 q 191 69 158 75 q 266 64 223 64 m 290 928 l 435 1062 l 474 1018 l 290 815 l 107 1018 l 145 1062 l 290 928 "},"₮":{"x_min":76,"x_max":708,"ha":783,"o":"m 437 619 l 625 704 l 655 635 l 437 535 l 437 359 l 625 444 l 655 375 l 437 276 l 437 0 l 347 0 l 347 235 l 159 150 l 128 219 l 347 318 l 347 495 l 159 409 l 128 479 l 347 578 l 347 885 l 76 885 l 76 963 l 708 963 l 708 885 l 437 885 l 437 619 "},"Ƕ":{"x_min":125,"x_max":1343,"ha":1454,"o":"m 1249 713 l 1343 713 l 1343 335 q 1329 194 1343 258 q 1280 82 1315 129 q 1186 8 1245 35 q 1039 -19 1127 -19 q 890 8 948 -19 q 797 82 832 35 q 748 194 762 129 q 735 335 735 258 l 735 463 l 219 463 l 219 0 l 125 0 l 125 963 l 219 963 l 219 545 l 735 545 l 735 963 l 829 963 l 829 357 q 876 135 829 204 q 1039 66 924 66 q 1201 135 1153 66 q 1249 357 1249 204 l 1249 713 "},"1":{"x_min":148.5,"x_max":490,"ha":783,"o":"m 148 766 q 297 840 231 795 q 426 963 362 885 l 490 963 l 490 0 l 400 0 l 400 825 q 360 790 384 808 q 305 755 336 772 q 241 722 274 738 q 174 697 208 706 l 148 766 "},"ҍ":{"x_min":24,"x_max":686,"ha":726,"o":"m 135 758 l 225 758 l 225 655 l 443 655 l 443 581 l 225 581 l 225 424 q 299 439 250 431 q 401 447 348 447 q 511 434 459 447 q 601 394 562 422 q 663 323 640 367 q 686 216 686 279 q 663 109 686 154 q 600 37 640 65 q 506 -2 561 9 q 388 -15 451 -15 q 313 -12 351 -15 q 241 -5 275 -9 q 180 4 208 -1 q 135 16 153 10 l 135 581 l 24 581 l 24 655 l 135 655 l 135 758 m 388 66 q 537 101 481 66 q 593 216 593 136 q 577 283 593 255 q 536 329 562 310 q 475 357 511 348 q 398 366 440 366 q 306 361 352 366 q 225 345 261 357 l 225 79 q 288 70 243 75 q 388 66 334 66 "},"ℓ":{"x_min":4,"x_max":548,"ha":581,"o":"m 153 358 l 153 761 q 162 883 153 825 q 193 984 171 940 q 254 1053 215 1028 q 354 1078 293 1078 q 450 1054 414 1078 q 505 995 485 1030 q 530 918 524 959 q 537 843 537 877 q 463 566 537 687 q 243 338 389 446 l 243 275 q 247 201 243 239 q 267 132 251 163 q 312 81 283 101 q 392 62 341 62 q 458 73 432 62 q 511 103 485 84 l 548 30 q 482 -5 522 10 q 383 -21 442 -21 q 272 -2 317 -21 q 201 50 228 16 q 164 133 175 84 q 153 244 153 183 l 153 273 l 41 192 l 4 249 l 153 358 m 243 422 q 331 509 293 465 q 396 602 369 552 q 435 709 422 651 q 449 836 449 766 q 445 890 449 862 q 431 941 442 918 q 402 980 421 965 q 354 996 383 996 q 313 985 333 996 q 277 949 293 975 q 252 878 261 923 q 243 764 243 833 l 243 422 "},"Ǜ":{"x_min":121,"x_max":824,"ha":945,"o":"m 472 -21 q 309 8 376 -21 q 200 88 241 37 q 139 209 158 140 q 121 357 121 277 l 121 963 l 215 963 l 215 369 q 233 232 215 290 q 285 137 252 175 q 366 82 319 100 q 472 64 414 64 q 578 82 530 64 q 659 137 625 100 q 711 232 692 175 q 730 369 730 290 l 730 963 l 824 963 l 824 357 q 805 209 824 277 q 744 88 786 140 q 635 8 703 37 q 472 -21 568 -21 m 349 1117 q 330 1069 349 1087 q 285 1051 312 1051 q 239 1069 257 1051 q 221 1117 221 1087 q 239 1165 221 1147 q 285 1184 257 1184 q 330 1165 312 1184 q 349 1117 349 1147 m 727 1117 q 708 1069 727 1087 q 663 1051 690 1051 q 617 1069 635 1051 q 599 1117 599 1087 q 617 1165 599 1147 q 663 1184 635 1184 q 708 1165 690 1184 q 727 1117 727 1147 m 407 1327 l 540 1138 l 489 1096 l 343 1268 l 407 1327 "},"ǒ":{"x_min":76,"x_max":732,"ha":808,"o":"m 732 358 q 707 204 732 273 q 639 85 683 134 q 536 10 595 37 q 404 -17 476 -17 q 271 10 331 -17 q 168 85 212 37 q 100 204 124 134 q 76 358 76 273 q 100 512 76 443 q 168 631 124 582 q 271 707 212 680 q 404 735 331 735 q 536 707 476 735 q 639 631 595 680 q 707 512 683 582 q 732 358 732 443 m 636 358 q 573 573 636 493 q 404 653 510 653 q 234 573 297 653 q 172 358 172 493 q 234 144 172 223 q 404 65 297 65 q 573 144 510 65 q 636 358 636 223 m 403 928 l 548 1062 l 587 1018 l 403 815 l 220 1018 l 258 1062 l 403 928 "},"ἥ":{"x_min":119,"x_max":679,"ha":789,"o":"m 119 693 q 227 718 159 704 q 394 732 295 732 q 531 708 476 732 q 618 641 585 684 q 665 536 651 597 q 679 401 679 475 l 679 -256 l 589 -256 l 589 372 q 578 501 589 448 q 543 587 568 554 q 479 635 519 620 q 380 650 440 650 q 269 643 316 650 q 209 630 222 636 l 209 0 l 119 0 l 119 693 m 555 1079 l 635 1024 l 455 799 l 400 839 l 555 1079 m 329 799 q 272 842 300 818 q 223 893 244 867 q 188 946 201 919 q 175 998 175 973 q 195 1056 175 1034 q 251 1078 216 1078 q 302 1057 284 1078 q 321 1008 321 1036 q 307 969 321 986 q 272 944 294 951 q 310 891 285 918 q 367 839 335 864 l 329 799 "},"ӡ":{"x_min":0,"x_max":578,"ha":631,"o":"m 173 300 q 248 387 209 340 q 321 481 286 435 q 386 569 356 528 q 435 642 416 611 l 29 642 l 29 718 l 545 718 l 545 667 q 492 586 524 632 q 425 491 461 540 q 349 392 389 441 q 273 303 310 343 q 387 285 332 300 q 484 239 441 271 q 552 156 526 207 q 578 33 578 105 q 484 -184 578 -111 q 230 -257 390 -257 q 88 -242 148 -257 q 0 -212 27 -227 l 23 -134 q 102 -161 50 -148 q 230 -175 155 -175 q 420 -120 357 -175 q 484 33 484 -66 q 458 136 484 97 q 394 196 433 175 q 305 225 354 218 q 208 232 256 232 l 174 232 l 173 300 "},"ī":{"x_min":-19,"x_max":349,"ha":328,"o":"m 209 0 l 119 0 l 119 718 l 209 718 l 209 0 m -19 902 l -19 978 l 349 978 l 349 902 l -19 902 "},"ӹ":{"x_min":119,"x_max":899,"ha":1018,"o":"m 119 718 l 209 718 l 209 430 q 282 445 234 437 q 379 453 331 453 q 484 440 434 453 q 573 400 535 428 q 635 328 612 372 q 658 219 658 283 q 635 111 658 155 q 573 38 612 66 q 480 -2 534 10 q 367 -15 427 -15 q 294 -12 331 -15 q 225 -5 257 -9 q 164 4 192 -1 q 119 16 137 10 l 119 718 m 367 66 q 510 102 455 66 q 565 219 565 138 q 549 287 565 258 q 508 335 534 316 q 448 363 482 354 q 377 372 414 372 q 289 367 334 372 q 209 351 245 363 l 209 79 q 271 70 227 75 q 367 66 316 66 m 899 0 l 809 0 l 809 718 l 899 718 l 899 0 m 453 934 q 434 886 453 904 q 389 868 416 868 q 343 886 361 868 q 325 934 325 904 q 343 982 325 964 q 389 1001 361 1001 q 434 982 416 1001 q 453 934 453 964 m 692 934 q 673 886 692 904 q 628 868 655 868 q 582 886 600 868 q 564 934 564 904 q 582 982 564 964 q 628 1001 600 1001 q 673 982 655 1001 q 692 934 692 964 "},"G":{"x_min":86,"x_max":820,"ha":914,"o":"m 726 456 l 820 456 l 820 26 q 716 -1 793 15 q 526 -19 639 -19 q 351 14 432 -19 q 211 110 270 47 q 119 267 152 173 q 86 482 86 361 q 122 696 86 602 q 220 853 158 790 q 363 949 281 916 q 539 983 445 983 q 715 960 646 983 q 817 916 785 937 l 785 835 q 679 880 746 863 q 534 898 612 898 q 398 871 462 898 q 287 792 334 845 q 213 662 240 739 q 186 481 186 584 q 208 308 186 385 q 275 177 230 231 q 387 93 321 122 q 542 64 454 64 q 661 71 613 64 q 726 86 709 79 l 726 456 "},"`":{"x_min":83,"x_max":366,"ha":522,"o":"m 146 1074 l 366 862 l 320 810 l 83 1003 l 146 1074 "},"ŏ":{"x_min":76,"x_max":732,"ha":808,"o":"m 732 358 q 707 204 732 273 q 639 85 683 134 q 536 10 595 37 q 404 -17 476 -17 q 271 10 331 -17 q 168 85 212 37 q 100 204 124 134 q 76 358 76 273 q 100 512 76 443 q 168 631 124 582 q 271 707 212 680 q 404 735 331 735 q 536 707 476 735 q 639 631 595 680 q 707 512 683 582 q 732 358 732 443 m 636 358 q 573 573 636 493 q 404 653 510 653 q 234 573 297 653 q 172 358 172 493 q 234 144 172 223 q 404 65 297 65 q 573 144 510 65 q 636 358 636 223 m 404 851 q 339 862 371 851 q 284 895 308 873 q 246 952 260 917 q 235 1036 233 987 l 295 1036 q 298 1008 295 1026 q 313 972 301 990 q 345 942 324 955 q 404 929 367 929 q 463 942 441 929 q 495 972 484 955 q 510 1008 507 990 q 514 1036 514 1026 l 574 1036 q 562 952 575 987 q 524 895 548 917 q 469 862 500 873 q 404 851 437 851 "},"ý":{"x_min":2,"x_max":626,"ha":658,"o":"m 314 -15 q 227 161 269 69 q 148 346 185 252 q 80 534 111 440 q 28 718 50 627 l 123 718 q 162 574 139 651 q 216 415 185 497 q 282 247 246 333 q 359 77 319 161 q 413 240 389 164 q 456 392 436 316 q 495 547 477 468 q 535 718 514 626 l 626 718 q 524 326 581 516 q 401 -22 468 136 q 347 -129 375 -84 q 285 -204 319 -174 q 206 -247 251 -233 q 100 -261 161 -261 q 37 -252 65 -261 q 2 -240 8 -244 l 20 -165 q 51 -177 25 -169 q 104 -185 76 -185 q 174 -176 143 -185 q 230 -148 205 -168 q 275 -95 255 -127 q 314 -15 295 -63 m 536 1003 l 298 810 l 253 862 l 472 1074 l 536 1003 "},"º":{"x_min":64,"x_max":543,"ha":607,"o":"m 543 719 q 524 613 543 661 q 474 531 506 565 q 398 478 443 497 q 302 460 354 460 q 207 478 251 460 q 132 531 163 497 q 82 613 100 565 q 64 719 64 661 q 82 825 64 777 q 132 907 100 873 q 207 960 163 941 q 302 979 251 979 q 398 960 354 979 q 474 907 443 941 q 524 825 506 873 q 543 719 543 777 m 461 719 q 417 858 461 806 q 302 911 374 911 q 189 858 232 911 q 146 719 146 806 q 189 580 146 632 q 302 528 232 528 q 417 580 374 528 q 461 719 461 632 "},"ȑ":{"x_min":24,"x_max":502,"ha":519,"o":"m 363 732 q 447 725 407 732 q 502 711 486 718 l 483 632 q 438 644 472 638 q 349 651 404 651 q 255 642 290 651 q 209 628 220 634 l 209 0 l 119 0 l 119 684 q 214 716 153 700 q 363 732 275 732 m 305 1073 l 471 848 l 416 808 l 242 1014 l 305 1073 m 87 1073 l 253 848 l 198 808 l 24 1014 l 87 1073 "},"Ί":{"x_min":-65,"x_max":387,"ha":513,"o":"m 218 903 l -19 710 l -65 762 l 154 974 l 218 903 m 293 963 l 387 963 l 387 0 l 293 0 l 293 963 "},"ӛ":{"x_min":82.21875,"x_max":685,"ha":761,"o":"m 685 360 q 657 195 685 265 q 587 78 630 125 q 487 7 543 30 q 371 -15 430 -15 q 160 71 239 -15 q 82 336 82 157 q 82 358 82 347 q 85 379 83 369 l 589 379 q 523 582 584 511 q 329 653 462 653 q 213 639 256 653 q 150 615 170 625 l 134 693 q 206 719 153 704 q 332 735 260 735 q 493 707 426 735 q 603 629 560 679 q 665 510 646 579 q 685 360 685 441 m 175 303 q 227 128 177 190 q 369 66 277 66 q 455 85 416 66 q 523 137 494 104 q 567 212 551 169 q 586 303 583 255 l 175 303 m 316 934 q 297 886 316 904 q 252 868 279 868 q 206 886 224 868 q 188 934 188 904 q 206 982 188 964 q 252 1001 224 1001 q 297 982 279 1001 q 316 934 316 964 m 555 934 q 536 886 555 904 q 491 868 518 868 q 445 886 463 868 q 427 934 427 904 q 445 982 427 964 q 491 1001 463 1001 q 536 982 518 1001 q 555 934 555 964 "},"ń":{"x_min":119,"x_max":679,"ha":790,"o":"m 119 693 q 227 718 159 704 q 394 732 295 732 q 531 708 476 732 q 618 641 585 684 q 665 536 651 597 q 679 401 679 475 l 679 0 l 589 0 l 589 372 q 578 501 589 448 q 543 587 568 554 q 479 635 519 620 q 380 650 440 650 q 269 643 316 650 q 209 630 222 636 l 209 0 l 119 0 l 119 693 m 589 1003 l 351 810 l 306 862 l 525 1074 l 589 1003 "},"ἒ":{"x_min":78,"x_max":639,"ha":692,"o":"m 379 65 q 460 70 422 65 q 528 84 498 76 q 579 101 558 92 q 609 116 601 110 l 639 37 q 604 21 627 30 q 548 3 582 12 q 470 -10 514 -4 q 377 -17 427 -17 q 156 35 234 -15 q 78 188 78 87 q 118 316 78 271 q 227 381 159 362 q 142 434 179 396 q 106 534 106 473 q 180 682 106 632 q 391 733 254 733 q 526 720 472 733 q 600 698 580 708 l 579 617 q 515 639 562 624 q 389 654 468 654 q 319 648 354 654 q 258 628 285 642 q 214 591 231 615 q 198 531 198 567 q 218 469 198 492 q 266 434 238 446 q 326 418 294 421 q 382 415 358 415 l 475 415 l 475 339 l 375 339 q 310 334 345 339 q 243 313 275 329 q 191 270 212 298 q 171 195 171 243 q 226 97 171 130 q 379 65 282 65 m 122 839 q 178 891 153 864 q 216 944 203 918 q 181 969 194 951 q 168 1008 168 986 q 186 1057 168 1036 q 237 1078 204 1078 q 293 1056 272 1078 q 314 998 314 1034 q 300 946 314 973 q 265 893 287 919 q 216 842 244 867 q 159 799 188 818 l 122 839 m 598 839 l 542 799 l 363 1024 l 442 1079 l 598 839 "},"ἑ":{"x_min":78,"x_max":639,"ha":692,"o":"m 379 65 q 460 70 422 65 q 528 84 498 76 q 579 101 558 92 q 609 116 601 110 l 639 37 q 604 21 627 30 q 548 3 582 12 q 470 -10 514 -4 q 377 -17 427 -17 q 156 35 234 -15 q 78 188 78 87 q 118 316 78 271 q 227 381 159 362 q 142 434 179 396 q 106 534 106 473 q 180 682 106 632 q 391 733 254 733 q 526 720 472 733 q 600 698 580 708 l 579 617 q 515 639 562 624 q 389 654 468 654 q 319 648 354 654 q 258 628 285 642 q 214 591 231 615 q 198 531 198 567 q 218 469 198 492 q 266 434 238 446 q 326 418 294 421 q 382 415 358 415 l 475 415 l 475 339 l 375 339 q 310 334 345 339 q 243 313 275 329 q 191 270 212 298 q 171 195 171 243 q 226 97 171 130 q 379 65 282 65 m 414 799 q 357 842 385 818 q 308 893 329 867 q 273 946 286 919 q 260 998 260 973 q 280 1056 260 1034 q 336 1078 301 1078 q 387 1057 369 1078 q 406 1008 406 1036 q 392 969 406 986 q 357 944 379 951 q 395 891 370 918 q 452 839 420 864 l 414 799 "},"Ь":{"x_min":125,"x_max":778,"ha":828,"o":"m 370 521 q 281 518 320 521 q 219 512 242 515 l 219 83 q 282 77 245 80 q 371 74 319 74 q 490 83 434 74 q 588 118 546 93 q 654 187 630 143 q 679 298 679 230 q 656 407 679 364 q 592 475 633 450 q 494 510 551 500 q 370 521 437 521 m 365 603 q 675 526 573 603 q 778 298 778 450 q 680 72 778 153 q 368 -8 582 -8 q 242 -1 309 -8 q 125 18 175 4 l 125 963 l 219 963 l 219 594 q 286 600 242 597 q 365 603 330 603 "},"ƽ":{"x_min":53,"x_max":618,"ha":681,"o":"m 618 202 q 599 115 618 155 q 544 45 581 74 q 448 0 506 16 q 309 -17 390 -17 q 237 -13 273 -17 q 168 -3 201 -10 q 110 10 136 2 q 71 26 84 17 l 94 107 q 166 79 116 95 q 308 64 216 64 q 468 99 412 64 q 524 204 524 134 q 507 280 524 250 q 453 329 490 311 q 354 356 415 348 q 204 364 293 364 l 140 364 q 155 507 150 443 q 166 642 161 572 l 53 642 l 53 718 l 586 718 l 586 642 l 247 642 q 238 538 242 593 q 228 439 233 483 l 254 439 q 406 427 339 439 q 520 387 473 415 q 593 314 568 359 q 618 202 618 269 "},"ᾯ":{"x_min":-11.125,"x_max":1562,"ha":1603,"o":"m 704 983 q 873 953 793 983 q 1014 863 954 923 q 1110 715 1075 803 q 1146 509 1146 626 q 1127 364 1146 430 q 1080 244 1108 298 q 1018 149 1052 190 q 953 81 983 108 l 1168 81 l 1168 0 l 815 0 l 815 61 q 905 142 864 97 q 978 243 947 187 q 1027 366 1009 300 q 1046 512 1046 433 q 1021 673 1046 602 q 950 795 996 745 q 843 871 905 845 q 704 898 780 898 q 565 871 628 898 q 458 795 503 845 q 387 673 412 745 q 363 512 363 602 q 381 366 363 433 q 430 243 399 300 q 503 142 461 187 q 593 61 544 97 l 593 0 l 241 0 l 241 81 l 455 81 q 390 149 424 108 q 328 244 356 190 q 281 364 300 298 q 263 509 263 430 q 298 715 263 626 q 394 863 333 803 q 534 953 454 923 q 704 983 614 983 m 236 649 q 197 672 221 657 q 150 709 173 687 q 111 757 128 730 q 94 814 94 783 q 113 870 94 851 q 161 889 132 889 q 210 870 194 889 q 225 826 225 851 q 189 767 225 789 q 216 728 196 749 q 267 689 237 708 l 236 649 m 161 999 q 103 987 125 999 q 70 959 82 975 q 53 927 58 943 q 49 902 49 911 l -11 902 q 1 978 -12 946 q 39 1032 15 1011 q 96 1063 64 1053 q 161 1074 128 1074 q 226 1063 194 1074 q 283 1032 258 1053 q 321 978 307 1011 q 334 902 335 946 l 274 902 q 269 927 274 911 q 252 959 264 943 q 218 987 240 975 q 161 999 196 999 m 1549 -13 q 1469 -1 1503 -11 q 1412 30 1435 9 q 1377 86 1389 52 q 1366 171 1366 120 l 1366 718 l 1456 718 l 1456 174 q 1462 121 1456 141 q 1481 89 1468 100 q 1513 71 1493 77 q 1562 62 1534 66 l 1549 -13 "},"¤":{"x_min":78,"x_max":705,"ha":783,"o":"m 132 481 q 144 568 132 527 q 180 641 157 609 l 78 747 l 133 804 l 238 695 q 309 731 270 719 q 391 744 348 744 q 473 731 434 744 q 544 695 512 719 l 649 804 l 705 747 l 602 641 q 638 568 626 609 q 651 481 651 527 q 638 394 651 435 q 602 321 626 353 l 705 216 l 649 159 l 544 267 q 473 231 512 244 q 391 219 434 219 q 309 231 348 219 q 238 267 270 244 l 133 159 l 78 216 l 180 321 q 144 394 157 353 q 132 481 132 435 m 570 481 q 556 557 570 523 q 518 617 542 592 q 461 656 493 642 q 391 670 428 670 q 321 656 354 670 q 264 617 289 642 q 226 557 240 592 q 213 481 213 523 q 226 405 213 439 q 264 345 240 370 q 321 306 289 320 q 391 293 354 293 q 461 306 428 293 q 518 345 493 320 q 556 405 542 370 q 570 481 570 439 "},"Ǣ":{"x_min":8,"x_max":1217,"ha":1271,"o":"m 644 0 l 644 264 l 244 264 q 174 131 209 197 q 105 0 139 66 l 8 0 q 157 279 83 148 q 304 527 230 410 q 452 752 378 644 q 599 963 526 860 l 1181 963 l 1181 881 l 738 881 l 738 547 l 1131 547 l 1131 466 l 738 466 l 738 82 l 1217 82 l 1217 0 l 644 0 m 644 885 q 460 622 547 756 q 291 345 372 487 l 644 345 l 644 885 m 595 1119 l 595 1195 l 963 1195 l 963 1119 l 595 1119 "},"Ɨ":{"x_min":34,"x_max":394,"ha":428,"o":"m 167 0 l 167 464 l 34 464 l 34 539 l 167 539 l 167 963 l 261 963 l 261 539 l 394 539 l 394 464 l 261 464 l 261 0 l 167 0 "},"p":{"x_min":119,"x_max":734,"ha":810,"o":"m 209 128 q 240 108 221 119 q 284 87 259 96 q 338 71 309 77 q 399 65 367 65 q 511 87 466 65 q 585 150 557 110 q 625 243 612 190 q 638 356 638 297 q 566 574 638 498 q 378 650 495 650 q 270 643 312 650 q 209 630 229 637 l 209 128 m 209 -257 l 119 -257 l 119 693 q 221 719 159 707 q 380 732 284 732 q 524 706 459 732 q 635 631 589 680 q 708 513 682 583 q 734 356 734 444 q 712 206 734 274 q 649 87 690 137 q 546 10 607 38 q 408 -17 486 -17 q 284 3 337 -17 q 209 41 232 23 l 209 -257 "},"Ἤ":{"x_min":-64,"x_max":1157,"ha":1282,"o":"m 1063 963 l 1157 963 l 1157 0 l 1063 0 l 1063 463 l 540 463 l 540 0 l 446 0 l 446 963 l 540 963 l 540 545 l 1063 545 l 1063 963 m -64 739 q -7 791 -32 764 q 30 844 17 818 q -4 869 8 851 q -18 908 -18 886 q 0 957 -18 936 q 51 978 18 978 q 107 956 86 978 q 128 898 128 934 q 114 846 128 873 q 79 793 101 819 q 30 742 58 767 q -26 699 2 718 l -64 739 m 300 979 l 380 924 l 200 699 l 145 739 l 300 979 "},"ο":{"x_min":76,"x_max":732,"ha":808,"o":"m 732 358 q 707 204 732 273 q 639 85 683 134 q 536 10 595 37 q 404 -17 476 -17 q 271 10 331 -17 q 168 85 212 37 q 100 204 124 134 q 76 358 76 273 q 100 512 76 443 q 168 631 124 582 q 271 707 212 680 q 404 735 331 735 q 536 707 476 735 q 639 631 595 680 q 707 512 683 582 q 732 358 732 443 m 636 358 q 573 573 636 493 q 404 653 510 653 q 234 573 297 653 q 172 358 172 493 q 234 144 172 223 q 404 65 297 65 q 573 144 510 65 q 636 358 636 223 "},"ɉ":{"x_min":-65,"x_max":347,"ha":371,"o":"m 7 -260 q -30 -255 -8 -260 q -65 -246 -53 -251 l -52 -172 q -26 -178 -42 -175 q 5 -181 -9 -181 q 114 -135 87 -181 q 142 2 142 -89 l 142 344 l 10 344 l 10 418 l 142 418 l 142 718 l 232 718 l 232 418 l 347 418 l 347 344 l 232 344 l 232 6 q 180 -194 232 -129 q 7 -260 129 -260 m 252 934 q 233 883 252 902 q 186 865 214 865 q 139 883 158 865 q 119 934 119 902 q 139 985 119 966 q 186 1004 158 1004 q 233 985 214 1004 q 252 934 252 966 "},"Ӭ":{"x_min":40,"x_max":753,"ha":839,"o":"m 295 64 q 449 92 384 64 q 558 171 515 120 q 625 293 602 221 q 651 452 648 364 l 217 452 l 217 533 l 650 533 q 618 684 644 616 q 549 799 593 752 q 444 872 505 846 q 305 898 383 898 q 159 880 219 898 q 68 845 99 863 l 43 924 q 77 942 54 931 q 136 961 101 952 q 217 976 172 970 q 316 983 262 983 q 489 949 409 983 q 627 852 569 916 q 719 694 686 788 q 753 480 753 601 q 719 265 753 359 q 627 108 686 172 q 485 11 568 44 q 304 -21 402 -21 q 213 -14 255 -21 q 135 0 170 -8 q 76 19 101 9 q 40 35 52 29 l 66 116 q 155 81 98 98 q 295 64 212 64 m 283 1151 q 264 1103 283 1121 q 219 1085 246 1085 q 173 1103 191 1085 q 155 1151 155 1121 q 173 1199 155 1181 q 219 1218 191 1218 q 264 1199 246 1218 q 283 1151 283 1181 m 522 1151 q 503 1103 522 1121 q 458 1085 485 1085 q 412 1103 430 1085 q 394 1151 394 1121 q 412 1199 394 1181 q 458 1218 430 1218 q 503 1199 485 1218 q 522 1151 522 1181 "},"῭":{"x_min":-3,"x_max":526,"ha":523,"o":"m 125 937 q 106 889 125 907 q 61 871 88 871 q 15 889 33 871 q -3 937 -3 907 q 15 985 -3 967 q 61 1004 33 1004 q 106 985 88 1004 q 125 937 125 967 m 526 937 q 507 889 526 907 q 462 871 489 871 q 416 889 434 871 q 398 937 398 907 q 416 985 398 967 q 462 1004 434 1004 q 507 985 489 1004 q 526 937 526 967 m 243 1068 l 361 840 l 304 807 l 168 1023 l 243 1068 "},"ђ":{"x_min":8,"x_max":679,"ha":790,"o":"m 679 -35 q 673 -124 679 -83 q 649 -194 667 -164 q 597 -241 631 -224 q 505 -258 563 -258 q 462 -254 481 -258 q 432 -246 443 -251 l 444 -173 q 494 -180 461 -180 q 568 -148 547 -180 q 589 -50 589 -117 l 589 372 q 578 501 589 448 q 543 587 568 554 q 479 635 519 620 q 377 650 438 650 q 326 645 353 650 q 275 636 299 641 q 233 626 252 631 q 209 618 214 620 l 209 0 l 119 0 l 119 872 l 8 872 l 8 944 l 119 944 l 119 1061 l 209 1078 l 209 944 l 469 944 l 469 872 l 209 872 l 209 697 q 299 722 253 713 q 391 732 345 732 q 530 708 474 732 q 619 641 585 684 q 665 536 652 597 q 679 401 679 475 l 679 -35 "},"y":{"x_min":2,"x_max":626,"ha":658,"o":"m 314 -15 q 227 161 269 69 q 148 346 185 252 q 80 534 111 440 q 28 718 50 627 l 123 718 q 162 574 139 651 q 216 415 185 497 q 282 247 246 333 q 359 77 319 161 q 413 240 389 164 q 456 392 436 316 q 495 547 477 468 q 535 718 514 626 l 626 718 q 524 326 581 516 q 401 -22 468 136 q 347 -129 375 -84 q 285 -204 319 -174 q 206 -247 251 -233 q 100 -261 161 -261 q 37 -252 65 -261 q 2 -240 8 -244 l 20 -165 q 51 -177 25 -169 q 104 -185 76 -185 q 174 -176 143 -185 q 230 -148 205 -168 q 275 -95 255 -127 q 314 -15 295 -63 "},"ƅ":{"x_min":41,"x_max":786,"ha":836,"o":"m 378 521 q 289 518 328 521 q 227 512 250 515 l 227 83 q 290 77 253 80 q 379 74 327 74 q 498 83 442 74 q 596 118 554 93 q 662 187 638 143 q 687 298 687 230 q 664 407 687 364 q 600 475 641 450 q 502 510 559 500 q 378 521 445 521 m 227 594 q 294 600 250 597 q 373 603 338 603 q 683 526 581 603 q 786 298 786 450 q 688 72 786 153 q 376 -8 590 -8 q 250 -1 317 -8 q 133 18 183 4 l 133 795 l 41 891 q 81 913 59 902 q 129 936 104 925 q 179 955 154 946 q 227 970 204 964 l 227 594 "},"ë":{"x_min":76,"x_max":678.78125,"ha":761,"o":"m 76 360 q 103 524 76 454 q 173 641 130 594 q 273 712 217 689 q 389 735 330 735 q 600 648 521 735 q 678 384 678 562 q 678 361 678 372 q 676 341 677 350 l 172 341 q 237 137 176 208 q 431 67 298 67 q 547 80 504 67 q 610 104 590 94 l 627 26 q 554 0 607 15 q 428 -15 500 -15 q 267 12 334 -15 q 157 90 200 40 q 95 209 114 140 q 76 360 76 278 m 586 417 q 533 591 583 529 q 391 654 483 654 q 304 634 342 654 q 237 582 266 615 q 193 507 209 550 q 174 417 177 464 l 586 417 m 333 934 q 314 886 333 904 q 269 868 296 868 q 223 886 241 868 q 205 934 205 904 q 223 982 205 964 q 269 1001 241 1001 q 314 982 296 1001 q 333 934 333 964 m 572 934 q 553 886 572 904 q 508 868 535 868 q 462 886 480 868 q 444 934 444 904 q 462 982 444 964 q 508 1001 480 1001 q 553 982 535 1001 q 572 934 572 964 "},"б":{"x_min":88,"x_max":734,"ha":810,"o":"m 188 609 q 240 654 211 634 q 301 686 269 673 q 364 704 333 698 q 422 711 396 711 q 562 685 503 711 q 659 611 621 659 q 715 497 697 563 q 734 348 734 430 q 718 221 734 287 q 666 103 703 156 q 567 17 629 51 q 413 -17 506 -17 q 249 22 313 -17 q 149 126 185 62 q 101 272 114 191 q 88 437 88 354 q 101 655 88 551 q 159 841 115 759 q 285 978 203 923 q 507 1050 368 1033 q 576 1058 548 1054 q 623 1065 604 1062 q 654 1071 641 1068 q 678 1078 666 1075 l 689 996 q 641 984 675 990 q 530 970 608 979 q 386 936 447 961 q 284 869 325 912 q 220 762 243 826 q 188 609 197 698 m 183 508 q 182 472 182 497 q 182 426 182 447 q 191 294 182 359 q 225 178 200 228 q 296 96 251 127 q 412 65 341 65 q 516 87 473 65 q 585 150 558 110 q 625 241 612 190 q 638 349 638 292 q 628 454 638 403 q 592 543 618 505 q 521 605 567 581 q 403 629 475 629 q 335 618 369 629 q 272 590 301 608 q 219 551 243 573 q 183 508 195 530 "},"ȟ":{"x_min":62,"x_max":679,"ha":790,"o":"m 119 0 l 119 1061 l 209 1078 l 209 697 q 299 722 253 713 q 391 732 345 732 q 530 708 474 732 q 619 641 585 684 q 665 536 652 597 q 679 401 679 475 l 679 0 l 589 0 l 589 372 q 578 501 589 448 q 543 587 568 554 q 479 635 519 620 q 377 650 438 650 q 326 645 353 650 q 275 636 299 641 q 233 626 252 631 q 209 618 214 620 l 209 0 l 119 0 m 227 1146 l 62 1282 l 92 1331 l 227 1236 l 362 1331 l 393 1282 l 227 1146 "},"ӌ":{"x_min":67,"x_max":601,"ha":720,"o":"m 67 718 l 157 718 l 157 523 q 202 386 157 423 q 332 349 247 349 q 442 355 402 349 q 510 372 482 362 l 510 718 l 601 718 l 601 0 l 516 0 l 516 -199 l 428 -199 l 428 76 l 510 76 l 510 295 q 481 288 500 293 q 437 279 462 283 q 384 271 412 274 q 326 268 355 268 q 219 280 266 268 q 137 322 171 293 q 85 399 103 351 q 67 518 67 447 l 67 718 "},"Ȥ":{"x_min":53,"x_max":722,"ha":778,"o":"m 722 -4 q 716 -113 722 -65 q 692 -193 710 -161 q 639 -243 674 -226 q 546 -260 605 -260 q 501 -255 523 -260 q 469 -247 480 -251 l 481 -172 q 502 -178 488 -175 q 532 -181 516 -181 q 609 -146 589 -181 q 630 -29 630 -112 l 630 0 l 53 0 l 53 70 q 125 202 83 130 q 216 349 168 273 q 318 501 265 425 q 422 648 370 578 q 519 778 473 718 q 605 881 566 837 l 79 881 l 79 963 l 708 963 l 708 876 q 631 782 674 837 q 537 660 587 726 q 435 520 487 594 q 333 370 383 446 q 237 220 282 294 q 156 82 192 147 l 722 82 l 722 -4 "},"ц":{"x_min":119,"x_max":764.28125,"ha":807,"o":"m 674 718 l 674 76 l 764 76 l 764 -199 l 668 -199 l 668 0 l 119 0 l 119 718 l 209 718 l 209 76 l 584 76 l 584 718 l 674 718 "},"w":{"x_min":32,"x_max":1044,"ha":1076,"o":"m 581 718 q 614 570 593 648 q 658 410 634 491 q 710 249 683 329 q 764 101 736 170 q 814 230 788 154 q 866 389 840 305 q 916 559 893 474 q 955 718 939 644 l 1044 718 q 934 332 993 507 q 805 0 876 157 l 718 0 q 675 108 698 48 q 628 237 652 169 q 581 382 604 306 q 538 537 559 458 q 495 382 517 458 q 448 238 472 306 q 401 108 424 169 q 357 0 378 48 l 269 0 q 140 331 198 156 q 32 718 81 506 l 127 718 q 166 559 143 644 q 216 389 189 473 q 269 230 242 305 q 319 102 296 155 q 372 251 345 172 q 422 411 399 330 q 467 570 446 491 q 503 718 488 648 l 581 718 "},"о":{"x_min":76,"x_max":732,"ha":808,"o":"m 732 358 q 707 204 732 273 q 639 85 683 134 q 536 10 595 37 q 404 -17 476 -17 q 271 10 331 -17 q 168 85 212 37 q 100 204 124 134 q 76 358 76 273 q 100 512 76 443 q 168 631 124 582 q 271 707 212 680 q 404 735 331 735 q 536 707 476 735 q 639 631 595 680 q 707 512 683 582 q 732 358 732 443 m 636 358 q 573 573 636 493 q 404 653 510 653 q 234 573 297 653 q 172 358 172 493 q 234 144 172 223 q 404 65 297 65 q 573 144 510 65 q 636 358 636 223 "},"Д":{"x_min":25,"x_max":900,"ha":946,"o":"m 115 0 l 115 -257 l 25 -257 l 25 82 l 111 82 q 221 250 181 152 q 281 459 261 347 q 305 692 301 571 q 310 932 310 812 l 310 963 l 810 963 l 810 82 l 900 82 l 900 -257 l 810 -257 l 810 0 l 115 0 m 403 881 l 403 869 q 398 665 403 772 q 375 453 393 558 q 322 252 358 348 q 226 82 287 157 l 716 82 l 716 881 l 403 881 "},"":{"x_min":63,"x_max":439,"ha":499,"o":"m 213 607 l 139 607 q 163 727 143 661 q 212 857 183 793 q 277 977 241 921 q 346 1069 312 1034 l 63 1069 l 63 1138 l 439 1138 l 439 1081 q 373 1002 409 1053 q 301 887 336 952 q 242 750 267 822 q 213 607 217 677 "},"ӣ":{"x_min":119,"x_max":698,"ha":817,"o":"m 609 602 q 512 476 567 552 q 401 314 457 399 q 293 146 345 230 q 203 0 241 63 l 119 0 l 119 718 l 208 718 l 208 143 q 291 280 242 202 q 396 439 341 359 q 508 592 452 519 q 613 718 564 666 l 698 718 l 698 0 l 609 0 l 609 602 m 224 902 l 224 978 l 592 978 l 592 902 l 224 902 "},"Ӂ":{"x_min":31,"x_max":1145,"ha":1176,"o":"m 31 0 q 113 133 65 63 q 216 269 161 202 q 329 398 272 336 q 441 508 387 459 q 352 610 405 550 q 244 735 300 671 q 137 860 189 800 q 52 963 85 921 l 162 963 q 234 874 188 929 q 333 755 279 818 q 442 627 387 691 q 543 511 497 562 l 543 963 l 632 963 l 632 511 q 732 627 677 562 q 841 755 787 691 q 940 874 895 818 q 1013 963 986 929 l 1121 963 q 1036 860 1087 921 q 929 736 985 800 q 821 612 874 672 q 733 509 769 551 q 845 399 787 461 q 958 270 903 337 q 1061 133 1013 202 q 1145 0 1110 63 l 1039 0 q 952 132 1004 62 q 843 268 900 202 q 730 389 787 333 q 632 479 674 444 l 632 0 l 543 0 l 543 479 q 443 389 498 444 q 330 268 387 333 q 221 132 273 202 q 135 0 169 62 l 31 0 m 588 1057 q 460 1100 510 1057 q 396 1222 409 1143 l 470 1242 q 506 1164 478 1194 q 588 1135 535 1135 q 669 1164 640 1135 q 706 1242 697 1194 l 780 1222 q 716 1100 766 1143 q 588 1057 665 1057 "},"Ὁ":{"x_min":-42,"x_max":1053,"ha":1139,"o":"m 1053 481 q 1016 263 1053 358 q 918 106 980 169 q 775 10 857 42 q 601 -21 693 -21 q 427 10 509 -21 q 284 106 345 42 q 186 263 222 169 q 150 481 150 358 q 186 699 150 605 q 284 855 222 792 q 427 951 345 919 q 601 983 509 983 q 775 951 693 983 q 918 855 857 919 q 1016 699 980 792 q 1053 481 1053 605 m 953 481 q 927 655 953 578 q 857 786 902 732 q 746 869 811 841 q 601 898 682 898 q 456 869 520 898 q 345 786 391 841 q 275 655 300 732 q 250 481 250 578 q 275 307 250 384 q 345 176 300 230 q 456 93 391 122 q 601 64 520 64 q 746 93 682 64 q 857 176 811 122 q 927 307 902 230 q 953 481 953 384 m 112 699 q 55 742 83 718 q 6 793 27 767 q -28 846 -15 819 q -42 898 -42 873 q -21 956 -42 934 q 34 978 0 978 q 85 957 67 978 q 104 908 104 936 q 90 869 104 886 q 55 844 77 851 q 93 791 68 818 q 150 739 118 764 l 112 699 "},"Ĵ":{"x_min":11,"x_max":692,"ha":676,"o":"m 555 302 q 541 174 555 233 q 493 71 527 115 q 403 3 459 27 q 262 -21 346 -21 q 170 -11 212 -21 q 97 9 128 -2 q 43 35 65 22 q 11 60 22 49 l 55 137 q 86 113 67 126 q 130 89 105 100 q 186 70 155 77 q 252 64 216 64 q 410 120 359 64 q 461 312 461 176 l 461 963 l 555 963 l 555 302 m 363 1028 l 325 1071 l 508 1275 l 692 1071 l 653 1028 l 508 1161 l 363 1028 "},"Ҕ":{"x_min":125,"x_max":784,"ha":835,"o":"m 412 520 q 347 516 378 520 q 289 507 316 513 q 245 497 263 501 q 219 488 227 492 l 219 0 l 125 0 l 125 963 l 665 963 l 665 881 l 219 881 l 219 569 q 294 591 239 579 q 416 603 348 603 q 581 572 512 603 q 695 485 650 541 q 762 349 740 429 q 784 172 784 269 q 760 0 784 79 q 690 -135 736 -77 q 578 -225 644 -193 q 426 -257 511 -257 q 382 -255 405 -257 q 351 -251 360 -254 l 358 -169 q 383 -173 365 -172 q 416 -174 401 -174 q 521 -152 472 -174 q 607 -87 571 -130 q 664 20 643 -44 q 685 172 685 86 q 614 428 685 337 q 412 520 544 520 "},"ô":{"x_min":76,"x_max":732,"ha":808,"o":"m 732 358 q 707 204 732 273 q 639 85 683 134 q 536 10 595 37 q 404 -17 476 -17 q 271 10 331 -17 q 168 85 212 37 q 100 204 124 134 q 76 358 76 273 q 100 512 76 443 q 168 631 124 582 q 271 707 212 680 q 404 735 331 735 q 536 707 476 735 q 639 631 595 680 q 707 512 683 582 q 732 358 732 443 m 636 358 q 573 573 636 493 q 404 653 510 653 q 234 573 297 653 q 172 358 172 493 q 234 144 172 223 q 404 65 297 65 q 573 144 510 65 q 636 358 636 223 m 258 811 l 220 854 l 403 1058 l 587 854 l 548 811 l 403 944 l 258 811 "},"ҝ":{"x_min":119,"x_max":793,"ha":818,"o":"m 388 180 l 313 180 l 313 338 l 209 338 l 209 0 l 119 0 l 119 718 l 209 718 l 209 412 l 313 412 l 313 577 l 388 577 l 388 411 q 540 588 477 511 q 646 718 604 664 l 742 718 q 685 647 718 687 q 615 563 652 607 q 538 473 577 519 q 463 386 499 428 q 541 310 497 354 q 630 214 585 265 q 718 109 676 164 q 793 0 760 54 l 690 0 q 620 93 657 45 q 543 187 582 141 q 463 271 503 232 q 388 338 424 310 l 388 180 "},"г":{"x_min":119,"x_max":531,"ha":552,"o":"m 531 642 l 209 642 l 209 0 l 119 0 l 119 718 l 531 718 l 531 642 "},"Ŀ":{"x_min":125,"x_max":672,"ha":697,"o":"m 672 82 l 672 0 l 125 0 l 125 963 l 219 963 l 219 82 l 672 82 m 520 436 q 473 454 492 436 q 454 505 454 473 q 473 556 454 537 q 520 575 492 575 q 567 556 548 575 q 587 505 587 537 q 567 454 587 473 q 520 436 548 436 "},"ᾄ":{"x_min":76,"x_max":796.109375,"ha":831,"o":"m 626 57 q 539 7 591 29 q 412 -15 487 -15 q 264 14 327 -15 q 159 93 201 43 q 96 211 117 143 q 76 357 76 279 q 101 516 76 445 q 175 634 127 586 q 290 707 223 682 q 438 732 356 732 q 518 727 480 732 q 589 716 557 722 q 646 702 622 709 q 685 688 671 694 l 685 175 q 691 121 685 141 q 712 89 698 100 q 747 71 726 77 q 796 62 768 66 l 783 -13 q 626 57 671 -8 m 595 626 q 576 631 590 627 q 542 640 563 636 q 497 647 522 644 q 446 650 472 650 q 244 575 316 650 q 172 357 172 500 q 183 246 172 298 q 224 154 195 194 q 298 90 252 114 q 412 67 344 67 q 476 73 446 67 q 531 90 507 80 q 574 111 556 100 q 601 130 592 122 q 595 196 595 161 l 595 626 m 238 839 q 294 891 269 864 q 332 944 319 918 q 297 969 310 951 q 284 1008 284 986 q 302 1057 284 1036 q 353 1078 320 1078 q 409 1056 388 1078 q 430 998 430 1034 q 416 946 430 973 q 381 893 403 919 q 332 842 360 867 q 275 799 304 818 l 238 839 m 602 1079 l 682 1024 l 502 799 l 447 839 l 602 1079 m 459 -94 q 480 -169 459 -145 q 562 -193 502 -193 l 562 -252 q 542 -256 555 -255 q 518 -258 530 -258 q 410 -216 452 -258 q 368 -99 368 -174 q 368 -88 368 -95 q 370 -76 368 -81 l 459 -76 l 459 -94 "},"ᾙ":{"x_min":-42,"x_max":1365,"ha":1406,"o":"m 830 963 l 924 963 l 924 0 l 830 0 l 830 463 l 307 463 l 307 0 l 213 0 l 213 963 l 307 963 l 307 545 l 830 545 l 830 963 m 112 699 q 55 742 83 718 q 6 793 27 767 q -28 846 -15 819 q -42 898 -42 873 q -21 956 -42 934 q 34 978 0 978 q 85 957 67 978 q 104 908 104 936 q 90 869 104 886 q 55 844 77 851 q 93 791 68 818 q 150 739 118 764 l 112 699 m 1352 -13 q 1272 -1 1306 -11 q 1215 30 1238 9 q 1180 86 1192 52 q 1169 171 1169 120 l 1169 718 l 1259 718 l 1259 174 q 1265 121 1259 141 q 1284 89 1271 100 q 1316 71 1296 77 q 1365 62 1337 66 l 1352 -13 "},"Ἇ":{"x_min":-43.125,"x_max":887,"ha":901,"o":"m 782 0 q 732 136 756 70 q 686 264 709 201 l 219 264 q 172 136 195 201 q 123 0 148 70 l 25 0 q 129 279 80 149 q 223 525 177 410 q 316 748 270 641 q 412 963 362 855 l 497 963 q 594 748 547 855 q 686 525 640 641 q 781 279 733 409 q 887 0 830 150 l 782 0 m 452 855 q 351 611 399 734 q 249 345 302 487 l 658 345 q 554 611 605 487 q 452 855 504 734 m 204 649 q 165 672 189 657 q 118 709 141 687 q 79 757 96 730 q 62 814 62 783 q 81 870 62 851 q 129 889 100 889 q 178 870 162 889 q 193 826 193 851 q 157 767 193 789 q 184 728 164 749 q 235 689 205 708 l 204 649 m 129 999 q 71 987 93 999 q 38 959 50 975 q 21 927 26 943 q 17 902 17 911 l -43 902 q -30 978 -44 946 q 7 1032 -16 1011 q 64 1063 32 1053 q 129 1074 96 1074 q 194 1063 162 1074 q 251 1032 226 1053 q 289 978 275 1011 q 302 902 303 946 l 242 902 q 237 927 242 911 q 220 959 232 943 q 186 987 208 975 q 129 999 164 999 "},"Ἃ":{"x_min":-43,"x_max":1016,"ha":1031,"o":"m 911 0 q 861 136 885 70 q 815 264 838 201 l 348 264 q 301 136 324 201 q 252 0 277 70 l 154 0 q 258 279 209 149 q 352 525 306 410 q 445 748 399 641 q 541 963 491 855 l 626 963 q 723 748 676 855 q 815 525 769 641 q 910 279 862 409 q 1016 0 959 150 l 911 0 m 581 855 q 480 611 528 734 q 378 345 431 487 l 787 345 q 683 611 734 487 q 581 855 633 734 m 394 739 l 338 699 l 159 924 l 238 979 l 394 739 m 111 699 q 54 742 82 718 q 5 793 26 767 q -29 846 -16 819 q -43 898 -43 873 q -22 956 -43 934 q 33 978 -1 978 q 84 957 66 978 q 103 908 103 936 q 89 869 103 886 q 54 844 76 851 q 91 791 66 818 q 149 739 117 764 l 111 699 "},"Ǟ":{"x_min":14,"x_max":876,"ha":890,"o":"m 771 0 q 721 136 745 70 q 675 264 698 201 l 208 264 q 161 136 184 201 q 112 0 137 70 l 14 0 q 118 279 69 149 q 212 525 166 410 q 305 748 259 641 q 401 963 351 855 l 486 963 q 583 748 536 855 q 675 525 629 641 q 770 279 722 409 q 876 0 819 150 l 771 0 m 441 855 q 340 611 388 734 q 238 345 291 487 l 647 345 q 543 611 594 487 q 441 855 493 734 m 270 1324 l 619 1324 l 619 1249 l 270 1249 l 270 1324 m 370 1108 q 351 1060 370 1078 q 306 1042 333 1042 q 260 1060 278 1042 q 242 1108 242 1078 q 260 1156 242 1138 q 306 1175 278 1175 q 351 1156 333 1175 q 370 1108 370 1138 m 647 1108 q 628 1060 647 1078 q 583 1042 610 1042 q 537 1060 555 1042 q 519 1108 519 1078 q 537 1156 519 1138 q 583 1175 555 1175 q 628 1156 610 1175 q 647 1108 647 1138 "},"\t":{"x_min":0,"x_max":0,"ha":317},"ь":{"x_min":119,"x_max":670,"ha":710,"o":"m 119 718 l 209 718 l 209 430 q 283 445 234 437 q 385 453 332 453 q 495 440 443 453 q 585 400 546 428 q 647 328 624 372 q 670 219 670 283 q 647 111 670 155 q 584 38 624 66 q 490 -2 545 10 q 372 -15 435 -15 q 297 -12 335 -15 q 225 -5 259 -9 q 164 4 192 -1 q 119 16 137 10 l 119 718 m 372 66 q 521 101 465 66 q 577 219 577 136 q 561 287 577 258 q 520 335 546 316 q 459 363 495 354 q 382 372 424 372 q 290 367 336 372 q 209 351 245 363 l 209 79 q 272 70 227 75 q 372 66 318 66 "},"Җ":{"x_min":31,"x_max":1192,"ha":1200,"o":"m 31 0 q 113 133 65 63 q 217 269 161 202 q 330 398 272 336 q 442 508 388 459 q 353 610 406 550 q 245 735 300 671 q 137 860 189 800 q 52 963 85 921 l 162 963 q 234 874 188 929 q 334 755 280 818 q 443 627 388 691 q 544 511 498 562 l 544 963 l 633 963 l 633 511 q 733 627 678 562 q 842 755 788 691 q 942 874 896 818 q 1015 963 988 929 l 1123 963 q 1038 860 1089 921 q 931 736 986 800 q 823 612 875 672 q 734 509 770 551 q 828 417 780 468 q 925 311 877 366 q 1017 197 973 255 q 1098 82 1061 138 l 1192 82 l 1192 -257 l 1102 -257 l 1102 0 l 1041 0 q 954 132 1006 62 q 845 268 902 202 q 732 389 788 333 q 633 479 676 444 l 633 0 l 544 0 l 544 479 q 443 389 499 444 q 331 268 388 333 q 221 132 274 202 q 135 0 169 62 l 31 0 "},"ὑ":{"x_min":111,"x_max":678,"ha":789,"o":"m 394 -15 q 259 9 313 -15 q 172 75 205 33 q 124 177 138 118 q 111 305 111 236 l 111 718 l 201 718 l 201 313 q 214 199 201 245 q 251 123 227 152 q 312 81 276 94 q 394 68 348 68 q 476 81 440 68 q 537 123 512 94 q 574 199 561 152 q 588 313 588 245 l 588 718 l 678 718 l 678 305 q 664 177 678 236 q 616 75 650 118 q 529 9 583 33 q 394 -15 475 -15 m 448 799 q 391 842 419 818 q 342 893 363 867 q 307 946 320 919 q 294 998 294 973 q 314 1056 294 1034 q 370 1078 335 1078 q 421 1057 403 1078 q 440 1008 440 1036 q 426 969 440 986 q 391 944 413 951 q 429 891 404 918 q 486 839 454 864 l 448 799 "},"€":{"x_min":63,"x_max":755,"ha":783,"o":"m 290 568 q 288 523 289 545 q 288 480 288 501 q 288 441 288 461 q 289 403 288 422 l 585 403 l 569 329 l 296 329 q 321 228 304 276 q 367 144 337 180 q 444 86 397 108 q 559 64 491 64 q 665 75 621 64 q 734 101 709 87 l 755 23 q 725 11 745 18 q 680 -2 706 4 q 621 -13 653 -8 q 556 -18 590 -18 q 403 9 466 -18 q 298 84 340 37 q 231 195 255 131 q 197 329 207 258 l 63 329 l 63 403 l 189 403 q 188 441 188 422 q 188 480 188 461 q 192 568 188 523 l 63 568 l 63 642 l 200 642 q 237 770 212 709 q 305 878 262 832 q 409 951 348 924 q 555 979 470 979 q 609 976 585 979 q 654 971 634 974 q 692 962 674 967 q 731 949 711 956 l 708 868 q 634 890 675 882 q 555 898 592 898 q 448 877 492 898 q 374 821 404 856 q 326 739 344 785 q 300 642 308 693 l 632 642 l 618 568 l 290 568 "},"ƶ":{"x_min":53,"x_max":578,"ha":632,"o":"m 565 644 q 492 551 534 611 q 402 418 451 491 l 559 418 l 559 344 l 349 344 q 245 207 295 277 q 157 76 196 138 l 578 76 l 578 0 l 53 0 l 53 64 q 139 198 88 125 q 247 344 190 270 l 93 344 l 93 418 l 299 418 q 383 544 342 486 q 455 642 423 603 l 74 642 l 74 718 l 565 718 l 565 644 "},"Ὦ":{"x_min":-52.125,"x_max":1127,"ha":1206,"o":"m 663 983 q 832 953 752 983 q 973 863 913 923 q 1069 715 1034 803 q 1105 509 1105 626 q 1086 364 1105 430 q 1039 244 1067 298 q 977 149 1011 190 q 912 81 942 108 l 1127 81 l 1127 0 l 774 0 l 774 61 q 864 142 823 97 q 937 243 906 187 q 986 366 968 300 q 1005 512 1005 433 q 980 673 1005 602 q 909 795 955 745 q 802 871 864 845 q 663 898 739 898 q 524 871 587 898 q 417 795 462 845 q 346 673 371 745 q 322 512 322 602 q 340 366 322 433 q 389 243 358 300 q 462 142 420 187 q 552 61 503 97 l 552 0 l 200 0 l 200 81 l 414 81 q 349 149 383 108 q 287 244 315 190 q 240 364 259 298 q 222 509 222 430 q 257 715 222 626 q 353 863 292 803 q 493 953 413 923 q 663 983 573 983 m 15 689 q 65 728 44 708 q 92 767 85 749 q 56 826 56 789 q 71 870 56 851 q 120 889 87 889 q 168 870 149 889 q 187 814 187 851 q 170 757 187 783 q 131 709 154 730 q 83 672 108 687 q 45 649 59 657 l 15 689 m 120 999 q 62 987 84 999 q 29 959 41 975 q 12 927 17 943 q 8 902 8 911 l -52 902 q -39 978 -53 946 q -1 1032 -25 1011 q 55 1063 23 1053 q 120 1074 87 1074 q 185 1063 153 1074 q 242 1032 217 1053 q 280 978 266 1011 q 293 902 294 946 l 233 902 q 228 927 233 911 q 211 959 223 943 q 177 987 199 975 q 120 999 155 999 "},"Ἀ":{"x_min":14,"x_max":876,"ha":890,"o":"m 771 0 q 721 136 745 70 q 675 264 698 201 l 208 264 q 161 136 184 201 q 112 0 137 70 l 14 0 q 118 279 69 149 q 212 525 166 410 q 305 748 259 641 q 401 963 351 855 l 486 963 q 583 748 536 855 q 675 525 629 641 q 770 279 722 409 q 876 0 819 150 l 771 0 m 441 855 q 340 611 388 734 q 238 345 291 487 l 647 345 q 543 611 594 487 q 441 855 493 734 m 41 739 q 97 791 72 764 q 135 844 122 818 q 100 869 113 851 q 87 908 87 886 q 105 957 87 936 q 156 978 123 978 q 212 956 191 978 q 233 898 233 934 q 219 846 233 873 q 184 793 206 819 q 135 742 163 767 q 78 699 107 718 l 41 739 "},"С":{"x_min":86,"x_max":807,"ha":846,"o":"m 524 -21 q 352 12 431 -21 q 213 109 272 45 q 120 267 154 173 q 86 481 86 360 q 122 696 86 602 q 220 853 159 789 q 362 950 281 917 q 530 983 443 983 q 629 976 584 983 q 706 958 673 969 q 763 937 740 948 q 800 919 787 927 l 769 836 q 681 877 734 857 q 548 898 627 898 q 390 867 458 898 q 277 781 323 836 q 208 649 231 725 q 186 480 186 573 q 208 307 186 384 q 276 176 231 230 q 385 93 320 122 q 533 64 449 64 q 686 81 625 64 q 780 116 748 98 l 807 35 q 773 19 797 29 q 713 1 750 10 q 630 -14 677 -8 q 524 -21 583 -21 "},"ß":{"x_min":119,"x_max":781,"ha":828,"o":"m 660 859 q 648 793 660 823 q 618 740 636 764 q 582 697 601 716 q 548 664 562 677 q 515 629 529 644 q 494 602 502 615 q 482 577 485 590 q 479 550 479 565 q 488 515 479 530 q 511 488 497 500 q 544 468 526 477 q 580 451 562 459 q 659 411 622 432 q 723 362 696 390 q 765 295 750 334 q 781 201 781 256 q 710 40 781 97 q 512 -17 639 -17 q 395 -2 444 -17 q 333 19 346 12 l 352 102 q 406 78 363 95 q 529 62 448 62 q 646 99 604 62 q 688 200 688 137 q 680 254 688 231 q 654 296 672 277 q 608 333 636 316 q 541 371 580 350 q 465 413 495 395 q 418 450 435 431 q 393 489 400 469 q 387 541 387 510 q 414 624 387 588 q 477 698 441 660 q 516 737 498 720 q 545 773 533 755 q 563 810 557 791 q 570 855 570 830 q 526 957 570 917 q 409 997 483 997 q 255 937 302 997 q 209 777 209 877 l 209 0 l 119 0 l 119 783 q 138 905 119 850 q 194 998 157 959 q 283 1057 231 1036 q 398 1078 334 1078 q 597 1017 534 1078 q 660 859 660 957 "},"ǩ":{"x_min":62,"x_max":663,"ha":688,"o":"m 299 390 q 398 310 348 355 q 497 212 448 265 q 589 104 546 159 q 663 0 632 49 l 553 0 q 476 105 519 52 q 386 205 433 158 q 292 290 339 251 q 209 348 245 328 l 209 0 l 119 0 l 119 1061 l 209 1078 l 209 408 q 281 477 237 435 q 370 562 325 518 q 454 647 414 606 q 521 718 494 687 l 632 718 q 558 644 599 685 q 472 559 517 603 q 383 473 427 515 q 299 390 340 430 m 227 1146 l 62 1282 l 92 1331 l 227 1236 l 362 1331 l 393 1282 l 227 1146 "},"Ӓ":{"x_min":14,"x_max":876,"ha":890,"o":"m 771 0 q 721 136 745 70 q 675 264 698 201 l 208 264 q 161 136 184 201 q 112 0 137 70 l 14 0 q 118 279 69 149 q 212 525 166 410 q 305 748 259 641 q 401 963 351 855 l 486 963 q 583 748 536 855 q 675 525 629 641 q 770 279 722 409 q 876 0 819 150 l 771 0 m 441 855 q 340 611 388 734 q 238 345 291 487 l 647 345 q 543 611 594 487 q 441 855 493 734 m 388 1151 q 369 1103 388 1121 q 324 1085 351 1085 q 278 1103 296 1085 q 260 1151 260 1121 q 278 1199 260 1181 q 324 1218 296 1218 q 369 1199 351 1218 q 388 1151 388 1181 m 627 1151 q 608 1103 627 1121 q 563 1085 590 1085 q 517 1103 535 1085 q 499 1151 499 1121 q 517 1199 499 1181 q 563 1218 535 1218 q 608 1199 590 1218 q 627 1151 627 1181 "},"Ὕ":{"x_min":-41,"x_max":1225,"ha":1239,"o":"m 798 0 l 798 396 q 616 688 699 547 q 463 963 533 829 l 573 963 q 701 714 631 840 q 847 475 771 589 q 991 714 920 589 q 1122 963 1062 840 l 1225 963 q 1069 688 1151 831 q 892 399 987 546 l 892 0 l 798 0 m 339 979 l 419 924 l 239 699 l 184 739 l 339 979 m 113 699 q 56 742 84 718 q 7 793 28 767 q -27 846 -14 819 q -41 898 -41 873 q -20 956 -41 934 q 35 978 0 978 q 86 957 68 978 q 105 908 105 936 q 91 869 105 886 q 56 844 78 851 q 94 791 69 818 q 151 739 119 764 l 113 699 "},"Ű":{"x_min":121,"x_max":824,"ha":945,"o":"m 472 -21 q 309 8 376 -21 q 200 88 241 37 q 139 209 158 140 q 121 357 121 277 l 121 963 l 215 963 l 215 369 q 233 232 215 290 q 285 137 252 175 q 366 82 319 100 q 472 64 414 64 q 578 82 530 64 q 659 137 625 100 q 711 232 692 175 q 730 369 730 290 l 730 963 l 824 963 l 824 357 q 805 209 824 277 q 744 88 786 140 q 635 8 703 37 q 472 -21 568 -21 m 546 1231 l 371 1025 l 317 1065 l 482 1290 l 546 1231 m 764 1231 l 589 1025 l 535 1065 l 700 1290 l 764 1231 "},"¶":{"x_min":64,"x_max":716,"ha":856,"o":"m 635 886 q 582 890 615 888 q 524 893 550 893 q 500 892 512 893 q 481 890 487 891 l 481 -257 l 400 -257 l 400 367 q 261 393 323 372 q 154 451 198 414 q 87 541 111 487 q 64 666 64 594 q 96 800 64 743 q 187 895 129 857 q 327 952 246 933 q 506 971 408 971 q 608 967 550 971 q 716 952 667 964 l 716 -257 l 635 -257 l 635 886 "},"Ή":{"x_min":-34,"x_max":930,"ha":1056,"o":"m 836 963 l 930 963 l 930 0 l 836 0 l 836 463 l 313 463 l 313 0 l 219 0 l 219 963 l 313 963 l 313 545 l 836 545 l 836 963 m 128 955 l 36 689 l -34 706 l 28 979 l 128 955 "},"Ὅ":{"x_min":-35,"x_max":1253,"ha":1339,"o":"m 1253 481 q 1216 263 1253 358 q 1118 106 1180 169 q 975 10 1057 42 q 801 -21 893 -21 q 627 10 709 -21 q 484 106 545 42 q 386 263 422 169 q 350 481 350 358 q 386 699 350 605 q 484 855 422 792 q 627 951 545 919 q 801 983 709 983 q 975 951 893 983 q 1118 855 1057 919 q 1216 699 1180 792 q 1253 481 1253 605 m 1153 481 q 1127 655 1153 578 q 1057 786 1102 732 q 946 869 1011 841 q 801 898 882 898 q 656 869 720 898 q 545 786 591 841 q 475 655 500 732 q 450 481 450 578 q 475 307 450 384 q 545 176 500 230 q 656 93 591 122 q 801 64 720 64 q 946 93 882 64 q 1057 176 1011 122 q 1127 307 1102 230 q 1153 481 1153 384 m 345 979 l 425 924 l 245 699 l 190 739 l 345 979 m 119 699 q 62 742 90 718 q 13 793 34 767 q -21 846 -8 819 q -35 898 -35 873 q -14 956 -35 934 q 41 978 6 978 q 92 957 74 978 q 111 908 111 936 q 97 869 111 886 q 62 844 84 851 q 100 791 75 818 q 157 739 125 764 l 119 699 "},"­":{"x_min":39,"x_max":353,"ha":392,"o":"m 39 446 l 353 446 l 353 358 l 39 358 l 39 446 "},"":{"x_min":46,"x_max":622,"ha":696,"o":"m 279 62 q 468 116 411 62 q 525 264 525 171 q 502 366 525 325 q 439 430 479 406 q 348 465 400 455 q 237 476 296 476 l 224 476 l 224 551 l 255 551 q 332 558 293 551 q 404 587 372 566 q 458 642 437 608 q 480 731 480 677 q 464 810 480 777 q 423 862 449 842 q 364 890 398 881 q 293 900 330 900 q 176 879 218 900 q 108 840 135 858 l 70 910 q 105 933 83 920 q 155 956 126 945 q 220 975 185 967 q 297 983 255 983 q 421 964 369 983 q 508 914 473 946 q 559 836 542 881 q 576 738 576 791 q 531 600 576 654 q 415 523 486 547 q 490 493 454 513 q 556 442 527 473 q 603 366 585 410 q 622 262 622 322 q 600 149 622 201 q 536 60 578 98 q 429 0 494 22 q 276 -21 363 -21 q 192 -14 230 -21 q 125 0 154 -8 q 75 16 95 8 q 46 30 55 24 l 69 110 q 97 96 77 105 q 143 80 116 88 q 204 67 170 73 q 279 62 239 62 "},"Ὴ":{"x_min":-50,"x_max":1004,"ha":1129,"o":"m 910 963 l 1004 963 l 1004 0 l 910 0 l 910 463 l 387 463 l 387 0 l 293 0 l 293 963 l 387 963 l 387 545 l 910 545 l 910 963 m 13 974 l 233 762 l 187 710 l -50 903 l 13 974 "},":":{"x_min":94,"x_max":247,"ha":341,"o":"m 247 59 q 226 5 247 27 q 170 -17 206 -17 q 114 5 134 -17 q 94 59 94 27 q 114 113 94 91 q 170 136 134 136 q 226 113 206 136 q 247 59 247 91 m 247 641 q 226 587 247 609 q 170 565 206 565 q 114 587 134 565 q 94 641 94 609 q 114 695 94 673 q 170 718 134 718 q 226 695 206 718 q 247 641 247 673 "},"Ѝ":{"x_min":125,"x_max":860,"ha":985,"o":"m 125 0 l 125 963 l 218 963 l 218 179 q 329 357 261 255 q 474 568 396 460 q 633 779 552 675 q 785 963 713 883 l 860 963 l 860 0 l 767 0 l 766 810 q 676 697 726 762 q 572 558 625 633 q 464 406 518 484 q 361 253 409 327 q 272 113 313 178 q 204 0 231 48 l 125 0 m 364 1291 l 584 1079 l 538 1027 l 301 1220 l 364 1291 "},"ǲ":{"x_min":125,"x_max":1553,"ha":1607,"o":"m 889 482 q 850 266 889 358 q 741 114 811 175 q 573 22 670 53 q 359 -8 476 -8 q 237 -1 301 -8 q 125 17 173 4 l 125 944 q 237 964 173 958 q 359 971 301 971 q 573 940 476 971 q 741 848 670 909 q 850 696 811 787 q 889 482 889 604 m 219 83 q 261 78 227 82 q 370 74 295 74 q 552 102 474 74 q 683 183 630 130 q 762 312 736 236 q 789 482 789 387 q 762 651 789 576 q 683 779 736 726 q 552 860 630 832 q 370 889 474 889 q 261 884 295 889 q 219 879 227 880 l 219 83 m 1540 644 q 1456 544 1507 608 q 1347 401 1405 480 q 1232 237 1289 323 q 1132 76 1175 152 l 1553 76 l 1553 0 l 1028 0 l 1028 64 q 1117 214 1064 132 q 1228 376 1171 296 q 1339 527 1285 456 q 1430 642 1393 597 l 1049 642 l 1049 718 l 1540 718 l 1540 644 "},"Ƨ":{"x_min":50,"x_max":670,"ha":718,"o":"m 385 61 q 474 67 434 61 q 546 85 514 74 q 602 106 578 95 q 639 126 625 117 l 670 44 q 630 24 656 35 q 568 3 604 13 q 486 -14 532 -7 q 384 -21 439 -21 q 138 44 226 -21 q 50 240 50 109 q 72 352 50 306 q 132 430 94 398 q 221 485 170 462 q 328 533 272 509 q 416 570 376 552 q 485 610 456 588 q 531 663 514 633 q 548 738 548 694 q 532 812 548 781 q 488 862 516 842 q 422 891 460 882 q 338 901 384 901 q 214 884 271 901 q 116 839 156 867 l 83 919 q 128 942 101 931 q 188 962 155 953 q 260 977 221 971 q 337 983 298 983 q 564 919 484 983 q 644 731 644 855 q 626 637 644 677 q 575 565 609 596 q 494 509 542 534 q 387 460 446 484 q 297 424 340 441 q 220 382 254 406 q 168 322 187 358 q 149 234 149 287 q 211 101 149 142 q 385 61 273 61 "},"У":{"x_min":25,"x_max":750.96875,"ha":765,"o":"m 431 337 q 490 480 460 402 q 550 639 521 557 q 605 805 579 722 q 650 963 631 888 l 750 963 q 693 781 721 867 q 635 616 665 696 q 574 459 606 536 q 507 304 542 382 q 459 198 486 254 q 394 96 433 142 q 299 19 355 49 q 160 -10 242 -10 q 97 -2 124 -10 q 58 12 70 5 l 76 89 q 107 76 85 84 q 166 69 130 69 q 248 83 213 69 q 309 121 284 98 q 354 177 335 145 q 388 244 373 209 q 271 440 325 341 q 171 632 217 539 q 90 809 126 725 q 25 963 53 893 l 130 963 q 254 671 178 835 q 431 337 329 507 "},"ᾢ":{"x_min":86,"x_max":1072,"ha":1158,"o":"m 624 583 l 624 376 q 627 282 624 334 q 647 183 630 230 q 698 103 664 135 q 793 72 732 72 q 930 138 883 72 q 978 347 978 204 q 962 477 978 417 q 925 582 946 537 q 884 656 904 627 q 858 697 865 686 l 940 732 q 971 685 949 719 q 1016 601 994 651 q 1055 485 1038 551 q 1072 344 1072 420 q 1051 178 1072 246 q 993 68 1030 110 q 906 6 956 25 q 794 -13 855 -13 q 667 18 722 -13 q 578 128 611 49 q 490 18 545 49 q 363 -13 435 -13 q 251 6 302 -13 q 164 68 201 25 q 106 178 127 110 q 86 344 86 246 q 102 485 86 420 q 141 601 119 551 q 186 685 163 651 q 217 732 208 719 l 299 697 q 273 656 292 686 q 232 582 253 627 q 195 477 211 537 q 180 347 180 417 q 227 138 180 204 q 364 72 274 72 q 459 103 425 72 q 510 183 493 135 q 530 282 527 230 q 534 376 534 334 l 534 583 l 624 583 m 341 839 q 397 891 372 864 q 435 944 422 918 q 400 969 413 951 q 387 1008 387 986 q 405 1057 387 1036 q 456 1078 423 1078 q 512 1056 491 1078 q 533 998 533 1034 q 519 946 533 973 q 484 893 506 919 q 435 842 463 867 q 378 799 407 818 l 341 839 m 817 839 l 761 799 l 582 1024 l 661 1079 l 817 839 m 623 -94 q 644 -169 623 -145 q 726 -193 666 -193 l 726 -252 q 706 -256 719 -255 q 682 -258 694 -258 q 574 -216 616 -258 q 532 -99 532 -174 q 532 -88 532 -95 q 534 -76 532 -81 l 623 -76 l 623 -94 "},"ү":{"x_min":28,"x_max":639,"ha":667,"o":"m 336 99 q 396 236 365 159 q 455 395 426 312 q 507 561 483 477 q 548 718 532 644 l 639 718 q 583 524 613 620 q 518 337 552 427 q 447 161 483 246 q 378 3 411 76 l 378 -257 l 288 -257 l 288 6 q 147 339 217 155 q 28 718 76 523 l 123 718 q 165 560 140 644 q 218 394 189 476 q 277 234 246 311 q 336 99 308 157 "},"Ί":{"x_min":-34,"x_max":313,"ha":439,"o":"m 219 963 l 313 963 l 313 0 l 219 0 l 219 963 m 128 955 l 36 689 l -34 706 l 28 979 l 128 955 "},"⁶":{"x_min":64,"x_max":443,"ha":499,"o":"m 149 744 q 206 762 178 758 q 252 767 233 767 q 342 753 305 767 q 401 717 379 740 q 433 665 423 694 q 443 604 443 636 q 431 542 443 573 q 398 485 420 511 q 340 443 376 459 q 258 428 305 428 q 111 489 158 428 q 64 654 64 550 q 153 889 64 809 q 396 975 242 969 l 405 910 q 232 864 300 907 q 149 744 163 821 m 141 684 q 140 671 140 677 q 140 659 140 665 q 145 593 140 623 q 164 539 151 562 q 199 504 177 516 q 256 492 221 492 q 305 501 285 492 q 339 526 326 511 q 358 561 352 541 q 365 600 365 580 q 337 679 365 655 q 253 704 310 704 q 192 699 223 704 q 141 684 162 694 "},"⅓":{"x_min":85.5,"x_max":1120,"ha":1203,"o":"m 103 803 l 85 861 q 182 903 134 876 q 265 971 231 930 l 317 971 l 317 440 l 242 440 l 242 862 q 206 841 226 851 q 167 823 186 832 q 130 809 147 815 q 103 803 113 804 m 830 963 l 922 963 l 372 0 l 281 0 l 830 963 m 907 57 q 1014 84 986 57 q 1042 151 1042 111 q 1028 199 1042 180 q 992 231 1014 219 q 940 249 970 244 q 880 254 910 254 l 862 254 l 862 317 l 882 317 q 931 320 907 317 q 973 334 955 323 q 1002 361 991 344 q 1014 405 1014 377 q 988 462 1014 445 q 919 479 962 479 q 844 465 875 479 q 795 440 813 452 l 768 498 q 823 527 783 510 q 922 544 863 544 q 1050 507 1012 544 q 1089 412 1089 470 q 1004 291 1089 326 q 1088 241 1056 276 q 1120 148 1120 206 q 1108 87 1120 116 q 1071 37 1096 59 q 1006 2 1046 15 q 911 -10 967 -10 q 823 0 858 -10 q 767 19 789 8 l 785 84 q 834 66 804 75 q 907 57 864 57 "},"Ģ":{"x_min":86,"x_max":820,"ha":914,"o":"m 726 456 l 820 456 l 820 26 q 716 -1 793 15 q 526 -19 639 -19 q 351 14 432 -19 q 211 110 270 47 q 119 267 152 173 q 86 482 86 361 q 122 696 86 602 q 220 853 158 790 q 363 949 281 916 q 539 983 445 983 q 715 960 646 983 q 817 916 785 937 l 785 835 q 679 880 746 863 q 534 898 612 898 q 398 871 462 898 q 287 792 334 845 q 213 662 240 739 q 186 481 186 584 q 208 308 186 385 q 275 177 230 231 q 387 93 321 122 q 542 64 454 64 q 661 71 613 64 q 726 86 709 79 l 726 456 m 466 -94 l 466 -76 l 555 -76 q 556 -88 556 -81 q 556 -99 556 -95 q 514 -216 556 -174 q 406 -258 472 -258 q 382 -256 395 -258 q 363 -252 369 -255 l 363 -193 q 444 -169 422 -193 q 466 -94 466 -145 "},"ᾇ":{"x_min":76,"x_max":796.109375,"ha":831,"o":"m 626 57 q 539 7 591 29 q 412 -15 487 -15 q 264 14 327 -15 q 159 93 201 43 q 96 211 117 143 q 76 357 76 279 q 101 516 76 445 q 175 634 127 586 q 290 707 223 682 q 438 732 356 732 q 518 727 480 732 q 589 716 557 722 q 646 702 622 709 q 685 688 671 694 l 685 175 q 691 121 685 141 q 712 89 698 100 q 747 71 726 77 q 796 62 768 66 l 783 -13 q 626 57 671 -8 m 595 626 q 576 631 590 627 q 542 640 563 636 q 497 647 522 644 q 446 650 472 650 q 244 575 316 650 q 172 357 172 500 q 183 246 172 298 q 224 154 195 194 q 298 90 252 114 q 412 67 344 67 q 476 73 446 67 q 531 90 507 80 q 574 111 556 100 q 601 130 592 122 q 595 196 595 161 l 595 626 m 492 799 q 453 822 477 807 q 406 859 429 837 q 367 907 384 880 q 350 964 350 933 q 369 1020 350 1001 q 417 1039 388 1039 q 466 1020 450 1039 q 481 976 481 1001 q 445 917 481 939 q 472 878 452 899 q 523 839 493 858 l 492 799 m 417 1149 q 359 1137 381 1149 q 326 1109 338 1125 q 309 1077 314 1093 q 305 1052 305 1061 l 245 1052 q 257 1128 243 1096 q 295 1182 271 1161 q 352 1213 320 1203 q 417 1224 384 1224 q 482 1213 450 1224 q 539 1182 514 1203 q 577 1128 563 1161 q 590 1052 591 1096 l 530 1052 q 525 1077 530 1061 q 508 1109 520 1093 q 474 1137 496 1125 q 417 1149 452 1149 m 459 -94 q 480 -169 459 -145 q 562 -193 502 -193 l 562 -252 q 542 -256 555 -255 q 518 -258 530 -258 q 410 -216 452 -258 q 368 -99 368 -174 q 368 -88 368 -95 q 370 -76 368 -81 l 459 -76 l 459 -94 "},"m":{"x_min":119,"x_max":1087,"ha":1198,"o":"m 119 693 q 223 718 159 704 q 391 732 288 732 q 588 652 527 732 q 615 671 595 658 q 666 698 635 684 q 737 722 696 712 q 828 732 778 732 q 961 707 910 732 q 1039 639 1012 683 q 1077 534 1067 595 q 1087 401 1087 473 l 1087 0 l 997 0 l 997 372 q 990 495 997 443 q 965 581 984 547 q 912 632 946 615 q 821 650 877 650 q 746 642 780 650 q 687 623 712 634 q 646 601 662 612 q 623 584 630 590 q 641 503 635 548 q 648 408 648 458 l 648 0 l 558 0 l 558 372 q 551 495 558 443 q 526 581 545 547 q 471 632 506 615 q 377 650 435 650 q 266 643 311 650 q 209 630 221 636 l 209 0 l 119 0 l 119 693 "},"ǌ":{"x_min":119,"x_max":1019.84375,"ha":1120,"o":"m 119 693 q 227 718 159 704 q 394 732 295 732 q 531 708 476 732 q 618 641 585 684 q 665 536 651 597 q 679 401 679 475 l 679 0 l 589 0 l 589 372 q 578 501 589 448 q 543 587 568 554 q 479 635 519 620 q 380 650 440 650 q 269 643 316 650 q 209 630 222 636 l 209 0 l 119 0 l 119 693 m 774 -260 q 736 -255 758 -260 q 702 -246 713 -251 l 714 -172 q 740 -178 724 -175 q 772 -181 757 -181 q 881 -135 854 -181 q 909 2 909 -89 l 909 718 l 999 718 l 999 6 q 947 -194 999 -129 q 774 -260 896 -260 m 1019 934 q 1000 883 1019 902 q 953 865 981 865 q 906 883 925 865 q 886 934 886 902 q 906 985 886 966 q 953 1004 925 1004 q 1000 985 981 1004 q 1019 934 1019 966 "},"⁵":{"x_min":64,"x_max":424,"ha":499,"o":"m 424 590 q 373 474 424 519 q 208 429 322 429 q 125 438 166 429 q 64 459 83 448 l 79 523 q 101 514 87 519 q 133 504 115 509 q 170 496 151 499 q 208 493 190 493 q 278 501 251 493 q 320 523 305 509 q 340 554 334 537 q 346 587 346 570 q 336 632 346 611 q 302 670 327 654 q 228 697 276 687 q 102 707 181 707 q 118 836 111 776 q 128 971 125 895 l 398 971 l 398 904 l 192 904 q 186 836 189 872 q 177 767 183 801 q 364 715 304 758 q 424 590 424 672 "},"ὀ":{"x_min":76,"x_max":732,"ha":808,"o":"m 732 358 q 707 204 732 273 q 639 85 683 134 q 536 10 595 37 q 404 -17 476 -17 q 271 10 331 -17 q 168 85 212 37 q 100 204 124 134 q 76 358 76 273 q 100 512 76 443 q 168 631 124 582 q 271 707 212 680 q 404 735 331 735 q 536 707 476 735 q 639 631 595 680 q 707 512 683 582 q 732 358 732 443 m 636 358 q 573 573 636 493 q 404 653 510 653 q 234 573 297 653 q 172 358 172 493 q 234 144 172 223 q 404 65 297 65 q 573 144 510 65 q 636 358 636 223 m 312 839 q 368 891 343 864 q 406 944 393 918 q 371 969 384 951 q 358 1008 358 986 q 376 1057 358 1036 q 427 1078 394 1078 q 483 1056 462 1078 q 504 998 504 1034 q 490 946 504 973 q 455 893 477 919 q 406 842 434 867 q 349 799 378 818 l 312 839 "},"á":{"x_min":67,"x_max":596,"ha":707,"o":"m 346 66 q 438 69 399 66 q 506 78 478 72 l 506 330 q 457 345 490 337 q 365 353 424 353 q 296 348 332 353 q 229 327 260 343 q 179 283 198 311 q 160 210 160 255 q 173 142 160 169 q 210 97 186 114 q 269 73 235 81 q 346 66 303 66 m 337 735 q 457 714 408 735 q 537 659 507 694 q 582 575 568 623 q 596 469 596 526 l 596 16 q 555 7 582 12 q 494 -2 529 3 q 417 -11 459 -8 q 330 -15 375 -15 q 225 -2 273 -15 q 142 37 178 10 q 87 106 107 64 q 67 210 67 148 q 89 310 67 268 q 151 378 111 351 q 247 418 192 405 q 368 431 303 431 q 409 428 387 431 q 451 423 430 426 q 485 416 471 419 q 506 410 500 412 l 506 454 q 500 527 506 491 q 476 590 494 562 q 423 636 457 619 q 333 654 389 654 q 215 642 254 654 q 158 624 176 631 l 146 704 q 218 725 169 715 q 337 735 268 735 m 552 1003 l 314 810 l 269 862 l 488 1074 l 552 1003 "},"ɍ":{"x_min":24,"x_max":514,"ha":531,"o":"m 375 732 q 459 725 419 732 q 514 711 498 718 l 495 632 q 450 644 484 638 q 361 651 416 651 q 267 642 302 651 q 221 628 232 634 l 221 371 l 436 371 l 436 297 l 221 297 l 221 0 l 131 0 l 131 297 l 24 297 l 24 371 l 131 371 l 131 684 q 226 716 165 700 q 375 732 287 732 "},"Ӱ":{"x_min":25,"x_max":750.96875,"ha":765,"o":"m 431 337 q 490 480 460 402 q 550 639 521 557 q 605 805 579 722 q 650 963 631 888 l 750 963 q 693 781 721 867 q 635 616 665 696 q 574 459 606 536 q 507 304 542 382 q 459 198 486 254 q 394 96 433 142 q 299 19 355 49 q 160 -10 242 -10 q 97 -2 124 -10 q 58 12 70 5 l 76 89 q 107 76 85 84 q 166 69 130 69 q 248 83 213 69 q 309 121 284 98 q 354 177 335 145 q 388 244 373 209 q 271 440 325 341 q 171 632 217 539 q 90 809 126 725 q 25 963 53 893 l 130 963 q 254 671 178 835 q 431 337 329 507 m 344 1151 q 325 1103 344 1121 q 280 1085 307 1085 q 234 1103 252 1085 q 216 1151 216 1121 q 234 1199 216 1181 q 280 1218 252 1218 q 325 1199 307 1218 q 344 1151 344 1181 m 583 1151 q 564 1103 583 1121 q 519 1085 546 1085 q 473 1103 491 1085 q 455 1151 455 1121 q 473 1199 455 1181 q 519 1218 491 1218 q 564 1199 546 1218 q 583 1151 583 1181 "},"ӆ":{"x_min":19.5,"x_max":773.578125,"ha":806,"o":"m 333 642 l 333 612 q 331 521 333 571 q 326 420 330 472 q 312 318 321 369 q 289 223 303 267 q 251 136 274 177 q 197 64 228 95 q 124 12 165 32 q 32 -13 83 -7 l 19 62 q 131 118 89 77 q 201 237 174 160 q 237 412 229 313 q 245 630 245 512 l 245 718 l 687 718 l 687 76 l 773 76 q 765 -21 775 24 q 736 -108 754 -68 q 693 -178 717 -147 q 645 -231 668 -210 l 582 -185 q 607 -157 591 -176 q 638 -112 622 -137 q 666 -58 654 -87 q 681 0 678 -29 l 597 0 l 597 642 l 333 642 "},"K":{"x_min":125,"x_max":818,"ha":832,"o":"m 712 0 q 605 142 664 72 q 481 276 546 213 q 348 390 416 338 q 219 476 281 441 l 219 0 l 125 0 l 125 963 l 219 963 l 219 513 q 336 622 271 560 q 464 747 401 684 q 583 867 527 809 q 672 963 638 924 l 786 963 q 688 860 745 919 q 567 739 631 801 q 440 615 503 676 q 327 509 377 555 q 413 447 367 484 q 508 367 460 410 q 603 275 556 323 q 690 179 649 227 q 764 84 731 130 q 818 0 797 38 l 712 0 "},"7":{"x_min":96,"x_max":681,"ha":783,"o":"m 243 0 q 285 244 251 115 q 368 494 319 373 q 475 717 417 615 q 587 880 532 818 l 96 880 l 96 963 l 681 963 l 680 882 q 576 730 632 825 q 470 516 520 635 q 384 264 420 397 q 339 0 347 130 l 243 0 "},"¨":{"x_min":78,"x_max":445,"ha":522,"o":"m 206 934 q 187 886 206 904 q 142 868 169 868 q 96 886 114 868 q 78 934 78 904 q 96 982 78 964 q 142 1001 114 1001 q 187 982 169 1001 q 206 934 206 964 m 445 934 q 426 886 445 904 q 381 868 408 868 q 335 886 353 868 q 317 934 317 904 q 335 982 317 964 q 381 1001 353 1001 q 426 982 408 1001 q 445 934 445 964 "},"Y":{"x_min":14,"x_max":776,"ha":790,"o":"m 349 0 l 349 396 q 167 688 250 547 q 14 963 84 829 l 124 963 q 252 714 182 840 q 398 475 322 589 q 542 714 471 589 q 673 963 613 840 l 776 963 q 620 688 702 831 q 443 399 538 546 l 443 0 l 349 0 "},"E":{"x_min":125,"x_max":717,"ha":771,"o":"m 125 0 l 125 963 l 681 963 l 681 881 l 219 881 l 219 547 l 631 547 l 631 466 l 219 466 l 219 82 l 717 82 l 717 0 l 125 0 "},"Ô":{"x_min":86,"x_max":989,"ha":1075,"o":"m 989 481 q 952 263 989 358 q 854 106 916 169 q 711 10 793 42 q 537 -21 629 -21 q 363 10 445 -21 q 220 106 281 42 q 122 263 158 169 q 86 481 86 358 q 122 699 86 605 q 220 855 158 792 q 363 951 281 919 q 537 983 445 983 q 711 951 629 983 q 854 855 793 919 q 952 699 916 792 q 989 481 989 605 m 889 481 q 863 655 889 578 q 793 786 838 732 q 682 869 747 841 q 537 898 618 898 q 392 869 456 898 q 281 786 327 841 q 211 655 236 732 q 186 481 186 578 q 211 307 186 384 q 281 176 236 230 q 392 93 327 122 q 537 64 456 64 q 682 93 618 64 q 793 176 747 122 q 863 307 838 230 q 889 481 889 384 m 392 1028 l 354 1071 l 537 1275 l 721 1071 l 682 1028 l 537 1161 l 392 1028 "},"έ":{"x_min":78,"x_max":639,"ha":692,"o":"m 379 65 q 460 70 422 65 q 528 84 498 76 q 579 101 558 92 q 609 116 601 110 l 639 37 q 604 21 627 30 q 548 3 582 12 q 470 -10 514 -4 q 377 -17 427 -17 q 156 35 234 -15 q 78 188 78 87 q 118 316 78 271 q 227 381 159 362 q 142 434 179 396 q 106 534 106 473 q 180 682 106 632 q 391 733 254 733 q 526 720 472 733 q 600 698 580 708 l 579 617 q 515 639 562 624 q 389 654 468 654 q 319 648 354 654 q 258 628 285 642 q 214 591 231 615 q 198 531 198 567 q 218 469 198 492 q 266 434 238 446 q 326 418 294 421 q 382 415 358 415 l 475 415 l 475 339 l 375 339 q 310 334 345 339 q 243 313 275 329 q 191 270 212 298 q 171 195 171 243 q 226 97 171 130 q 379 65 282 65 m 551 1003 l 313 810 l 268 862 l 487 1074 l 551 1003 "},"ὺ":{"x_min":111,"x_max":678,"ha":789,"o":"m 394 -15 q 259 9 313 -15 q 172 75 205 33 q 124 177 138 118 q 111 305 111 236 l 111 718 l 201 718 l 201 313 q 214 199 201 245 q 251 123 227 152 q 312 81 276 94 q 394 68 348 68 q 476 81 440 68 q 537 123 512 94 q 574 199 561 152 q 588 313 588 245 l 588 718 l 678 718 l 678 305 q 664 177 678 236 q 616 75 650 118 q 529 9 583 33 q 394 -15 475 -15 m 266 1074 l 486 862 l 440 810 l 203 1003 l 266 1074 "},"Ƥ":{"x_min":28,"x_max":887,"ha":938,"o":"m 474 971 q 786 893 685 971 q 887 672 887 815 q 857 532 887 590 q 774 439 828 474 q 641 387 719 403 q 463 372 562 372 l 333 372 l 333 0 l 239 0 l 239 882 q 140 843 170 877 q 109 743 109 808 q 110 724 109 736 q 114 699 111 711 l 36 688 q 30 720 33 699 q 28 754 28 742 q 57 867 28 825 q 144 932 87 909 q 284 963 201 955 q 474 971 367 971 m 479 889 q 398 889 440 889 q 333 886 356 889 l 333 454 l 452 454 q 591 463 529 454 q 696 496 653 472 q 764 563 740 520 q 788 673 788 606 q 762 779 788 737 q 693 845 736 820 q 594 879 650 869 q 479 889 538 889 "},"Є":{"x_min":86,"x_max":807,"ha":846,"o":"m 524 -21 q 352 12 431 -21 q 213 109 272 45 q 120 267 154 173 q 86 481 86 360 q 122 696 86 602 q 220 853 159 789 q 362 950 281 917 q 530 983 443 983 q 629 976 584 983 q 706 958 673 969 q 763 937 740 948 q 800 919 787 927 l 769 836 q 681 877 734 857 q 548 898 627 898 q 400 871 465 898 q 290 797 336 845 q 219 681 245 749 q 187 532 192 613 l 624 532 l 624 451 l 186 451 q 214 290 190 362 q 283 168 238 219 q 390 91 327 118 q 533 64 452 64 q 686 81 625 64 q 780 116 748 98 l 807 35 q 773 19 797 29 q 713 1 750 10 q 630 -14 677 -8 q 524 -21 583 -21 "},"Ï":{"x_min":-10,"x_max":357,"ha":344,"o":"m 125 963 l 219 963 l 219 0 l 125 0 l 125 963 m 118 1151 q 99 1103 118 1121 q 54 1085 81 1085 q 8 1103 26 1085 q -10 1151 -10 1121 q 8 1199 -10 1181 q 54 1218 26 1218 q 99 1199 81 1218 q 118 1151 118 1181 m 357 1151 q 338 1103 357 1121 q 293 1085 320 1085 q 247 1103 265 1085 q 229 1151 229 1121 q 247 1199 229 1181 q 293 1218 265 1218 q 338 1199 320 1218 q 357 1151 357 1181 "},"Ȅ":{"x_min":111,"x_max":717,"ha":771,"o":"m 125 0 l 125 963 l 681 963 l 681 881 l 219 881 l 219 547 l 631 547 l 631 466 l 219 466 l 219 82 l 717 82 l 717 0 l 125 0 m 392 1290 l 558 1065 l 503 1025 l 329 1231 l 392 1290 m 174 1290 l 340 1065 l 285 1025 l 111 1231 l 174 1290 "},"ῶ":{"x_min":86,"x_max":1072,"ha":1158,"o":"m 624 583 l 624 376 q 627 282 624 334 q 647 183 630 230 q 698 103 664 135 q 793 72 732 72 q 930 138 883 72 q 978 347 978 204 q 962 477 978 417 q 925 582 946 537 q 884 656 904 627 q 858 697 865 686 l 940 732 q 971 685 949 719 q 1016 601 994 651 q 1055 485 1038 551 q 1072 344 1072 420 q 1051 178 1072 246 q 993 68 1030 110 q 906 6 956 25 q 794 -13 855 -13 q 667 18 722 -13 q 578 128 611 49 q 490 18 545 49 q 363 -13 435 -13 q 251 6 302 -13 q 164 68 201 25 q 106 178 127 110 q 86 344 86 246 q 102 485 86 420 q 141 601 119 551 q 186 685 163 651 q 217 732 208 719 l 299 697 q 273 656 292 686 q 232 582 253 627 q 195 477 211 537 q 180 347 180 417 q 227 138 180 204 q 364 72 274 72 q 459 103 425 72 q 510 183 493 135 q 530 282 527 230 q 534 376 534 334 l 534 583 l 624 583 m 579 1036 q 644 1024 612 1036 q 699 991 675 1013 q 737 933 723 969 q 749 851 750 898 l 689 851 q 685 878 689 860 q 670 914 682 896 q 638 944 659 931 q 579 958 616 958 q 520 944 542 958 q 488 914 499 931 q 473 878 476 896 q 470 851 470 860 l 410 851 q 421 933 408 898 q 459 991 435 969 q 514 1024 483 1013 q 579 1036 546 1036 "},"έ":{"x_min":78,"x_max":639,"ha":692,"o":"m 379 65 q 460 70 422 65 q 528 84 498 76 q 579 101 558 92 q 609 116 601 110 l 639 37 q 604 21 627 30 q 548 3 582 12 q 470 -10 514 -4 q 377 -17 427 -17 q 156 35 234 -15 q 78 188 78 87 q 118 316 78 271 q 227 381 159 362 q 142 434 179 396 q 106 534 106 473 q 180 682 106 632 q 391 733 254 733 q 526 720 472 733 q 600 698 580 708 l 579 617 q 515 639 562 624 q 389 654 468 654 q 319 648 354 654 q 258 628 285 642 q 214 591 231 615 q 198 531 198 567 q 218 469 198 492 q 266 434 238 446 q 326 418 294 421 q 382 415 358 415 l 475 415 l 475 339 l 375 339 q 310 334 345 339 q 243 313 275 329 q 191 270 212 298 q 171 195 171 243 q 226 97 171 130 q 379 65 282 65 m 429 1080 l 509 1025 l 329 799 l 274 839 l 429 1080 "},"ȴ":{"x_min":-24.828125,"x_max":512,"ha":495,"o":"m 318 54 q 253 34 278 54 q 205 -14 228 14 l 205 -50 q 236 -147 205 -115 q 320 -179 268 -179 q 401 -145 375 -179 q 427 -62 427 -111 q 400 18 427 -16 q 318 54 374 54 m 22 -238 l -24 -196 l 116 -26 q 115 -4 115 -12 q 115 16 115 3 l 115 1061 l 205 1078 l 205 77 q 265 117 232 105 q 334 130 298 130 q 408 115 375 130 q 464 74 441 100 q 499 13 487 48 q 512 -62 512 -21 q 459 -205 512 -154 q 320 -257 406 -257 q 187 -218 233 -257 q 124 -115 141 -179 l 22 -238 "},"Ɖ":{"x_min":33,"x_max":909,"ha":995,"o":"m 909 482 q 870 266 909 358 q 760 114 831 175 q 593 22 690 53 q 379 -8 495 -8 q 256 -1 320 -8 q 144 17 192 4 l 144 466 l 33 466 l 33 542 l 144 542 l 144 944 q 256 964 192 958 q 379 971 320 971 q 593 940 495 971 q 760 848 690 909 q 870 696 831 787 q 909 482 909 604 m 238 83 q 280 78 246 82 q 389 74 314 74 q 572 102 494 74 q 703 183 650 130 q 782 312 756 236 q 809 482 809 387 q 782 651 809 576 q 703 779 756 726 q 572 860 650 832 q 389 889 494 889 q 280 884 314 889 q 238 879 246 880 l 238 542 l 422 542 l 422 466 l 238 466 l 238 83 "},"ἰ":{"x_min":70,"x_max":311,"ha":351,"o":"m 298 -13 q 218 -1 252 -11 q 161 30 184 9 q 126 86 138 52 q 115 171 115 120 l 115 718 l 205 718 l 205 174 q 211 121 205 141 q 230 89 217 100 q 262 71 242 77 q 311 62 283 66 l 298 -13 m 70 839 q 126 891 101 864 q 164 944 151 918 q 129 969 142 951 q 116 1008 116 986 q 134 1057 116 1036 q 185 1078 152 1078 q 241 1056 220 1078 q 262 998 262 1034 q 248 946 262 973 q 213 893 235 919 q 164 842 192 867 q 107 799 136 818 l 70 839 "},"ϋ":{"x_min":111,"x_max":678,"ha":789,"o":"m 394 -15 q 259 9 313 -15 q 172 75 205 33 q 124 177 138 118 q 111 305 111 236 l 111 718 l 201 718 l 201 313 q 214 199 201 245 q 251 123 227 152 q 312 81 276 94 q 394 68 348 68 q 476 81 440 68 q 537 123 512 94 q 574 199 561 152 q 588 313 588 245 l 588 718 l 678 718 l 678 305 q 664 177 678 236 q 616 75 650 118 q 529 9 583 33 q 394 -15 475 -15 m 339 934 q 320 886 339 904 q 275 868 302 868 q 229 886 247 868 q 211 934 211 904 q 229 982 211 964 q 275 1001 247 1001 q 320 982 302 1001 q 339 934 339 964 m 578 934 q 559 886 578 904 q 514 868 541 868 q 468 886 486 868 q 450 934 450 904 q 468 982 450 964 q 514 1001 486 1001 q 559 982 541 1001 q 578 934 578 964 "},"":{"x_min":64,"x_max":1143,"ha":1203,"o":"m 424 590 q 373 474 424 519 q 208 429 322 429 q 125 438 166 429 q 64 459 83 448 l 79 523 q 101 514 87 519 q 133 504 115 509 q 170 496 151 499 q 208 493 190 493 q 278 501 251 493 q 320 523 305 509 q 340 554 334 537 q 346 587 346 570 q 336 632 346 611 q 302 670 327 654 q 228 697 276 687 q 102 707 181 707 q 118 836 111 776 q 128 971 125 895 l 398 971 l 398 904 l 192 904 q 186 836 189 872 q 177 767 183 801 q 364 715 304 758 q 424 590 424 672 m 830 963 l 922 963 l 372 0 l 281 0 l 830 963 m 917 1 l 843 1 q 867 121 847 55 q 916 251 887 187 q 981 371 945 315 q 1050 463 1016 428 l 767 463 l 767 532 l 1143 532 l 1143 475 q 1077 396 1113 447 q 1005 281 1040 346 q 946 144 971 216 q 917 1 921 71 "},"ἶ":{"x_min":-11.125,"x_max":334.125,"ha":351,"o":"m 298 -13 q 218 -1 252 -11 q 161 30 184 9 q 126 86 138 52 q 115 171 115 120 l 115 718 l 205 718 l 205 174 q 211 121 205 141 q 230 89 217 100 q 262 71 242 77 q 311 62 283 66 l 298 -13 m 56 839 q 106 878 85 858 q 133 917 126 899 q 97 976 97 939 q 112 1020 97 1001 q 161 1039 128 1039 q 209 1020 190 1039 q 228 964 228 1001 q 211 907 228 933 q 172 859 195 880 q 124 822 149 837 q 86 799 100 807 l 56 839 m 161 1149 q 103 1137 125 1149 q 70 1109 82 1125 q 53 1077 58 1093 q 49 1052 49 1061 l -11 1052 q 1 1128 -12 1096 q 39 1182 15 1161 q 96 1213 64 1203 q 161 1224 128 1224 q 226 1213 194 1224 q 283 1182 258 1203 q 321 1128 307 1161 q 334 1052 335 1096 l 274 1052 q 269 1077 274 1061 q 252 1109 264 1093 q 218 1137 240 1125 q 161 1149 196 1149 "},"ἳ":{"x_min":-96,"x_max":341,"ha":351,"o":"m 298 -13 q 218 -1 252 -11 q 161 30 184 9 q 126 86 138 52 q 115 171 115 120 l 115 718 l 205 718 l 205 174 q 211 121 205 141 q 230 89 217 100 q 262 71 242 77 q 311 62 283 66 l 298 -13 m 341 839 l 285 799 l 106 1024 l 185 1079 l 341 839 m 58 799 q 1 842 29 818 q -47 893 -26 867 q -82 946 -69 919 q -96 998 -96 973 q -75 1056 -96 1034 q -19 1078 -54 1078 q 31 1057 13 1078 q 50 1008 50 1036 q 36 969 50 986 q 1 944 23 951 q 38 891 13 918 q 96 839 64 864 l 58 799 "},"Ἐ":{"x_min":-58,"x_max":805,"ha":858,"o":"m 213 0 l 213 963 l 769 963 l 769 881 l 307 881 l 307 547 l 719 547 l 719 466 l 307 466 l 307 82 l 805 82 l 805 0 l 213 0 m -58 739 q -1 791 -26 764 q 36 844 23 818 q 1 869 14 851 q -12 908 -12 886 q 6 957 -12 936 q 57 978 24 978 q 113 956 92 978 q 134 898 134 934 q 120 846 134 873 q 85 793 107 819 q 36 742 64 767 q -20 699 8 718 l -58 739 "},"b":{"x_min":119,"x_max":734,"ha":810,"o":"m 209 674 q 284 712 232 692 q 408 733 337 733 q 546 705 486 733 q 649 627 607 677 q 712 508 690 577 q 734 358 734 439 q 708 201 734 270 q 635 83 682 131 q 524 8 589 34 q 380 -17 459 -17 q 221 -4 284 -17 q 119 21 159 8 l 119 1061 l 209 1078 l 209 674 m 209 84 q 270 71 229 77 q 378 65 312 65 q 566 140 495 65 q 638 358 638 216 q 625 471 638 417 q 585 564 612 524 q 511 627 557 603 q 399 651 466 651 q 338 644 367 651 q 284 628 309 638 q 240 607 259 619 q 209 587 221 596 l 209 84 "},"ύ":{"x_min":111,"x_max":678,"ha":789,"o":"m 394 -15 q 259 9 313 -15 q 172 75 205 33 q 124 177 138 118 q 111 305 111 236 l 111 718 l 201 718 l 201 313 q 214 199 201 245 q 251 123 227 152 q 312 81 276 94 q 394 68 348 68 q 476 81 440 68 q 537 123 512 94 q 574 199 561 152 q 588 313 588 245 l 588 718 l 678 718 l 678 305 q 664 177 678 236 q 616 75 650 118 q 529 9 583 33 q 394 -15 475 -15 m 464 1080 l 544 1025 l 364 799 l 309 839 l 464 1080 "},"ﬂ":{"x_min":119,"x_max":836,"ha":876,"o":"m 382 1078 q 478 1068 441 1078 q 526 1053 514 1059 l 507 974 q 462 989 492 981 q 386 997 432 997 q 250 948 291 997 q 209 792 209 899 l 209 718 l 498 718 l 498 642 l 209 642 l 209 0 l 119 0 l 119 796 q 183 1007 119 936 q 382 1078 248 1078 m 823 -13 q 743 -1 777 -11 q 686 30 709 9 q 651 86 663 52 q 640 171 640 120 l 640 1061 l 730 1078 l 730 174 q 736 121 730 141 q 755 89 742 100 q 787 71 767 77 q 836 62 808 66 l 823 -13 "},"ῦ":{"x_min":111,"x_max":678,"ha":789,"o":"m 394 -15 q 259 9 313 -15 q 172 75 205 33 q 124 177 138 118 q 111 305 111 236 l 111 718 l 201 718 l 201 313 q 214 199 201 245 q 251 123 227 152 q 312 81 276 94 q 394 68 348 68 q 476 81 440 68 q 537 123 512 94 q 574 199 561 152 q 588 313 588 245 l 588 718 l 678 718 l 678 305 q 664 177 678 236 q 616 75 650 118 q 529 9 583 33 q 394 -15 475 -15 m 394 1036 q 459 1024 427 1036 q 514 991 490 1013 q 552 933 538 969 q 564 851 565 898 l 504 851 q 500 878 504 860 q 485 914 497 896 q 453 944 474 931 q 394 958 431 958 q 335 944 357 958 q 303 914 314 931 q 288 878 291 896 q 285 851 285 860 l 225 851 q 236 933 223 898 q 274 991 250 969 q 329 1024 298 1013 q 394 1036 361 1036 "},"ᾱ":{"x_min":76,"x_max":796.109375,"ha":831,"o":"m 626 57 q 539 7 591 29 q 412 -15 487 -15 q 264 14 327 -15 q 159 93 201 43 q 96 211 117 143 q 76 357 76 279 q 101 516 76 445 q 175 634 127 586 q 290 707 223 682 q 438 732 356 732 q 518 727 480 732 q 589 716 557 722 q 646 702 622 709 q 685 688 671 694 l 685 175 q 691 121 685 141 q 712 89 698 100 q 747 71 726 77 q 796 62 768 66 l 783 -13 q 626 57 671 -8 m 595 626 q 576 631 590 627 q 542 640 563 636 q 497 647 522 644 q 446 650 472 650 q 244 575 316 650 q 172 357 172 500 q 183 246 172 298 q 224 154 195 194 q 298 90 252 114 q 412 67 344 67 q 476 73 446 67 q 531 90 507 80 q 574 111 556 100 q 601 130 592 122 q 595 196 595 161 l 595 626 m 235 902 l 235 978 l 603 978 l 603 902 l 235 902 "},"ƞ":{"x_min":119,"x_max":679,"ha":789,"o":"m 119 693 q 227 718 159 704 q 394 732 295 732 q 531 708 476 732 q 618 641 585 684 q 665 536 651 597 q 679 401 679 475 l 679 -256 l 589 -256 l 589 372 q 578 501 589 448 q 543 587 568 554 q 479 635 519 620 q 380 650 440 650 q 269 643 316 650 q 209 630 222 636 l 209 0 l 119 0 l 119 693 "},"Ǌ":{"x_min":125,"x_max":1540,"ha":1661,"o":"m 780 0 q 712 113 753 48 q 623 253 671 178 q 520 406 575 327 q 412 558 466 484 q 308 698 359 633 q 218 810 257 763 l 218 0 l 125 0 l 125 963 l 199 963 q 351 779 271 883 q 510 568 432 675 q 655 357 588 460 q 767 179 723 255 l 767 963 l 860 963 l 860 0 l 780 0 m 1540 302 q 1526 174 1540 233 q 1478 71 1512 115 q 1388 3 1444 27 q 1247 -21 1331 -21 q 1155 -11 1197 -21 q 1082 9 1113 -2 q 1028 35 1050 22 q 996 60 1007 49 l 1040 137 q 1071 113 1052 126 q 1115 89 1090 100 q 1171 70 1140 77 q 1237 64 1201 64 q 1395 120 1344 64 q 1446 312 1446 176 l 1446 963 l 1540 963 l 1540 302 "},"ῼ":{"x_min":78,"x_max":1400,"ha":1440,"o":"m 541 983 q 710 953 630 983 q 851 863 791 923 q 947 715 912 803 q 983 509 983 626 q 964 364 983 430 q 917 244 945 298 q 855 149 889 190 q 790 81 820 108 l 1005 81 l 1005 0 l 652 0 l 652 61 q 742 142 701 97 q 815 243 784 187 q 864 366 846 300 q 883 512 883 433 q 858 673 883 602 q 787 795 833 745 q 680 871 742 845 q 541 898 617 898 q 402 871 465 898 q 295 795 340 845 q 224 673 249 745 q 200 512 200 602 q 218 366 200 433 q 267 243 236 300 q 340 142 298 187 q 430 61 381 97 l 430 0 l 78 0 l 78 81 l 292 81 q 227 149 261 108 q 165 244 193 190 q 118 364 137 298 q 100 509 100 430 q 135 715 100 626 q 231 863 170 803 q 371 953 291 923 q 541 983 451 983 m 1387 -13 q 1307 -1 1341 -11 q 1250 30 1273 9 q 1215 86 1227 52 q 1204 171 1204 120 l 1204 718 l 1294 718 l 1294 174 q 1300 121 1294 141 q 1319 89 1306 100 q 1351 71 1331 77 q 1400 62 1372 66 l 1387 -13 "},"Ʈ":{"x_min":25,"x_max":735,"ha":760,"o":"m 427 -51 q 448 -149 427 -118 q 522 -181 470 -181 q 553 -178 539 -181 q 574 -172 567 -175 l 586 -247 q 555 -255 575 -251 q 511 -260 535 -260 q 418 -242 453 -260 q 364 -195 384 -225 q 339 -124 345 -165 q 333 -36 333 -83 l 333 881 l 25 881 l 25 963 l 735 963 l 735 881 l 427 881 l 427 -51 "},"Ὢ":{"x_min":-61,"x_max":1331,"ha":1410,"o":"m 867 983 q 1036 953 956 983 q 1177 863 1117 923 q 1273 715 1238 803 q 1309 509 1309 626 q 1290 364 1309 430 q 1243 244 1271 298 q 1181 149 1215 190 q 1116 81 1146 108 l 1331 81 l 1331 0 l 978 0 l 978 61 q 1068 142 1027 97 q 1141 243 1110 187 q 1190 366 1172 300 q 1209 512 1209 433 q 1184 673 1209 602 q 1113 795 1159 745 q 1006 871 1068 845 q 867 898 943 898 q 728 871 791 898 q 621 795 666 845 q 550 673 575 745 q 526 512 526 602 q 544 366 526 433 q 593 243 562 300 q 666 142 624 187 q 756 61 707 97 l 756 0 l 404 0 l 404 81 l 618 81 q 553 149 587 108 q 491 244 519 190 q 444 364 463 298 q 426 509 426 430 q 461 715 426 626 q 557 863 496 803 q 697 953 617 923 q 867 983 777 983 m -61 739 q -4 791 -29 764 q 33 844 20 818 q -1 869 11 851 q -15 908 -15 886 q 3 957 -15 936 q 54 978 21 978 q 110 956 89 978 q 131 898 131 934 q 117 846 131 873 q 82 793 104 819 q 33 742 61 767 q -23 699 5 718 l -61 739 m 415 739 l 359 699 l 180 924 l 259 979 l 415 739 "},"ҋ":{"x_min":119,"x_max":783.578125,"ha":822,"o":"m 608 602 q 512 476 567 552 q 400 315 457 399 q 292 147 344 230 q 203 0 241 63 l 119 0 l 119 718 l 208 718 l 208 143 q 291 280 242 202 q 395 439 340 359 q 507 593 450 519 q 612 718 564 666 l 697 718 l 697 76 l 783 76 q 775 -21 785 24 q 746 -108 764 -68 q 703 -178 727 -147 q 655 -231 678 -210 l 592 -185 q 617 -157 602 -176 q 648 -112 632 -137 q 676 -58 664 -87 q 691 0 688 -29 l 608 0 l 608 602 m 408 840 q 280 883 330 840 q 216 1005 229 926 l 290 1025 q 326 947 298 977 q 408 918 355 918 q 489 947 460 918 q 526 1025 517 977 l 600 1005 q 536 883 586 926 q 408 840 485 840 "},"ф":{"x_min":75,"x_max":972,"ha":1047,"o":"m 568 722 q 712 700 640 722 q 842 634 784 678 q 935 521 899 590 q 972 358 972 452 q 935 194 972 263 q 842 81 899 125 q 712 15 784 37 q 568 -6 640 -6 l 568 -257 l 479 -257 l 479 -6 q 334 15 406 -6 q 204 81 262 37 q 111 194 147 125 q 75 358 75 263 q 111 521 75 452 q 204 634 147 590 q 334 700 262 678 q 479 722 406 722 l 479 1061 l 568 1078 l 568 722 m 479 646 q 356 625 413 646 q 257 568 299 605 q 192 478 216 531 q 169 358 169 424 q 192 237 169 291 q 257 147 216 184 q 356 90 299 110 q 479 70 413 70 l 479 646 m 568 70 q 690 90 633 70 q 789 147 747 110 q 854 237 830 184 q 878 358 878 291 q 854 478 878 424 q 789 568 830 531 q 690 625 747 605 q 568 646 633 646 l 568 70 "},"ȭ":{"x_min":76,"x_max":732,"ha":808,"o":"m 732 358 q 707 204 732 273 q 639 85 683 134 q 536 10 595 37 q 404 -17 476 -17 q 271 10 331 -17 q 168 85 212 37 q 100 204 124 134 q 76 358 76 273 q 100 512 76 443 q 168 631 124 582 q 271 707 212 680 q 404 735 331 735 q 536 707 476 735 q 639 631 595 680 q 707 512 683 582 q 732 358 732 443 m 636 358 q 573 573 636 493 q 404 653 510 653 q 234 573 297 653 q 172 358 172 493 q 234 144 172 223 q 404 65 297 65 q 573 144 510 65 q 636 358 636 223 m 231 1108 l 579 1108 l 579 1033 l 231 1033 l 231 1108 m 489 831 q 436 839 461 831 q 389 858 411 847 q 319 881 343 881 q 276 867 293 881 q 246 830 260 853 l 199 852 q 216 885 205 867 q 241 918 226 903 q 275 944 255 934 q 319 955 294 955 q 372 946 347 955 q 419 927 397 938 q 489 905 465 905 q 532 918 515 905 q 562 956 548 932 l 610 933 q 592 900 603 918 q 567 867 582 882 q 533 841 553 851 q 489 831 514 831 "},"Ŋ":{"x_min":125,"x_max":860,"ha":985,"o":"m 767 23 q 696 139 737 74 q 607 277 655 205 q 507 424 559 349 q 403 570 454 499 q 304 703 352 641 q 218 812 256 765 l 218 0 l 125 0 l 125 963 l 201 963 q 352 780 272 884 q 510 568 433 676 q 655 358 588 460 q 767 179 723 255 l 767 963 l 860 963 l 860 -36 q 854 -124 860 -83 q 830 -195 848 -165 q 777 -242 811 -225 q 684 -260 743 -260 q 639 -255 661 -260 q 607 -247 618 -251 l 619 -172 q 640 -178 626 -175 q 671 -181 654 -181 q 745 -149 723 -181 q 767 -51 767 -118 l 767 23 "},"Ũ":{"x_min":121,"x_max":824,"ha":945,"o":"m 472 -21 q 309 8 376 -21 q 200 88 241 37 q 139 209 158 140 q 121 357 121 277 l 121 963 l 215 963 l 215 369 q 233 232 215 290 q 285 137 252 175 q 366 82 319 100 q 472 64 414 64 q 578 82 530 64 q 659 137 625 100 q 711 232 692 175 q 730 369 730 290 l 730 963 l 824 963 l 824 357 q 805 209 824 277 q 744 88 786 140 q 635 8 703 37 q 472 -21 568 -21 m 558 1091 q 503 1100 528 1091 q 454 1121 478 1110 q 411 1140 428 1135 q 381 1145 395 1145 q 335 1125 351 1145 q 304 1083 318 1106 l 252 1108 q 270 1144 258 1124 q 298 1180 282 1163 q 335 1207 314 1196 q 385 1219 357 1219 q 440 1209 415 1219 q 489 1188 465 1199 q 532 1169 515 1174 q 562 1165 549 1165 q 608 1184 592 1165 q 639 1227 625 1203 l 692 1202 q 673 1165 685 1185 q 645 1129 661 1146 q 608 1102 629 1113 q 558 1091 586 1091 "},"L":{"x_min":125,"x_max":672,"ha":697,"o":"m 672 82 l 672 0 l 125 0 l 125 963 l 219 963 l 219 82 l 672 82 "},"ď":{"x_min":76,"x_max":898.328125,"ha":854,"o":"m 691 21 q 588 -4 650 8 q 429 -17 525 -17 q 285 8 350 -17 q 174 83 220 34 q 101 201 127 131 q 76 358 76 270 q 97 508 76 439 q 160 627 119 577 q 263 705 202 677 q 401 733 323 733 q 525 712 472 733 q 601 674 577 692 l 601 1061 l 691 1078 l 691 21 m 601 587 q 569 607 588 596 q 525 628 550 619 q 471 644 500 638 q 410 651 442 651 q 298 627 343 651 q 224 564 252 603 q 184 471 197 524 q 172 358 172 417 q 243 140 172 216 q 431 65 314 65 q 539 71 497 65 q 601 84 580 77 l 601 587 m 898 1077 l 865 776 l 800 776 l 800 1077 l 898 1077 "},"Ο":{"x_min":86,"x_max":989,"ha":1075,"o":"m 989 481 q 952 263 989 358 q 854 106 916 169 q 711 10 793 42 q 537 -21 629 -21 q 363 10 445 -21 q 220 106 281 42 q 122 263 158 169 q 86 481 86 358 q 122 699 86 605 q 220 855 158 792 q 363 951 281 919 q 537 983 445 983 q 711 951 629 983 q 854 855 793 919 q 952 699 916 792 q 989 481 989 605 m 889 481 q 863 655 889 578 q 793 786 838 732 q 682 869 747 841 q 537 898 618 898 q 392 869 456 898 q 281 786 327 841 q 211 655 236 732 q 186 481 186 578 q 211 307 186 384 q 281 176 236 230 q 392 93 327 122 q 537 64 456 64 q 682 93 618 64 q 793 176 747 122 q 863 307 838 230 q 889 481 889 384 "},"ŧ":{"x_min":114,"x_max":521,"ha":538,"o":"m 204 718 l 490 718 l 490 642 l 204 642 l 204 414 l 484 414 l 484 340 l 204 340 l 204 259 q 214 160 204 198 q 244 101 224 122 q 291 73 263 80 q 352 67 319 67 q 444 80 409 67 q 498 104 479 93 l 521 29 q 452 0 501 16 q 347 -15 404 -15 q 235 2 280 -15 q 163 55 190 19 q 125 143 136 90 q 114 268 114 196 l 114 929 l 204 946 l 204 718 "},"À":{"x_min":14,"x_max":876,"ha":890,"o":"m 771 0 q 721 136 745 70 q 675 264 698 201 l 208 264 q 161 136 184 201 q 112 0 137 70 l 14 0 q 118 279 69 149 q 212 525 166 410 q 305 748 259 641 q 401 963 351 855 l 486 963 q 583 748 536 855 q 675 525 629 641 q 770 279 722 409 q 876 0 819 150 l 771 0 m 441 855 q 340 611 388 734 q 238 345 291 487 l 647 345 q 543 611 594 487 q 441 855 493 734 m 317 1291 l 537 1079 l 491 1027 l 254 1220 l 317 1291 "},"Ώ":{"x_min":-65,"x_max":1083,"ha":1161,"o":"m 218 903 l -19 710 l -65 762 l 154 974 l 218 903 m 619 983 q 788 953 708 983 q 929 863 869 923 q 1025 715 990 803 q 1061 509 1061 626 q 1042 364 1061 430 q 995 244 1023 298 q 933 149 967 190 q 868 81 898 108 l 1083 81 l 1083 0 l 730 0 l 730 61 q 820 142 779 97 q 893 243 862 187 q 942 366 924 300 q 961 512 961 433 q 936 673 961 602 q 865 795 911 745 q 758 871 820 845 q 619 898 695 898 q 480 871 543 898 q 373 795 418 845 q 302 673 327 745 q 278 512 278 602 q 296 366 278 433 q 345 243 314 300 q 418 142 376 187 q 508 61 459 97 l 508 0 l 156 0 l 156 81 l 370 81 q 305 149 339 108 q 243 244 271 190 q 196 364 215 298 q 178 509 178 430 q 213 715 178 626 q 309 863 248 803 q 449 953 369 923 q 619 983 529 983 "},"½":{"x_min":85.5,"x_max":1136,"ha":1214,"o":"m 103 803 l 85 861 q 182 903 134 876 q 265 971 231 930 l 317 971 l 317 440 l 242 440 l 242 862 q 206 841 226 851 q 167 823 186 832 q 130 809 147 815 q 103 803 113 804 m 806 963 l 898 963 l 348 0 l 257 0 l 806 963 m 1110 394 q 1099 339 1110 364 q 1072 293 1089 314 q 1034 252 1055 271 q 989 214 1012 232 q 930 163 952 185 q 893 124 907 141 q 875 94 880 108 q 871 68 871 80 l 1136 68 l 1136 1 l 791 1 q 790 14 790 7 q 790 28 790 21 q 803 103 790 70 q 839 162 817 135 q 887 212 860 189 q 938 259 913 235 q 974 290 958 275 q 1004 320 991 305 q 1024 354 1016 336 q 1032 396 1032 372 q 1004 459 1032 442 q 938 477 976 477 q 895 470 915 477 q 858 455 875 464 q 829 437 841 446 q 812 422 818 428 l 775 475 q 841 522 798 500 q 945 544 883 544 q 1066 506 1023 544 q 1110 394 1110 469 "},"'":{"x_min":117,"x_max":217,"ha":333,"o":"m 217 1056 l 217 1003 q 209 862 217 933 q 190 720 202 790 l 143 720 q 124 862 132 790 q 117 1004 117 933 l 117 1056 l 217 1056 "},"Ҽ":{"x_min":28,"x_max":1047.78125,"ha":1131,"o":"m 352 461 q 449 163 357 263 q 697 64 542 64 q 845 81 778 64 q 951 126 912 98 l 982 45 q 878 1 950 24 q 694 -21 807 -21 q 516 10 597 -21 q 378 104 436 42 q 287 254 319 165 q 253 461 254 344 q 163 474 204 463 q 91 509 122 486 q 44 570 61 533 q 28 664 28 608 q 30 698 28 676 q 36 731 33 719 l 114 720 q 110 694 111 707 q 109 675 109 682 q 256 542 109 544 q 300 735 264 652 q 392 873 336 817 q 521 955 449 928 q 675 983 593 983 q 951 862 854 983 q 1047 501 1047 742 q 1047 479 1047 491 q 1045 461 1046 467 l 352 461 m 949 542 q 932 684 949 619 q 880 798 915 750 q 794 872 846 845 q 671 900 742 900 q 531 867 590 900 q 434 782 472 834 q 376 667 396 730 q 352 542 356 604 l 949 542 "},"˛":{"x_min":110,"x_max":325,"ha":522,"o":"m 246 -259 q 140 -231 171 -259 q 110 -161 110 -204 q 132 -85 110 -118 q 186 -23 155 -51 q 207 -5 197 -14 q 229 11 218 4 l 325 11 q 289 -16 308 -1 q 251 -52 270 -32 q 216 -96 229 -76 q 203 -140 203 -116 q 219 -176 203 -165 q 261 -188 236 -188 q 288 -185 273 -188 q 314 -179 303 -183 l 321 -246 q 288 -254 309 -250 q 246 -259 266 -259 "},"":{"x_min":85.5,"x_max":317,"ha":499,"o":"m 103 202 l 85 260 q 182 302 134 275 q 265 370 231 329 l 317 370 l 317 -161 l 242 -161 l 242 261 q 206 240 226 250 q 167 222 186 231 q 130 208 147 214 q 103 202 113 203 "},"ᾲ":{"x_min":76,"x_max":796.109375,"ha":831,"o":"m 626 57 q 539 7 591 29 q 412 -15 487 -15 q 264 14 327 -15 q 159 93 201 43 q 96 211 117 143 q 76 357 76 279 q 101 516 76 445 q 175 634 127 586 q 290 707 223 682 q 438 732 356 732 q 518 727 480 732 q 589 716 557 722 q 646 702 622 709 q 685 688 671 694 l 685 175 q 691 121 685 141 q 712 89 698 100 q 747 71 726 77 q 796 62 768 66 l 783 -13 q 626 57 671 -8 m 595 626 q 576 631 590 627 q 542 640 563 636 q 497 647 522 644 q 446 650 472 650 q 244 575 316 650 q 172 357 172 500 q 183 246 172 298 q 224 154 195 194 q 298 90 252 114 q 412 67 344 67 q 476 73 446 67 q 531 90 507 80 q 574 111 556 100 q 601 130 592 122 q 595 196 595 161 l 595 626 m 289 1074 l 509 862 l 463 810 l 226 1003 l 289 1074 m 459 -94 q 480 -169 459 -145 q 562 -193 502 -193 l 562 -252 q 542 -256 555 -255 q 518 -258 530 -258 q 410 -216 452 -258 q 368 -99 368 -174 q 368 -88 368 -95 q 370 -76 368 -81 l 459 -76 l 459 -94 "},"Ɠ":{"x_min":86,"x_max":986,"ha":921,"o":"m 539 983 q 653 971 607 983 q 728 948 700 960 q 788 1053 746 1019 q 909 1087 830 1087 q 952 1084 931 1087 q 986 1075 973 1081 l 970 1009 q 946 1015 962 1012 q 911 1019 930 1019 q 864 1009 883 1019 q 834 984 845 999 q 816 950 823 970 q 804 913 809 931 l 784 843 q 753 858 775 849 q 701 876 732 867 q 632 891 670 885 q 547 898 593 898 q 401 871 468 898 q 286 792 334 845 q 212 662 238 739 q 186 481 186 584 q 208 308 186 385 q 275 177 230 231 q 387 93 321 122 q 542 64 454 64 q 661 71 613 64 q 726 86 709 79 l 726 456 l 820 456 l 820 26 q 716 -1 793 15 q 526 -19 639 -19 q 351 14 432 -19 q 211 110 270 47 q 119 267 152 173 q 86 482 86 361 q 122 696 86 602 q 220 853 158 790 q 363 949 281 916 q 539 983 445 983 "},"Ć":{"x_min":86,"x_max":807,"ha":846,"o":"m 524 -21 q 352 12 431 -21 q 213 109 272 45 q 120 267 154 173 q 86 481 86 360 q 122 696 86 602 q 220 853 159 789 q 362 950 281 917 q 530 983 443 983 q 629 976 584 983 q 706 958 673 969 q 763 937 740 948 q 800 919 787 927 l 769 836 q 681 877 734 857 q 548 898 627 898 q 390 867 458 898 q 277 781 323 836 q 208 649 231 725 q 186 480 186 573 q 208 307 186 384 q 276 176 231 230 q 385 93 320 122 q 533 64 449 64 q 686 81 625 64 q 780 116 748 98 l 807 35 q 773 19 797 29 q 713 1 750 10 q 630 -14 677 -8 q 524 -21 583 -21 m 694 1220 l 456 1027 l 411 1079 l 630 1291 l 694 1220 "},"£":{"x_min":110,"x_max":733,"ha":783,"o":"m 336 506 l 615 506 l 615 430 l 336 430 l 336 417 q 331 249 336 335 q 313 79 326 163 l 733 79 l 733 0 l 207 0 q 232 196 222 96 q 243 413 243 297 l 243 430 l 110 430 l 110 506 l 243 506 l 243 639 q 263 808 243 742 q 322 913 284 875 q 412 966 360 951 q 527 981 464 981 q 629 969 585 981 q 705 942 673 957 l 680 859 q 516 896 612 896 q 439 884 473 896 q 382 845 405 873 q 347 769 359 816 q 336 651 336 722 l 336 506 "},"ů":{"x_min":111,"x_max":671,"ha":790,"o":"m 671 24 q 562 0 630 13 q 395 -14 494 -14 q 261 9 315 -14 q 173 76 206 33 q 125 180 140 119 q 111 315 111 241 l 111 718 l 201 718 l 201 344 q 212 215 201 268 q 248 129 223 162 q 313 82 273 97 q 409 68 352 68 q 521 74 473 68 q 581 87 568 81 l 581 718 l 671 718 l 671 24 m 523 939 q 512 884 523 908 q 484 842 502 860 q 441 815 466 825 q 391 806 417 806 q 297 842 337 806 q 258 939 258 878 q 297 1034 258 998 q 391 1071 337 1071 q 441 1061 417 1071 q 484 1034 466 1051 q 512 992 502 1016 q 523 939 523 968 m 470 939 q 447 999 470 977 q 391 1021 424 1021 q 334 999 357 1021 q 312 939 312 977 q 334 877 312 898 q 391 857 357 857 q 447 877 424 857 q 470 939 470 898 "},"⅕":{"x_min":85.5,"x_max":1128,"ha":1203,"o":"m 103 803 l 85 861 q 182 903 134 876 q 265 971 231 930 l 317 971 l 317 440 l 242 440 l 242 862 q 206 841 226 851 q 167 823 186 832 q 130 809 147 815 q 103 803 113 804 m 830 963 l 922 963 l 372 0 l 281 0 l 830 963 m 1128 151 q 1077 35 1128 80 q 912 -10 1026 -10 q 829 0 870 -10 q 768 20 787 9 l 783 84 q 805 75 791 80 q 837 65 819 70 q 874 57 855 60 q 912 54 894 54 q 982 62 955 54 q 1024 84 1009 70 q 1044 115 1038 98 q 1050 148 1050 131 q 1040 193 1050 172 q 1006 231 1031 215 q 932 258 980 248 q 806 268 885 268 q 822 397 815 337 q 832 532 829 456 l 1102 532 l 1102 465 l 896 465 q 890 397 893 433 q 881 328 887 362 q 1068 276 1008 319 q 1128 151 1128 233 "},"Ǵ":{"x_min":86,"x_max":820,"ha":914,"o":"m 726 456 l 820 456 l 820 26 q 716 -1 793 15 q 526 -19 639 -19 q 351 14 432 -19 q 211 110 270 47 q 119 267 152 173 q 86 482 86 361 q 122 696 86 602 q 220 853 158 790 q 363 949 281 916 q 539 983 445 983 q 715 960 646 983 q 817 916 785 937 l 785 835 q 679 880 746 863 q 534 898 612 898 q 398 871 462 898 q 287 792 334 845 q 213 662 240 739 q 186 481 186 584 q 208 308 186 385 q 275 177 230 231 q 387 93 321 122 q 542 64 454 64 q 661 71 613 64 q 726 86 709 79 l 726 456 m 701 1220 l 463 1027 l 418 1079 l 637 1291 l 701 1220 "},"Ğ":{"x_min":86,"x_max":820,"ha":914,"o":"m 726 456 l 820 456 l 820 26 q 716 -1 793 15 q 526 -19 639 -19 q 351 14 432 -19 q 211 110 270 47 q 119 267 152 173 q 86 482 86 361 q 122 696 86 602 q 220 853 158 790 q 363 949 281 916 q 539 983 445 983 q 715 960 646 983 q 817 916 785 937 l 785 835 q 679 880 746 863 q 534 898 612 898 q 398 871 462 898 q 287 792 334 845 q 213 662 240 739 q 186 481 186 584 q 208 308 186 385 q 275 177 230 231 q 387 93 321 122 q 542 64 454 64 q 661 71 613 64 q 726 86 709 79 l 726 456 m 509 1068 q 444 1079 476 1068 q 389 1112 413 1090 q 351 1169 365 1134 q 340 1253 338 1204 l 400 1253 q 403 1225 400 1243 q 418 1189 406 1207 q 450 1159 429 1172 q 509 1146 472 1146 q 568 1159 546 1146 q 600 1189 589 1172 q 615 1225 612 1207 q 619 1253 619 1243 l 679 1253 q 667 1169 680 1204 q 629 1112 653 1134 q 574 1079 605 1090 q 509 1068 542 1068 "},"ә":{"x_min":82.21875,"x_max":685,"ha":761,"o":"m 685 360 q 657 195 685 265 q 587 78 630 125 q 487 7 543 30 q 371 -15 430 -15 q 160 71 239 -15 q 82 336 82 157 q 82 358 82 347 q 85 379 83 369 l 589 379 q 523 582 584 511 q 329 653 462 653 q 213 639 256 653 q 150 615 170 625 l 134 693 q 206 719 153 704 q 332 735 260 735 q 493 707 426 735 q 603 629 560 679 q 665 510 646 579 q 685 360 685 441 m 175 303 q 227 128 177 190 q 369 66 277 66 q 455 85 416 66 q 523 137 494 104 q 567 212 551 169 q 586 303 583 255 l 175 303 "},"":{"x_min":13.890625,"x_max":612.546875,"ha":626,"o":"m 612 777 q 588 661 612 715 q 525 566 565 606 q 429 502 484 526 q 312 479 375 479 q 195 502 250 479 q 101 566 141 526 q 37 661 61 606 q 13 777 13 715 q 37 895 13 840 q 101 990 61 950 q 195 1054 141 1030 q 312 1078 250 1078 q 429 1054 375 1078 q 525 990 484 1030 q 588 895 565 950 q 612 777 612 840 m 109 818 q 81 806 94 818 q 69 777 69 794 q 81 750 69 762 q 109 738 94 738 q 138 750 126 738 q 150 777 150 762 q 138 806 150 794 q 109 818 126 818 m 375 599 q 387 571 375 581 q 413 561 400 561 q 443 574 431 561 q 454 602 454 587 q 441 631 454 622 q 415 641 429 641 q 385 628 395 641 q 375 599 375 615 m 195 777 q 209 833 195 808 q 247 873 223 858 l 216 923 q 171 878 190 904 q 144 820 152 852 q 166 777 166 806 q 144 734 166 750 q 171 677 152 702 q 216 633 190 652 l 247 683 q 209 723 223 698 q 195 777 195 748 m 312 895 q 392 864 359 895 q 429 788 425 833 l 486 788 q 433 901 481 855 q 415 898 422 898 q 379 911 395 898 q 359 945 362 925 q 312 951 338 951 q 236 933 270 951 l 263 884 q 312 895 286 895 m 312 661 q 263 672 286 661 l 236 623 q 312 605 270 605 q 359 611 338 605 q 379 645 362 631 q 415 658 395 658 q 433 655 422 658 q 486 768 481 701 l 429 768 q 392 692 425 723 q 312 661 359 661 m 415 914 q 441 924 429 914 q 454 954 454 934 q 443 982 454 969 q 413 994 433 994 q 386 984 398 994 q 373 955 373 973 q 386 926 373 939 q 415 914 400 914 "},"Ї":{"x_min":-10,"x_max":357,"ha":344,"o":"m 125 963 l 219 963 l 219 0 l 125 0 l 125 963 m 118 1151 q 99 1103 118 1121 q 54 1085 81 1085 q 8 1103 26 1085 q -10 1151 -10 1121 q 8 1199 -10 1181 q 54 1218 26 1218 q 99 1199 81 1218 q 118 1151 118 1181 m 357 1151 q 338 1103 357 1121 q 293 1085 320 1085 q 247 1103 265 1085 q 229 1151 229 1121 q 247 1199 229 1181 q 293 1218 265 1218 q 338 1199 320 1218 q 357 1151 357 1181 "},"û":{"x_min":111,"x_max":671,"ha":790,"o":"m 671 24 q 562 0 630 13 q 395 -14 494 -14 q 261 9 315 -14 q 173 76 206 33 q 125 180 140 119 q 111 315 111 241 l 111 718 l 201 718 l 201 344 q 212 215 201 268 q 248 129 223 162 q 313 82 273 97 q 409 68 352 68 q 521 74 473 68 q 581 87 568 81 l 581 718 l 671 718 l 671 24 m 246 811 l 208 854 l 391 1058 l 575 854 l 536 811 l 391 944 l 246 811 "},"Ź":{"x_min":53,"x_max":722,"ha":778,"o":"m 708 876 q 631 782 674 837 q 537 660 587 726 q 435 520 487 594 q 333 370 383 446 q 237 220 282 294 q 156 82 192 147 l 722 82 l 722 0 l 53 0 l 53 70 q 125 202 83 130 q 216 349 168 273 q 318 501 265 425 q 422 648 370 578 q 519 778 473 718 q 605 881 566 837 l 79 881 l 79 963 l 708 963 l 708 876 m 590 1220 l 352 1027 l 307 1079 l 526 1291 l 590 1220 "},"":{"x_min":80,"x_max":672,"ha":751,"o":"m 672 580 q 533 143 672 290 q 129 -3 394 -3 l 126 72 q 293 92 217 72 q 426 157 370 113 q 517 269 482 201 q 565 435 552 338 q 475 401 527 416 q 362 387 422 387 q 231 411 285 387 q 143 475 177 435 q 95 568 110 516 q 80 678 80 621 q 96 785 80 731 q 148 883 113 839 q 237 955 183 927 q 364 983 290 983 q 593 876 515 983 q 672 580 672 770 m 371 466 q 482 480 434 466 q 572 514 530 495 q 574 546 573 531 q 575 581 575 561 q 565 705 575 646 q 532 808 556 763 q 468 878 508 852 q 365 904 428 904 q 278 885 314 904 q 219 835 242 866 q 187 764 197 805 q 177 681 177 724 q 226 518 177 571 q 371 466 275 466 "},"Ῑ":{"x_min":-11,"x_max":357,"ha":344,"o":"m 125 963 l 219 963 l 219 0 l 125 0 l 125 963 m -11 1119 l -11 1195 l 357 1195 l 357 1119 l -11 1119 "},"":{"x_min":58,"x_max":1139,"ha":1203,"o":"m 439 583 q 387 471 439 515 q 247 428 336 428 q 160 440 197 428 q 101 473 124 453 q 68 521 78 494 q 58 576 58 548 q 86 661 58 629 q 151 712 115 693 q 96 758 119 729 q 73 837 73 788 q 86 894 73 867 q 122 940 99 920 q 177 971 145 960 q 247 983 209 983 q 324 971 291 983 q 378 940 356 959 q 410 896 400 921 q 421 846 421 871 q 397 766 421 798 q 340 713 373 735 q 416 656 394 691 q 439 583 439 620 m 130 585 q 134 553 130 570 q 152 522 139 536 q 189 500 166 509 q 247 491 212 491 q 337 518 311 491 q 364 578 364 546 q 326 645 364 618 q 204 690 288 672 q 150 648 170 674 q 130 585 130 622 m 349 842 q 323 897 349 873 q 247 922 298 922 q 171 898 198 922 q 145 839 145 874 q 176 774 145 797 q 281 733 207 751 q 332 781 316 755 q 349 842 349 806 m 830 963 l 922 963 l 372 0 l 281 0 l 830 963 m 1053 230 q 996 212 1024 216 q 950 208 969 208 q 860 221 897 208 q 801 256 823 234 q 769 307 779 278 q 760 369 760 337 q 771 430 760 399 q 804 487 782 462 q 861 528 826 512 q 944 544 896 544 q 1091 482 1044 544 q 1139 317 1139 421 q 1049 81 1139 164 q 789 -3 959 -1 l 786 62 q 973 107 904 62 q 1053 230 1042 153 m 949 271 q 1010 275 979 271 q 1061 290 1040 280 q 1063 303 1063 297 q 1063 315 1063 309 q 1038 433 1063 387 q 946 480 1014 480 q 897 471 917 480 q 863 446 876 462 q 844 412 850 431 q 838 373 838 392 q 865 294 838 318 q 949 271 892 271 "},"Ń":{"x_min":125,"x_max":860,"ha":985,"o":"m 780 0 q 712 113 753 48 q 623 253 671 178 q 520 406 575 327 q 412 558 466 484 q 308 698 359 633 q 218 810 257 763 l 218 0 l 125 0 l 125 963 l 199 963 q 351 779 271 883 q 510 568 432 675 q 655 357 588 460 q 767 179 723 255 l 767 963 l 860 963 l 860 0 l 780 0 m 683 1220 l 445 1027 l 400 1079 l 619 1291 l 683 1220 "},"ῖ":{"x_min":-8.125,"x_max":331.125,"ha":351,"o":"m 298 -13 q 218 -1 252 -11 q 161 30 184 9 q 126 86 138 52 q 115 171 115 120 l 115 718 l 205 718 l 205 174 q 211 121 205 141 q 230 89 217 100 q 262 71 242 77 q 311 62 283 66 l 298 -13 m 161 1036 q 226 1024 194 1036 q 281 991 257 1013 q 319 933 305 969 q 331 851 332 898 l 271 851 q 267 878 271 860 q 252 914 264 896 q 220 944 241 931 q 161 958 198 958 q 102 944 124 958 q 70 914 81 931 q 55 878 58 896 q 52 851 52 860 l -8 851 q 3 933 -9 898 q 41 991 17 969 q 96 1024 65 1013 q 161 1036 128 1036 "},"ɀ":{"x_min":53,"x_max":634,"ha":631,"o":"m 634 -245 q 603 -251 624 -248 q 563 -254 582 -254 q 477 -240 513 -254 q 413 -204 442 -226 q 360 -154 385 -183 q 305 -97 335 -126 q 264 -58 285 -76 q 217 -28 243 -41 q 160 -7 192 -15 q 86 0 128 0 l 53 0 l 53 65 q 142 215 89 133 q 253 376 196 296 q 364 526 310 456 q 456 642 418 596 l 74 642 l 74 718 l 566 718 l 566 644 q 483 546 534 609 q 375 405 432 483 q 260 242 318 327 q 156 78 201 157 q 283 32 229 68 q 385 -54 336 -4 q 427 -98 407 -76 q 470 -138 447 -120 q 519 -166 493 -155 q 577 -178 545 -178 q 600 -177 590 -178 q 622 -173 610 -176 l 634 -245 "},"ᾛ":{"x_min":-45,"x_max":1608,"ha":1649,"o":"m 1073 963 l 1167 963 l 1167 0 l 1073 0 l 1073 463 l 550 463 l 550 0 l 456 0 l 456 963 l 550 963 l 550 545 l 1073 545 l 1073 963 m 392 739 l 336 699 l 157 924 l 236 979 l 392 739 m 109 699 q 52 742 80 718 q 3 793 24 767 q -31 846 -18 819 q -45 898 -45 873 q -24 956 -45 934 q 31 978 -3 978 q 82 957 64 978 q 101 908 101 936 q 87 869 101 886 q 52 844 74 851 q 89 791 64 818 q 147 739 115 764 l 109 699 m 1595 -13 q 1515 -1 1549 -11 q 1458 30 1481 9 q 1423 86 1435 52 q 1412 171 1412 120 l 1412 718 l 1502 718 l 1502 174 q 1508 121 1502 141 q 1527 89 1514 100 q 1559 71 1539 77 q 1608 62 1580 66 l 1595 -13 "},".":{"x_min":94,"x_max":247,"ha":341,"o":"m 247 59 q 226 5 247 27 q 170 -17 206 -17 q 114 5 134 -17 q 94 59 94 27 q 114 113 94 91 q 170 136 134 136 q 226 113 206 136 q 247 59 247 91 "},"ǀ":{"x_min":139,"x_max":225,"ha":364,"o":"m 139 1088 l 225 1088 l 225 -257 l 139 -257 l 139 1088 "},"π":{"x_min":119,"x_max":674,"ha":793,"o":"m 674 0 l 584 0 l 584 642 l 209 642 l 209 0 l 119 0 l 119 718 l 674 718 l 674 0 "},"":{"x_min":119,"x_max":751.84375,"ha":851,"o":"m 382 1078 q 478 1068 441 1078 q 526 1053 514 1059 l 507 974 q 462 989 492 981 q 386 997 432 997 q 250 948 291 997 q 209 792 209 899 l 209 718 l 498 718 l 498 642 l 209 642 l 209 0 l 119 0 l 119 796 q 183 1007 119 936 q 382 1078 248 1078 m 731 0 l 641 0 l 641 718 l 731 718 l 731 0 m 751 934 q 732 883 751 902 q 685 865 713 865 q 638 883 657 865 q 618 934 618 902 q 638 985 618 966 q 685 1004 657 1004 q 732 985 713 1004 q 751 934 751 966 "},"Ъ":{"x_min":25,"x_max":932,"ha":982,"o":"m 524 521 q 435 518 474 521 q 373 512 396 515 l 373 83 q 436 77 399 80 q 525 74 473 74 q 644 83 588 74 q 742 118 700 93 q 808 187 784 143 q 833 298 833 230 q 810 407 833 364 q 746 475 787 450 q 648 510 705 500 q 524 521 591 521 m 373 963 l 373 594 q 440 600 396 597 q 519 603 484 603 q 829 526 727 603 q 932 298 932 450 q 834 72 932 153 q 522 -8 736 -8 q 396 -1 463 -8 q 279 18 329 4 l 279 881 l 25 881 l 25 963 l 373 963 "},"ή":{"x_min":119,"x_max":679,"ha":789,"o":"m 119 693 q 227 718 159 704 q 394 732 295 732 q 531 708 476 732 q 618 641 585 684 q 665 536 651 597 q 679 401 679 475 l 679 -256 l 589 -256 l 589 372 q 578 501 589 448 q 543 587 568 554 q 479 635 519 620 q 380 650 440 650 q 269 643 316 650 q 209 630 222 636 l 209 0 l 119 0 l 119 693 m 589 1003 l 351 810 l 306 862 l 525 1074 l 589 1003 "},"ȵ":{"x_min":119,"x_max":987,"ha":970,"o":"m 793 54 q 728 34 753 54 q 680 -14 703 15 l 680 -49 q 711 -147 680 -115 q 795 -179 743 -179 q 876 -145 850 -179 q 902 -62 902 -111 q 875 18 902 -16 q 793 54 849 54 m 680 77 q 740 117 707 105 q 809 130 773 130 q 883 115 850 130 q 939 74 916 100 q 974 13 962 48 q 987 -62 987 -21 q 934 -205 987 -154 q 795 -257 881 -257 q 662 -218 707 -257 q 599 -115 616 -179 l 497 -238 l 450 -196 l 591 -26 q 590 -3 590 -12 q 590 16 590 4 l 590 372 q 579 501 590 448 q 544 587 569 554 q 480 635 520 620 q 380 650 440 650 q 269 643 316 650 q 209 630 222 636 l 209 0 l 119 0 l 119 693 q 227 718 159 704 q 394 732 295 732 q 531 708 476 732 q 619 640 586 684 q 666 535 652 597 q 680 401 680 474 l 680 77 "},"Ś":{"x_min":48,"x_max":668,"ha":718,"o":"m 332 61 q 506 101 444 61 q 569 234 569 142 q 548 322 569 287 q 495 382 528 357 q 419 423 462 406 q 329 460 376 441 q 222 509 269 484 q 142 565 175 534 q 91 637 108 596 q 74 731 74 677 q 155 919 74 855 q 383 983 237 983 q 460 977 422 983 q 530 962 497 971 q 589 942 562 953 q 635 919 616 931 l 601 839 q 503 884 561 867 q 379 901 446 901 q 295 891 333 901 q 229 862 257 882 q 185 812 201 842 q 170 738 170 781 q 186 663 170 694 q 233 610 203 633 q 303 570 262 588 q 390 533 343 552 q 498 485 447 509 q 586 430 548 462 q 645 352 623 398 q 668 240 668 306 q 577 44 668 109 q 330 -21 486 -21 q 229 -14 275 -21 q 147 3 183 -7 q 86 24 111 13 q 48 44 61 35 l 78 126 q 115 106 92 117 q 171 85 139 95 q 243 67 203 74 q 332 61 283 61 m 558 1220 l 320 1027 l 275 1079 l 494 1291 l 558 1220 "},"à":{"x_min":67,"x_max":596,"ha":707,"o":"m 346 66 q 438 69 399 66 q 506 78 478 72 l 506 330 q 457 345 490 337 q 365 353 424 353 q 296 348 332 353 q 229 327 260 343 q 179 283 198 311 q 160 210 160 255 q 173 142 160 169 q 210 97 186 114 q 269 73 235 81 q 346 66 303 66 m 337 735 q 457 714 408 735 q 537 659 507 694 q 582 575 568 623 q 596 469 596 526 l 596 16 q 555 7 582 12 q 494 -2 529 3 q 417 -11 459 -8 q 330 -15 375 -15 q 225 -2 273 -15 q 142 37 178 10 q 87 106 107 64 q 67 210 67 148 q 89 310 67 268 q 151 378 111 351 q 247 418 192 405 q 368 431 303 431 q 409 428 387 431 q 451 423 430 426 q 485 416 471 419 q 506 410 500 412 l 506 454 q 500 527 506 491 q 476 590 494 562 q 423 636 457 619 q 333 654 389 654 q 215 642 254 654 q 158 624 176 631 l 146 704 q 218 725 169 715 q 337 735 268 735 m 234 1074 l 454 862 l 408 810 l 171 1003 l 234 1074 "},"₀":{"x_min":50,"x_max":448,"ha":499,"o":"m 249 544 q 392 473 336 544 q 448 266 448 403 q 392 59 448 129 q 249 -11 336 -11 q 105 59 161 -11 q 50 266 50 129 q 105 473 50 403 q 249 544 161 544 m 249 57 q 306 73 283 57 q 343 118 329 90 q 363 185 357 147 q 369 266 369 223 q 363 347 369 309 q 343 414 357 385 q 306 459 329 442 q 249 476 283 476 q 191 459 214 476 q 154 414 168 442 q 134 347 140 385 q 129 266 129 309 q 134 185 129 223 q 154 118 140 147 q 191 73 168 90 q 249 57 214 57 "},"₴":{"x_min":62,"x_max":717,"ha":783,"o":"m 553 566 q 491 504 528 535 q 374 426 453 472 l 335 396 l 717 396 l 717 324 l 243 324 q 214 212 214 275 q 266 100 214 141 q 427 60 319 60 q 508 64 473 60 q 571 78 543 69 q 620 96 599 86 q 661 115 642 105 l 688 37 q 593 0 657 19 q 424 -19 528 -19 q 276 1 335 -19 q 182 53 217 21 q 132 128 147 86 q 118 211 118 169 q 120 239 118 224 q 124 270 122 254 q 132 301 127 286 q 144 324 137 315 l 62 324 l 62 396 l 234 396 q 297 457 259 426 q 414 534 335 488 l 446 566 l 62 566 l 62 638 l 536 638 q 567 678 561 657 q 573 735 573 700 q 518 858 573 814 q 371 902 463 902 q 250 888 296 902 q 181 865 205 875 l 158 942 q 243 968 191 955 q 371 981 295 981 q 517 958 460 981 q 607 900 574 935 q 653 823 641 865 q 666 742 666 781 q 661 686 666 711 q 646 638 656 661 l 717 638 l 717 566 l 553 566 "},"¦":{"x_min":139,"x_max":225,"ha":364,"o":"m 139 265 l 225 265 l 225 -257 l 139 -257 l 139 265 m 139 1088 l 225 1088 l 225 566 l 139 566 l 139 1088 "},"Ѣ":{"x_min":25,"x_max":945,"ha":995,"o":"m 512 589 q 695 572 615 589 q 831 520 776 555 q 915 427 886 484 q 945 291 945 371 q 839 66 945 140 q 529 -8 733 -8 q 403 -1 470 -8 q 286 18 336 4 l 286 820 l 25 820 l 25 899 l 286 899 l 286 1025 l 380 1025 l 380 899 l 676 899 l 676 820 l 380 820 l 380 589 l 512 589 m 380 508 l 380 83 q 443 77 406 80 q 533 74 480 74 q 652 83 595 74 q 752 118 709 93 q 820 184 794 143 q 846 290 846 226 q 821 399 846 356 q 752 465 797 441 q 642 498 706 489 q 499 508 578 508 l 380 508 "},"ᾼ":{"x_min":14,"x_max":1204,"ha":1245,"o":"m 1191 -13 q 1111 -1 1145 -11 q 1054 30 1077 9 q 1019 86 1031 52 q 1008 171 1008 120 l 1008 718 l 1098 718 l 1098 174 q 1104 121 1098 141 q 1123 89 1110 100 q 1155 71 1135 77 q 1204 62 1176 66 l 1191 -13 m 771 0 q 721 136 745 70 q 675 264 698 201 l 208 264 q 161 136 184 201 q 112 0 137 70 l 14 0 q 118 279 69 149 q 212 525 166 410 q 305 748 259 641 q 401 963 351 855 l 486 963 q 583 748 536 855 q 675 525 629 641 q 770 279 722 409 q 876 0 819 150 l 771 0 m 441 855 q 340 611 388 734 q 238 345 291 487 l 647 345 q 543 611 594 487 q 441 855 493 734 "},"Ҧ":{"x_min":125,"x_max":1363,"ha":1402,"o":"m 798 569 q 873 591 818 579 q 995 603 927 603 q 1160 572 1091 603 q 1274 485 1229 541 q 1341 349 1319 429 q 1363 172 1363 269 q 1339 0 1363 79 q 1269 -135 1315 -77 q 1157 -225 1223 -193 q 1005 -257 1090 -257 q 961 -255 984 -257 q 930 -251 938 -254 l 937 -170 q 962 -174 944 -173 q 995 -175 980 -175 q 1100 -153 1051 -175 q 1187 -88 1150 -131 q 1245 20 1224 -44 q 1266 172 1266 86 q 1194 428 1266 337 q 991 520 1123 520 q 926 516 958 520 q 869 507 895 513 q 824 497 842 501 q 798 488 806 492 l 798 0 l 704 0 l 704 881 l 219 881 l 219 0 l 125 0 l 125 963 l 798 963 l 798 569 "},"e":{"x_min":76,"x_max":678.78125,"ha":761,"o":"m 76 360 q 103 524 76 454 q 173 641 130 594 q 273 712 217 689 q 389 735 330 735 q 600 648 521 735 q 678 384 678 562 q 678 361 678 372 q 676 341 677 350 l 172 341 q 237 137 176 208 q 431 67 298 67 q 547 80 504 67 q 610 104 590 94 l 627 26 q 554 0 607 15 q 428 -15 500 -15 q 267 12 334 -15 q 157 90 200 40 q 95 209 114 140 q 76 360 76 278 m 586 417 q 533 591 583 529 q 391 654 483 654 q 304 634 342 654 q 237 582 266 615 q 193 507 209 550 q 174 417 177 464 l 586 417 "},"Ἱ":{"x_min":-42,"x_max":307,"ha":432,"o":"m 213 963 l 307 963 l 307 0 l 213 0 l 213 963 m 112 699 q 55 742 83 718 q 6 793 27 767 q -28 846 -15 819 q -42 898 -42 873 q -21 956 -42 934 q 34 978 0 978 q 85 957 67 978 q 104 908 104 936 q 90 869 104 886 q 55 844 77 851 q 93 791 68 818 q 150 739 118 764 l 112 699 "},"ὗ":{"x_min":111,"x_max":678,"ha":789,"o":"m 394 -15 q 259 9 313 -15 q 172 75 205 33 q 124 177 138 118 q 111 305 111 236 l 111 718 l 201 718 l 201 313 q 214 199 201 245 q 251 123 227 152 q 312 81 276 94 q 394 68 348 68 q 476 81 440 68 q 537 123 512 94 q 574 199 561 152 q 588 313 588 245 l 588 718 l 678 718 l 678 305 q 664 177 678 236 q 616 75 650 118 q 529 9 583 33 q 394 -15 475 -15 m 469 799 q 430 822 454 807 q 383 859 406 837 q 344 907 361 880 q 327 964 327 933 q 346 1020 327 1001 q 394 1039 365 1039 q 443 1020 427 1039 q 458 976 458 1001 q 422 917 458 939 q 449 878 429 899 q 500 839 470 858 l 469 799 m 394 1149 q 336 1137 358 1149 q 303 1109 315 1125 q 286 1077 291 1093 q 282 1052 282 1061 l 222 1052 q 234 1128 220 1096 q 272 1182 248 1161 q 329 1213 297 1203 q 394 1224 361 1224 q 459 1213 427 1224 q 516 1182 491 1203 q 554 1128 540 1161 q 567 1052 568 1096 l 507 1052 q 502 1077 507 1061 q 485 1109 497 1093 q 451 1137 473 1125 q 394 1149 429 1149 "},"ļ":{"x_min":53,"x_max":314,"ha":354,"o":"m 301 -13 q 221 -1 255 -11 q 164 30 187 9 q 129 86 141 52 q 118 171 118 120 l 118 1061 l 208 1078 l 208 174 q 214 121 208 141 q 233 89 220 100 q 265 71 245 77 q 314 62 286 66 l 301 -13 m 156 -94 l 156 -76 l 245 -76 q 246 -88 246 -81 q 246 -99 246 -95 q 204 -216 246 -174 q 96 -258 162 -258 q 72 -256 85 -258 q 53 -252 59 -255 l 53 -193 q 134 -169 112 -193 q 156 -94 156 -145 "},"Ѓ":{"x_min":125,"x_max":645,"ha":670,"o":"m 645 963 l 645 881 l 219 881 l 219 0 l 125 0 l 125 963 l 645 963 m 563 1220 l 325 1027 l 280 1079 l 499 1291 l 563 1220 "},"ò":{"x_min":76,"x_max":732,"ha":808,"o":"m 732 358 q 707 204 732 273 q 639 85 683 134 q 536 10 595 37 q 404 -17 476 -17 q 271 10 331 -17 q 168 85 212 37 q 100 204 124 134 q 76 358 76 273 q 100 512 76 443 q 168 631 124 582 q 271 707 212 680 q 404 735 331 735 q 536 707 476 735 q 639 631 595 680 q 707 512 683 582 q 732 358 732 443 m 636 358 q 573 573 636 493 q 404 653 510 653 q 234 573 297 653 q 172 358 172 493 q 234 144 172 223 q 404 65 297 65 q 573 144 510 65 q 636 358 636 223 m 276 1074 l 496 862 l 450 810 l 213 1003 l 276 1074 "},"ﬄ":{"x_min":119,"x_max":1359,"ha":1399,"o":"m 382 1078 q 478 1068 441 1078 q 526 1053 514 1059 l 507 974 q 462 989 492 981 q 386 997 432 997 q 250 948 291 997 q 209 792 209 899 l 209 718 l 498 718 l 498 642 l 209 642 l 209 0 l 119 0 l 119 796 q 183 1007 119 936 q 382 1078 248 1078 m 904 1078 q 1000 1068 963 1078 q 1048 1053 1036 1059 l 1029 974 q 984 989 1014 981 q 908 997 954 997 q 772 948 813 997 q 731 792 731 899 l 731 718 l 1020 718 l 1020 642 l 731 642 l 731 0 l 641 0 l 641 796 q 705 1007 641 936 q 904 1078 770 1078 m 1346 -13 q 1266 -1 1300 -11 q 1209 30 1232 9 q 1174 86 1186 52 q 1163 171 1163 120 l 1163 1061 l 1253 1078 l 1253 174 q 1259 121 1253 141 q 1278 89 1265 100 q 1310 71 1290 77 q 1359 62 1331 66 l 1346 -13 "},"^":{"x_min":86,"x_max":697,"ha":783,"o":"m 697 494 l 628 458 l 391 887 l 154 458 l 86 494 l 346 963 l 436 963 l 697 494 "},"":{"x_min":46,"x_max":452,"ha":499,"o":"m 452 802 l 452 741 l 381 741 l 381 607 l 307 607 l 307 741 l 46 741 l 46 786 q 88 860 59 814 q 153 957 116 906 q 232 1057 190 1008 q 315 1138 275 1106 l 381 1138 l 381 802 l 452 802 m 307 802 l 307 1049 q 257 993 283 1025 q 206 928 230 962 q 160 860 182 894 q 125 802 139 826 l 307 802 "},"Ӑ":{"x_min":14,"x_max":876,"ha":890,"o":"m 771 0 q 721 136 745 70 q 675 264 698 201 l 208 264 q 161 136 184 201 q 112 0 137 70 l 14 0 q 118 279 69 149 q 212 525 166 410 q 305 748 259 641 q 401 963 351 855 l 486 963 q 583 748 536 855 q 675 525 629 641 q 770 279 722 409 q 876 0 819 150 l 771 0 m 441 855 q 340 611 388 734 q 238 345 291 487 l 647 345 q 543 611 594 487 q 441 855 493 734 m 445 1057 q 317 1100 367 1057 q 253 1222 266 1143 l 327 1242 q 363 1164 335 1194 q 445 1135 392 1135 q 526 1164 497 1135 q 563 1242 554 1194 l 637 1222 q 573 1100 623 1143 q 445 1057 522 1057 "},"к":{"x_min":119,"x_max":678,"ha":703,"o":"m 119 0 l 119 718 l 209 718 l 209 386 q 296 470 247 423 q 390 563 344 516 q 475 650 435 609 q 539 718 515 691 l 647 718 q 570 636 615 681 q 479 545 526 591 q 389 457 432 500 q 312 383 345 414 q 412 307 359 352 q 514 210 465 262 q 606 103 563 158 q 678 0 648 48 l 571 0 q 492 104 537 51 q 397 204 447 157 q 298 291 348 252 q 209 354 249 330 l 209 0 l 119 0 "},"Ȣ":{"x_min":71,"x_max":837,"ha":908,"o":"m 454 75 q 568 86 516 75 q 657 122 620 98 q 716 186 695 147 q 737 279 737 225 q 716 372 737 333 q 657 436 695 411 q 568 473 620 461 q 454 485 516 485 q 339 473 391 485 q 250 436 287 461 q 191 372 212 411 q 171 279 171 333 q 191 186 171 225 q 250 122 212 147 q 339 86 287 98 q 454 75 391 75 m 454 -6 q 164 71 258 -6 q 71 279 71 148 q 90 380 71 337 q 140 454 109 423 q 207 503 170 484 q 277 529 244 522 q 172 605 209 551 q 136 757 136 660 q 143 869 136 819 q 162 963 151 918 l 251 963 q 236 876 244 926 q 228 766 228 825 q 281 614 228 665 q 454 564 334 564 q 626 614 573 564 q 680 766 680 665 q 671 876 680 825 q 656 963 663 926 l 745 963 q 764 869 756 918 q 772 757 772 819 q 735 605 772 660 q 630 529 698 551 q 700 503 663 522 q 767 454 737 484 q 817 380 798 423 q 837 279 837 337 q 743 71 837 148 q 454 -6 649 -6 "},"᾿":{"x_min":167,"x_max":359,"ha":522,"o":"m 167 839 q 223 891 198 864 q 261 944 248 918 q 226 969 239 951 q 213 1008 213 986 q 231 1057 213 1036 q 282 1078 249 1078 q 338 1056 317 1078 q 359 998 359 1034 q 345 946 359 973 q 310 893 332 919 q 261 842 289 867 q 204 799 233 818 l 167 839 "},"ǘ":{"x_min":111,"x_max":671,"ha":790,"o":"m 671 24 q 562 0 630 13 q 395 -14 494 -14 q 261 9 315 -14 q 173 76 206 33 q 125 180 140 119 q 111 315 111 241 l 111 718 l 201 718 l 201 344 q 212 215 201 268 q 248 129 223 162 q 313 82 273 97 q 409 68 352 68 q 521 74 473 68 q 581 87 568 81 l 581 718 l 671 718 l 671 24 m 531 1114 l 385 942 l 334 984 l 467 1173 l 531 1114 m 471 891 q 489 939 471 921 q 535 958 507 958 q 580 939 562 958 q 599 891 599 921 q 580 843 599 861 q 535 825 562 825 q 489 843 507 825 q 471 891 471 861 m 180 891 q 198 939 180 921 q 244 958 216 958 q 289 939 271 958 q 308 891 308 921 q 289 843 308 861 q 244 825 271 825 q 198 843 216 825 q 180 891 180 861 "},"ˆ":{"x_min":78,"x_max":445,"ha":522,"o":"m 116 811 l 78 854 l 261 1058 l 445 854 l 406 811 l 261 944 l 116 811 "},"ū":{"x_min":111,"x_max":671,"ha":790,"o":"m 671 24 q 562 0 630 13 q 395 -14 494 -14 q 261 9 315 -14 q 173 76 206 33 q 125 180 140 119 q 111 315 111 241 l 111 718 l 201 718 l 201 344 q 212 215 201 268 q 248 129 223 162 q 313 82 273 97 q 409 68 352 68 q 521 74 473 68 q 581 87 568 81 l 581 718 l 671 718 l 671 24 m 207 902 l 207 978 l 575 978 l 575 902 l 207 902 "},"č":{"x_min":76,"x_max":607,"ha":639,"o":"m 416 -15 q 269 11 333 -15 q 162 87 205 37 q 98 205 120 136 q 76 357 76 273 q 98 511 76 441 q 164 630 121 580 q 269 707 207 680 q 406 735 330 735 q 515 725 464 735 q 594 700 566 715 l 570 622 q 507 644 542 636 q 414 653 473 653 q 233 575 295 653 q 172 357 172 498 q 185 239 172 293 q 231 148 199 186 q 311 88 262 110 q 431 67 361 67 q 529 80 490 67 q 587 103 569 93 l 607 25 q 528 -1 581 11 q 416 -15 474 -15 m 388 928 l 533 1062 l 572 1018 l 388 815 l 205 1018 l 243 1062 l 388 928 "},"’":{"x_min":56,"x_max":217,"ha":319,"o":"m 217 1015 q 193 864 217 935 q 122 722 169 792 l 56 752 q 103 874 90 819 q 117 978 117 930 q 117 1005 117 994 q 115 1029 117 1016 l 217 1029 l 217 1015 "},"Ν":{"x_min":125,"x_max":860,"ha":985,"o":"m 780 0 q 712 113 753 48 q 623 253 671 178 q 520 406 575 327 q 412 558 466 484 q 308 698 359 633 q 218 810 257 763 l 218 0 l 125 0 l 125 963 l 199 963 q 351 779 271 883 q 510 568 432 675 q 655 357 588 460 q 767 179 723 255 l 767 963 l 860 963 l 860 0 l 780 0 "},"Q":{"x_min":86,"x_max":989,"ha":1075,"o":"m 989 481 q 959 284 989 370 q 880 135 930 198 q 762 35 830 73 q 617 -14 694 -1 q 652 -80 622 -52 q 724 -127 682 -108 q 818 -159 766 -147 q 918 -178 869 -171 l 898 -257 q 784 -232 845 -247 q 668 -191 723 -218 q 573 -124 614 -165 q 521 -21 533 -83 q 352 15 432 -18 q 214 111 273 48 q 120 267 155 174 q 86 481 86 360 q 122 699 86 605 q 220 855 158 792 q 363 951 281 919 q 537 983 445 983 q 711 951 629 983 q 854 855 793 919 q 952 699 916 792 q 989 481 989 605 m 889 481 q 863 655 889 578 q 793 786 838 732 q 682 869 747 841 q 537 898 618 898 q 392 869 456 898 q 281 786 327 841 q 211 655 236 732 q 186 481 186 578 q 211 307 186 384 q 281 176 236 230 q 392 93 327 122 q 537 64 456 64 q 682 93 618 64 q 793 176 747 122 q 863 307 838 230 q 889 481 889 384 "},"ȝ":{"x_min":18,"x_max":521,"ha":579,"o":"m 213 657 q 109 645 149 655 q 41 620 69 634 l 18 694 q 100 722 45 710 q 218 735 155 735 q 322 721 273 735 q 407 679 371 708 q 464 602 443 650 q 485 487 485 555 q 471 418 485 451 q 437 359 458 386 q 386 313 415 333 q 326 284 357 294 q 466 213 412 266 q 521 62 521 160 q 498 -48 521 0 q 438 -131 476 -95 q 349 -191 400 -166 q 244 -229 298 -215 q 132 -250 189 -244 q 24 -257 75 -257 l 19 -181 q 92 -176 50 -179 q 178 -164 133 -172 q 268 -139 224 -155 q 348 -96 313 -122 q 405 -30 383 -69 q 427 62 427 8 q 399 158 427 123 q 331 211 371 193 q 248 233 291 229 q 175 237 205 237 l 150 237 l 150 313 l 166 313 q 244 322 204 313 q 318 352 284 331 q 372 408 351 373 q 393 494 393 442 q 347 615 393 573 q 213 657 302 657 "},"ᾅ":{"x_min":76,"x_max":796.109375,"ha":831,"o":"m 626 57 q 539 7 591 29 q 412 -15 487 -15 q 264 14 327 -15 q 159 93 201 43 q 96 211 117 143 q 76 357 76 279 q 101 516 76 445 q 175 634 127 586 q 290 707 223 682 q 438 732 356 732 q 518 727 480 732 q 589 716 557 722 q 646 702 622 709 q 685 688 671 694 l 685 175 q 691 121 685 141 q 712 89 698 100 q 747 71 726 77 q 796 62 768 66 l 783 -13 q 626 57 671 -8 m 595 626 q 576 631 590 627 q 542 640 563 636 q 497 647 522 644 q 446 650 472 650 q 244 575 316 650 q 172 357 172 500 q 183 246 172 298 q 224 154 195 194 q 298 90 252 114 q 412 67 344 67 q 476 73 446 67 q 531 90 507 80 q 574 111 556 100 q 601 130 592 122 q 595 196 595 161 l 595 626 m 575 1079 l 655 1024 l 475 799 l 420 839 l 575 1079 m 349 799 q 292 842 320 818 q 243 893 264 867 q 208 946 221 919 q 195 998 195 973 q 215 1056 195 1034 q 271 1078 236 1078 q 322 1057 304 1078 q 341 1008 341 1036 q 327 969 341 986 q 292 944 314 951 q 330 891 305 918 q 387 839 355 864 l 349 799 m 459 -94 q 480 -169 459 -145 q 562 -193 502 -193 l 562 -252 q 542 -256 555 -255 q 518 -258 530 -258 q 410 -216 452 -258 q 368 -99 368 -174 q 368 -88 368 -95 q 370 -76 368 -81 l 459 -76 l 459 -94 "},"Ҋ":{"x_min":125,"x_max":957.53125,"ha":996,"o":"m 125 0 l 125 963 l 218 963 l 218 179 q 329 357 261 255 q 474 568 396 460 q 633 779 552 675 q 785 963 713 883 l 860 963 l 860 82 l 957 82 q 947 -20 959 30 q 914 -115 936 -70 q 864 -197 893 -159 q 807 -261 836 -234 l 739 -212 q 770 -178 752 -199 q 807 -128 789 -156 q 839 -67 825 -99 q 860 0 853 -34 l 767 0 l 766 810 q 676 697 726 762 q 572 558 625 633 q 464 406 518 484 q 361 253 409 327 q 272 113 313 178 q 204 0 231 48 l 125 0 m 492 1057 q 364 1100 414 1057 q 300 1222 313 1143 l 374 1242 q 410 1164 382 1194 q 492 1135 439 1135 q 573 1164 544 1135 q 610 1242 601 1194 l 684 1222 q 620 1100 670 1143 q 492 1057 569 1057 "},"œ":{"x_min":76,"x_max":1229,"ha":1311,"o":"m 403 735 q 569 686 501 735 q 677 554 638 638 q 787 689 717 644 q 940 735 856 735 q 1150 648 1072 735 q 1229 383 1229 562 q 1228 360 1229 371 q 1226 340 1227 349 l 722 340 q 787 136 726 207 q 981 66 848 66 q 1098 79 1055 66 q 1161 103 1141 93 l 1178 25 q 1105 0 1158 14 q 979 -16 1051 -16 q 783 30 854 -16 q 676 157 712 76 q 567 28 635 74 q 403 -17 499 -17 q 271 10 331 -17 q 168 85 212 37 q 100 204 124 134 q 76 358 76 273 q 100 512 76 443 q 168 631 124 582 q 271 707 212 680 q 403 735 331 735 m 636 358 q 573 573 636 493 q 404 653 510 653 q 234 573 297 653 q 172 358 172 493 q 234 144 172 223 q 404 65 297 65 q 573 144 510 65 q 636 358 636 223 m 1136 416 q 1083 591 1133 528 q 941 654 1033 654 q 854 634 892 654 q 787 582 816 615 q 743 506 759 549 q 724 416 727 463 l 1136 416 "},"ӗ":{"x_min":76,"x_max":678.78125,"ha":761,"o":"m 76 360 q 103 524 76 454 q 173 641 130 594 q 273 712 217 689 q 389 735 330 735 q 600 648 521 735 q 678 384 678 562 q 678 361 678 372 q 676 341 677 350 l 172 341 q 237 137 176 208 q 431 67 298 67 q 547 80 504 67 q 610 104 590 94 l 627 26 q 554 0 607 15 q 428 -15 500 -15 q 267 12 334 -15 q 157 90 200 40 q 95 209 114 140 q 76 360 76 278 m 586 417 q 533 591 583 529 q 391 654 483 654 q 304 634 342 654 q 237 582 266 615 q 193 507 209 550 q 174 417 177 464 l 586 417 m 388 840 q 260 883 310 840 q 196 1005 209 926 l 270 1025 q 306 947 278 977 q 388 918 335 918 q 469 947 440 918 q 506 1025 497 977 l 580 1005 q 516 883 566 926 q 388 840 465 840 "},"Ὲ":{"x_min":-50,"x_max":885,"ha":939,"o":"m 293 0 l 293 963 l 849 963 l 849 881 l 387 881 l 387 547 l 799 547 l 799 466 l 387 466 l 387 82 l 885 82 l 885 0 l 293 0 m 13 974 l 233 762 l 187 710 l -50 903 l 13 974 "},"Ɵ":{"x_min":86,"x_max":989,"ha":1075,"o":"m 989 481 q 952 263 989 358 q 854 106 916 169 q 711 10 793 42 q 537 -21 629 -21 q 363 10 445 -21 q 220 106 281 42 q 122 263 158 169 q 86 481 86 358 q 122 699 86 605 q 220 855 158 792 q 363 951 281 919 q 537 983 445 983 q 711 951 629 983 q 854 855 793 919 q 952 699 916 792 q 989 481 989 605 m 537 64 q 676 90 614 64 q 784 166 739 116 q 856 286 829 215 q 888 446 883 357 l 186 446 q 217 286 190 357 q 290 166 244 215 q 398 90 336 116 q 537 64 461 64 m 537 898 q 400 872 462 898 q 292 799 337 846 q 220 682 247 751 q 187 527 192 614 l 888 527 q 855 682 882 614 q 783 799 828 751 q 675 872 737 846 q 537 898 612 898 "},"ș":{"x_min":56,"x_max":538,"ha":594,"o":"m 266 64 q 394 89 343 64 q 445 176 445 115 q 436 226 445 205 q 406 263 427 247 q 351 295 385 280 q 267 331 317 311 q 191 365 227 348 q 127 406 155 383 q 83 461 100 429 q 67 539 67 493 q 132 680 67 626 q 313 735 198 735 q 434 722 387 735 q 502 700 482 710 l 481 619 q 425 642 464 628 q 309 656 385 656 q 252 649 279 656 q 204 630 225 643 q 171 596 183 617 q 159 547 159 576 q 170 497 159 518 q 202 460 181 476 q 254 430 223 444 q 326 400 286 416 q 405 366 367 383 q 472 324 443 348 q 519 265 501 299 q 538 180 538 231 q 465 33 538 83 q 266 -17 392 -17 q 122 -1 172 -17 q 56 23 72 14 l 79 105 q 97 96 83 102 q 134 82 111 90 q 191 69 158 75 q 266 64 223 64 m 255 -94 l 255 -76 l 344 -76 q 345 -88 345 -81 q 345 -99 345 -95 q 303 -216 345 -174 q 195 -258 261 -258 q 171 -256 184 -258 q 152 -252 158 -255 l 152 -193 q 233 -169 211 -193 q 255 -94 255 -145 "},"ἱ":{"x_min":61,"x_max":311,"ha":351,"o":"m 298 -13 q 218 -1 252 -11 q 161 30 184 9 q 126 86 138 52 q 115 171 115 120 l 115 718 l 205 718 l 205 174 q 211 121 205 141 q 230 89 217 100 q 262 71 242 77 q 311 62 283 66 l 298 -13 m 215 799 q 158 842 186 818 q 109 893 130 867 q 74 946 87 919 q 61 998 61 973 q 81 1056 61 1034 q 137 1078 102 1078 q 188 1057 170 1078 q 207 1008 207 1036 q 193 969 207 986 q 158 944 180 951 q 196 891 171 918 q 253 839 221 864 l 215 799 "},"Ѵ":{"x_min":14,"x_max":1038,"ha":1023,"o":"m 479 0 l 389 0 q 306 189 346 95 q 222 394 266 283 q 128 643 179 505 q 14 963 78 780 l 119 963 q 200 728 161 839 q 276 514 239 618 q 354 311 314 411 q 437 108 393 211 l 708 822 q 748 904 728 874 q 792 950 769 934 q 840 971 815 966 q 892 976 865 976 q 944 969 921 976 q 985 951 967 962 q 1016 928 1003 941 q 1038 906 1029 916 l 993 844 q 953 878 978 862 q 896 894 928 894 q 869 890 882 894 q 842 876 855 887 q 816 844 829 865 q 788 786 802 822 l 479 0 "},"Ȫ":{"x_min":86,"x_max":989,"ha":1075,"o":"m 989 481 q 952 263 989 358 q 854 106 916 169 q 711 10 793 42 q 537 -21 629 -21 q 363 10 445 -21 q 220 106 281 42 q 122 263 158 169 q 86 481 86 358 q 122 699 86 605 q 220 855 158 792 q 363 951 281 919 q 537 983 445 983 q 711 951 629 983 q 854 855 793 919 q 952 699 916 792 q 989 481 989 605 m 889 481 q 863 655 889 578 q 793 786 838 732 q 682 869 747 841 q 537 898 618 898 q 392 869 456 898 q 281 786 327 841 q 211 655 236 732 q 186 481 186 578 q 211 307 186 384 q 281 176 236 230 q 392 93 327 122 q 537 64 456 64 q 682 93 618 64 q 793 176 747 122 q 863 307 838 230 q 889 481 889 384 m 363 1324 l 712 1324 l 712 1249 l 363 1249 l 363 1324 m 463 1108 q 444 1060 463 1078 q 399 1042 426 1042 q 353 1060 371 1042 q 335 1108 335 1078 q 353 1156 335 1138 q 399 1175 371 1175 q 444 1156 426 1175 q 463 1108 463 1138 m 740 1108 q 721 1060 740 1078 q 676 1042 703 1042 q 630 1060 648 1042 q 612 1108 612 1078 q 630 1156 612 1138 q 676 1175 648 1175 q 721 1156 703 1175 q 740 1108 740 1138 "},"ǎ":{"x_min":67,"x_max":596,"ha":707,"o":"m 346 66 q 438 69 399 66 q 506 78 478 72 l 506 330 q 457 345 490 337 q 365 353 424 353 q 296 348 332 353 q 229 327 260 343 q 179 283 198 311 q 160 210 160 255 q 173 142 160 169 q 210 97 186 114 q 269 73 235 81 q 346 66 303 66 m 337 735 q 457 714 408 735 q 537 659 507 694 q 582 575 568 623 q 596 469 596 526 l 596 16 q 555 7 582 12 q 494 -2 529 3 q 417 -11 459 -8 q 330 -15 375 -15 q 225 -2 273 -15 q 142 37 178 10 q 87 106 107 64 q 67 210 67 148 q 89 310 67 268 q 151 378 111 351 q 247 418 192 405 q 368 431 303 431 q 409 428 387 431 q 451 423 430 426 q 485 416 471 419 q 506 410 500 412 l 506 454 q 500 527 506 491 q 476 590 494 562 q 423 636 457 619 q 333 654 389 654 q 215 642 254 654 q 158 624 176 631 l 146 704 q 218 725 169 715 q 337 735 268 735 m 360 928 l 505 1062 l 544 1018 l 360 815 l 177 1018 l 215 1062 l 360 928 "},"₈":{"x_min":58,"x_max":439,"ha":499,"o":"m 439 144 q 387 32 439 76 q 247 -11 336 -11 q 160 1 197 -11 q 101 34 124 14 q 68 82 78 55 q 58 137 58 109 q 86 222 58 190 q 151 273 115 254 q 96 319 119 290 q 73 398 73 349 q 86 455 73 428 q 122 501 99 481 q 177 532 145 521 q 247 544 209 544 q 324 532 291 544 q 378 501 356 520 q 410 457 400 482 q 421 407 421 432 q 397 327 421 359 q 340 274 373 296 q 416 217 394 252 q 439 144 439 181 m 130 146 q 134 114 130 131 q 152 83 139 97 q 189 61 166 70 q 247 52 212 52 q 337 79 311 52 q 364 139 364 107 q 326 206 364 179 q 204 251 288 233 q 150 209 170 235 q 130 146 130 183 m 349 403 q 323 458 349 434 q 247 483 298 483 q 171 459 198 483 q 145 400 145 435 q 176 335 145 358 q 281 294 207 312 q 332 342 316 316 q 349 403 349 367 "},"Ǖ":{"x_min":121,"x_max":824,"ha":945,"o":"m 472 -21 q 309 8 376 -21 q 200 88 241 37 q 139 209 158 140 q 121 357 121 277 l 121 963 l 215 963 l 215 369 q 233 232 215 290 q 285 137 252 175 q 366 82 319 100 q 472 64 414 64 q 578 82 530 64 q 659 137 625 100 q 711 232 692 175 q 730 369 730 290 l 730 963 l 824 963 l 824 357 q 805 209 824 277 q 744 88 786 140 q 635 8 703 37 q 472 -21 568 -21 m 298 1324 l 647 1324 l 647 1249 l 298 1249 l 298 1324 m 398 1108 q 379 1060 398 1078 q 334 1042 361 1042 q 288 1060 306 1042 q 270 1108 270 1078 q 288 1156 270 1138 q 334 1175 306 1175 q 379 1156 361 1175 q 398 1108 398 1138 m 675 1108 q 656 1060 675 1078 q 611 1042 638 1042 q 565 1060 583 1042 q 547 1108 547 1078 q 565 1156 547 1138 q 611 1175 583 1175 q 656 1156 638 1175 q 675 1108 675 1138 "},"д":{"x_min":21,"x_max":754,"ha":797,"o":"m 672 76 l 754 76 l 754 -199 l 666 -199 l 666 0 l 109 0 l 109 -199 l 21 -199 l 21 76 l 95 76 q 167 214 140 148 q 209 351 195 281 q 229 497 224 420 q 234 666 234 574 l 234 718 l 672 718 l 672 76 m 319 642 q 314 494 319 566 q 295 351 309 422 q 256 211 281 280 q 191 76 231 142 l 582 76 l 582 642 l 319 642 "},"Ⱥ":{"x_min":14,"x_max":876.25,"ha":890,"o":"m 739 1047 l 601 679 q 670 539 638 619 q 733 374 701 459 q 801 195 765 288 q 876 0 836 102 l 773 0 q 722 136 747 70 q 675 266 697 202 l 445 266 l 292 -139 l 217 -113 l 360 266 l 208 266 q 160 136 183 202 q 111 0 136 70 l 14 0 q 118 279 70 149 q 213 525 166 409 q 306 748 259 641 q 402 963 352 855 l 486 963 q 524 879 505 920 q 557 787 542 838 l 665 1074 l 739 1047 m 388 342 l 513 671 q 478 769 496 726 q 441 857 459 812 q 338 611 389 737 q 234 342 287 486 l 388 342 m 649 342 q 602 454 624 399 q 556 560 579 508 l 473 342 l 649 342 "}}}
